<?xml version="1.0" encoding="UTF-8" standalone="no"?>
<!-- Created with Inkscape (http://www.inkscape.org/) -->

<svg
   width="2127.4202"
   height="1227.907"
   viewBox="0 0 2127.4201 1227.907"
   version="1.1"
   id="svg5"
   inkscape:version="1.3 (0e150ed6c4, 2023-07-21)"
   xml:space="preserve"
   sodipodi:docname="Paxinos-Page-54-Slice.svg"
   xmlns:inkscape="http://www.inkscape.org/namespaces/inkscape"
   xmlns:sodipodi="http://sodipodi.sourceforge.net/DTD/sodipodi-0.dtd"
   xmlns="http://www.w3.org/2000/svg"
   xmlns:svg="http://www.w3.org/2000/svg"><sodipodi:namedview
     id="namedview7"
     pagecolor="#ffffff"
     bordercolor="#e0e0e0"
     borderopacity="1"
     inkscape:pageshadow="2"
     inkscape:pageopacity="0.0"
     inkscape:pagecheckerboard="false"
     inkscape:document-units="px"
     showgrid="false"
     units="px"
     showborder="true"
     inkscape:showpageshadow="true"
     inkscape:deskcolor="#ffffff"
     inkscape:zoom="0.22627417"
     inkscape:cx="371.23106"
     inkscape:cy="581.15339"
     inkscape:window-width="1920"
     inkscape:window-height="991"
     inkscape:window-x="-9"
     inkscape:window-y="-9"
     inkscape:window-maximized="1"
     inkscape:current-layer="g1"
     showguides="true" /><defs
     id="defs2"><inkscape:path-effect
       effect="powerstroke"
       id="path-effect789"
       is_visible="true"
       lpeversion="1.3"
       scale_width="1"
       interpolator_type="CentripetalCatmullRom"
       interpolator_beta="0.2"
       start_linecap_type="zerowidth"
       end_linecap_type="zerowidth"
       offset_points="0.17643527,0.71801088 | 4.538762,1.8868205 | 6.8465469,0.44067828"
       linejoin_type="round"
       miter_limit="4"
       not_jump="false"
       sort_points="true"
       message="&lt;b&gt;Ctrl + click&lt;/b&gt; on existing node and move it" /><inkscape:path-effect
       effect="powerstroke"
       id="path-effect755"
       is_visible="true"
       lpeversion="1.3"
       scale_width="1"
       interpolator_type="CentripetalCatmullRom"
       interpolator_beta="0.2"
       start_linecap_type="zerowidth"
       end_linecap_type="zerowidth"
       offset_points="0.21951057,0.308 | 1.4065087,1.6924743 | 2.3100271,0.81604321"
       linejoin_type="round"
       miter_limit="4"
       not_jump="false"
       sort_points="true"
       message="&lt;b&gt;Ctrl + click&lt;/b&gt; on existing node and move it" /><inkscape:path-effect
       effect="powerstroke"
       id="path-effect753"
       is_visible="true"
       lpeversion="1.3"
       scale_width="1"
       interpolator_type="CentripetalCatmullRom"
       interpolator_beta="0.2"
       start_linecap_type="zerowidth"
       end_linecap_type="zerowidth"
       offset_points="0.21951057,0.308 | 1.4065087,1.6924743 | 2.3100271,0.81604321"
       linejoin_type="round"
       miter_limit="4"
       not_jump="false"
       sort_points="true"
       message="&lt;b&gt;Ctrl + click&lt;/b&gt; on existing node and move it" /><inkscape:path-effect
       effect="powerstroke"
       id="path-effect749"
       is_visible="true"
       lpeversion="1.3"
       scale_width="1"
       interpolator_type="CentripetalCatmullRom"
       interpolator_beta="0.2"
       start_linecap_type="zerowidth"
       end_linecap_type="zerowidth"
       offset_points="0.23139507,0.67384379 | 0.99879322,2.4788988 | 1.909764,0.88702774"
       linejoin_type="round"
       miter_limit="4"
       not_jump="false"
       sort_points="true"
       message="&lt;b&gt;Ctrl + click&lt;/b&gt; on existing node and move it" /><inkscape:path-effect
       effect="powerstroke"
       id="path-effect747"
       is_visible="true"
       lpeversion="1.3"
       scale_width="1"
       interpolator_type="CentripetalCatmullRom"
       interpolator_beta="0.2"
       start_linecap_type="zerowidth"
       end_linecap_type="zerowidth"
       offset_points="0.55529683,-0.95759685 | 4.0410257,-4.4132229 | 6.2730676,-2.6471003"
       linejoin_type="round"
       miter_limit="4"
       not_jump="false"
       sort_points="true"
       message="&lt;b&gt;Ctrl + click&lt;/b&gt; on existing node and move it" /><inkscape:path-effect
       effect="powerstroke"
       id="path-effect745"
       is_visible="true"
       lpeversion="1.3"
       scale_width="1"
       interpolator_type="CentripetalCatmullRom"
       interpolator_beta="0.2"
       start_linecap_type="zerowidth"
       end_linecap_type="zerowidth"
       offset_points="0.23139507,0.67384379 | 0.99879322,2.4788988 | 1.909764,0.88702774"
       linejoin_type="round"
       miter_limit="4"
       not_jump="false"
       sort_points="true"
       message="&lt;b&gt;Ctrl + click&lt;/b&gt; on existing node and move it" /><inkscape:path-effect
       effect="powerstroke"
       id="path-effect743"
       is_visible="true"
       lpeversion="1.3"
       scale_width="1"
       interpolator_type="CentripetalCatmullRom"
       interpolator_beta="0.2"
       start_linecap_type="zerowidth"
       end_linecap_type="zerowidth"
       offset_points="0.55529683,-0.95759685 | 4.0410257,-4.4132229 | 6.2730676,-2.6471003"
       linejoin_type="round"
       miter_limit="4"
       not_jump="false"
       sort_points="true"
       message="&lt;b&gt;Ctrl + click&lt;/b&gt; on existing node and move it" /><inkscape:path-effect
       effect="powerstroke"
       id="path-effect741"
       is_visible="true"
       lpeversion="1.3"
       scale_width="1"
       interpolator_type="CentripetalCatmullRom"
       interpolator_beta="0.2"
       start_linecap_type="zerowidth"
       end_linecap_type="zerowidth"
       offset_points="0.10852897,0.69122495 | 1.6525364,-0.23718273 | 1.6525364,-0.23718273 | 1.5989681,-0.096717257 | 5.5327193,-1.9259106 | 4.0418221,-2.8016649 | 10.902303,-0.65230825 | 8.8114656,-2.3340781 | 9.8648833,-1.2241206"
       linejoin_type="round"
       miter_limit="4"
       not_jump="false"
       sort_points="true"
       message="&lt;b&gt;Ctrl + click&lt;/b&gt; on existing node and move it" /><inkscape:path-effect
       effect="powerstroke"
       id="path-effect739"
       is_visible="true"
       lpeversion="1.3"
       scale_width="1"
       interpolator_type="CentripetalCatmullRom"
       interpolator_beta="0.2"
       start_linecap_type="zerowidth"
       end_linecap_type="zerowidth"
       offset_points="0.17643527,0.71801088 | 4.538762,1.8868205 | 6.8465469,0.44067828"
       linejoin_type="round"
       miter_limit="4"
       not_jump="false"
       sort_points="true"
       message="&lt;b&gt;Ctrl + click&lt;/b&gt; on existing node and move it" /></defs><g
     id="g1"
     inkscape:groupmode="layer"
     inkscape:label="1"
     transform="translate(-4441.0483,38.916027)"><rect
       style="fill:#ffffff;stroke-width:2.74233;paint-order:markers fill stroke"
       id="rect1"
       width="2127.4202"
       height="1227.907"
       x="4441.0483"
       y="-38.916027" /><g
       id="g792"
       transform="matrix(1.773822,0,0,1.773822,-3436.581,30.114078)"><rect
         style="fill:#000000;fill-opacity:1;stroke:none;stroke-width:0.648229;paint-order:markers fill stroke"
         id="rect788"
         width="228.01045"
         height="8.6055536"
         x="5368.3438"
         y="557.91376" /><text
         xml:space="preserve"
         style="font-weight:bold;font-size:67.8899px;line-height:100%;font-family:'Segoe UI';-inkscape-font-specification:'Segoe UI Bold';text-decoration-color:#000000;letter-spacing:0px;word-spacing:0px;white-space:pre;inline-size:1425.18;display:inline;fill:#000000;fill-opacity:1;stroke:none;stroke-width:1.546;paint-order:markers fill stroke"
         x="5053.0908"
         y="703.49408"
         id="text788"
         transform="matrix(0.75047008,0,0,0.75047008,1621.494,92.798525)"><tspan
           x="5053.0908"
           y="703.49408"
           id="tspan2">5 mm</tspan></text><g
         id="g791"><path
           id="path718"
           d="m 4937.7335,12.715778 c 14.7839,-5.8080002 53.8559,-23.760133 140.4484,-15.8400002 0,0 54.9122,5.279867 96.0962,24.2879992 0,0 34.8482,6.864134 93.9842,60.720139 59.1361,53.856264 80.7843,114.576394 90.2884,143.088664 9.504,28.512 20.064,76.56 6.3359,125.664 0,0 -5.28,19.53613 -16.368,33.26439 0,0 -5.2802,5.80787 -0.5279,17.424 0,0 14.256,29.56814 -11.6161,69.69627 -25.8722,40.12813 -38.5443,61.248 -76.0323,85.53613 0,0 -34.848,17.952 -89.7604,-2.64 0,0 -15.3118,-10.032 -36.96,-17.42387 0,0 -13.0238,-5.45613 -27.104,-11.0884 -14.08,-5.63173 -17.9521,-23.23186 -11.6161,-30.97586 0,0 -7.04,14.78386 -23.9361,16.544 0,0 -13.0239,7.74426 -27.456,22.528 -14.432,14.78413 -39.072,31.32826 -63.36,30.97613 0,0 -10.1202,-2.02413 -11.7922,-1.75987 -1.672,0.264 -8.5361,2.46387 -11.704,3.60787 -3.1681,1.144 -4.488,0.35213 -7.2162,-0.0879 -2.7279,-0.44 -6.336,-0.61613 -9.3279,0.44 -2.992,1.05587 -3.6081,-0.0881 -6.072,-0.264 -2.4641,-0.176 -9.592,0.35187 -13.024,-1.848 -3.4321,-2.20013 -6.0721,-3.96 -20.5923,-4.13586 0,0 -19.712,3.51973 -40.04,-9.15214 -20.328,-12.67226 -38.0161,-30.36013 -43.8242,-32.73626 -5.808,-2.376 -4.2239,-3.43187 -13.464,-5.01614 -9.24,-1.58386 -15.5759,-6.07186 -18.744,-11.35186 0,0 9.504,23.49613 -15.3119,32.73626 1.6652,-0.62026 -0.792,0 -0.792,0 0,0 -44.0881,13.46387 -57.2883,20.592 0,0 -23.7601,14.52014 -62.0402,12.144 -38.28,-2.376 -55.9682,-27.45613 -61.2483,-33.52826 -5.2799,-6.072 -39.6,-42.504 -49.632,-66.52813 -10.0319,-24.02427 -17.688,-35.64014 -12.6719,-68.37614 0,0 5.2799,-14.78426 3.6959,-18.48 -1.5839,-3.69613 -19.2719,-24.02413 -20.0641,-45.14413 -0.7919,-21.12013 -0.5279,-71.54426 4.7522,-90.28826 5.2799,-18.74427 18.216,-69.43227 39.0719,-95.8324 20.856,-26.4 58.3441,-69.696264 108.7683,-96.360274 50.4241,-26.663995 52.5361,-24.552262 58.0802,-26.136129 5.544,-1.584 34.0562,-10.824133 43.5602,-14.519866 9.5038,-3.6961332 53.856,-19.8001332 110.8802,-16.8962662 0,0 34.5842,4.75213303 45.1442,9.240133 10.5601,4.488 18.4802,7.9200002 18.4802,7.9200002 z"
           style="fill:#dcdcdc;fill-opacity:1;fill-rule:nonzero;stroke:none;stroke-width:1.056;stroke-linecap:butt;stroke-linejoin:miter;stroke-miterlimit:4;stroke-dasharray:none;stroke-opacity:1" /><path
           id="path719"
           d="m 4943.8751,476.00431 c 1.584,-4.4 5.0556,-18.61054 10.736,-21.47227 7.5612,-3.8092 20.5906,-5.16787 28.6814,1.47067 11.44,9.3868 17.6066,20.5296 16.9026,23.69746 -0.704,3.16787 1.7602,5.808 -13.9038,3.34387 0,0 -23.9362,-2.992 -33.2643,3.16813 -9.328,6.16 -9.328,2.99187 -9.328,2.99187"
           style="fill:#6600cc;fill-opacity:1;fill-rule:nonzero;stroke:#6600cc;stroke-width:0.616;stroke-linecap:butt;stroke-linejoin:miter;stroke-miterlimit:4;stroke-dasharray:none;stroke-dashoffset:0;stroke-opacity:1" /><path
           id="path720"
           d="m 4933.667,473.36417 c -3.1679,-8.448 -4.5759,-22.70426 -26.5759,-19.00813 -22.0002,3.696 -28.1601,19.88813 -28.8641,22.52813 -0.7043,2.64014 -2.64,12.144 4.224,10.032 6.8639,-2.112 29.92,-8.97613 45.9361,0 0,0 3.1679,3.344 4.5759,-0.35213"
           style="font-variation-settings:normal;opacity:1;vector-effect:none;fill:#6600cc;fill-opacity:1;fill-rule:nonzero;stroke:#6600cc;stroke-width:0.616;stroke-linecap:butt;stroke-linejoin:miter;stroke-miterlimit:4;stroke-dasharray:none;stroke-dashoffset:0;stroke-opacity:1;-inkscape-stroke:none;stop-color:#000000;stop-opacity:1" /><path
           id="path721"
           d="m 4934.371,454.70804 c -0.3519,-4.576 0.88,-13.19987 1.584,-14.432 0.704,-1.232 4.5761,-4.752 6.5121,1.408 1.9359,6.16013 1.0559,26.04813 1.2319,29.74427 0.1761,3.696 -0.88,38.71986 2.64,48.04786 3.52,9.32827 18.3041,29.04027 25.5201,33.08813 0,0 8.6242,7.56814 -0.176,8.09614 -8.7998,0.52786 -47.3441,1.05613 -56.3201,-0.88014 -8.9761,-1.93586 -19.36,-0.52786 -11.2641,-8.8 8.0961,-8.272 26.4002,-17.42413 27.9842,-38.896 1.5839,-21.47199 2.2879,-57.37626 2.2879,-57.37626 z"
           style="fill:#dcdcdc;fill-opacity:1;fill-rule:nonzero;stroke:none;stroke-width:0.616;stroke-linecap:butt;stroke-linejoin:miter;stroke-miterlimit:4;stroke-dasharray:none;stroke-dashoffset:0;stroke-opacity:1" /><path
           id="path722"
           d="m 3821.7122,222.12338 c -0.4001,-0.0683 -1.2808,-0.31871 -3.2867,-0.328 -0.5013,-0.002 -1.0869,0.009 -1.7768,0.0425 -0.756,0.0362 -1.7014,0.0982 -2.8658,0.19386 -2.6814,0.22026 -6.6302,0.63292 -11.3059,1.22768 -3.4886,0.44377 -7.3601,0.98618 -10.6229,1.52422 -1.4316,0.23607 -2.7551,0.47331 -3.8075,0.693 -0.5015,0.10471 -0.9589,0.20905 -1.3414,0.31027 -0.1879,0.0497 -0.3674,0.10123 -0.5306,0.15435 -0.1569,0.0511 -0.3233,0.11149 -0.4779,0.1835 -0.4056,0.18146 -0.8063,0.40617 -1.2029,0.63855 -0.3851,0.22561 -0.7794,0.46612 -1.2051,0.70787 -0.7993,0.4539 -1.7435,0.93285 -2.933,1.29069 -1.1334,0.34098 -2.5652,0.59589 -4.4217,0.58066 -1.8003,-0.0148 -4.0411,-0.28365 -6.8588,-1.0079 -5.6513,-1.45099 -11.875,-3.17777 -20.1251,-6.36111 -8.1363,-3.13939 -18.2246,-7.68599 -31.7433,-14.76706 -0.037,-0.0455 -0.076,-0.0913 -0.1174,-0.13731 -0.374,-0.41282 -0.8965,-0.77473 -1.5855,-1.04785 -0.7055,-0.27968 -1.577,-0.46365 -2.6467,-0.5334 -1.1264,-0.0735 -2.4843,-0.021 -4.1146,0.18674 -0.3351,0.0429 -0.8192,0.0834 -1.4517,0.1231 -0.6366,0.0399 -1.3964,0.0774 -2.2564,0.11653 -1.8395,0.0836 -3.8953,0.1647 -6.3736,0.29363 -5.3728,0.27951 -11.3635,0.72041 -17.487,1.56516 -1.0042,0.13854 -2.0016,0.28657 -2.9909,0.44475 -5.511,0.88121 -11.0337,2.12242 -16.0253,3.89151 -3.0018,1.06387 -5.8187,2.32114 -8.3306,3.81114 -2.5444,1.50926 -4.7882,3.26473 -6.5923,5.31026 -3.4044,3.86398 -6.0615,7.24334 -8.2189,10.08324 -2.2328,2.9391 -3.9746,5.35193 -5.5157,7.27511 -0.7906,0.98659 -1.5221,1.83867 -2.2378,2.57793 -0.726,0.74989 -1.4294,1.37693 -2.1468,1.89911 -0.7283,0.53007 -1.4779,0.95712 -2.2847,1.29077 -0.8227,0.34023 -1.7166,0.58806 -2.7184,0.74311 -1.0364,0.16012 -2.3283,0.25189 -3.7913,0.26909 -1.4912,0.0175 -3.1452,-0.0424 -4.881,-0.18125 -3.6009,-0.28798 -7.4881,-0.90871 -11.103,-1.8635 -3.8057,-1.00522 -7.2323,-2.35842 -9.8381,-4.05675 -1.0414,-0.67873 -1.9447,-1.40782 -2.6904,-2.18647 -0.2215,-0.23126 -0.4304,-0.46809 -0.6256,-0.71056 -0.8481,-1.05339 -1.4393,-2.21329 -1.6944,-3.48978 -0.042,-0.12928 -0.1026,-0.28712 -0.1563,-0.43315 -0.057,-0.15599 -0.1158,-0.3225 -0.1691,-0.50624 -0.1118,-0.38514 -0.1928,-0.82008 -0.1882,-1.31699 0.01,-0.56695 0.1217,-1.15701 0.365,-1.77345 0.345,-0.87366 0.8823,-1.64101 1.3715,-2.23942 -0.5214,0.56511 -1.109,1.30863 -1.5271,2.17096 -0.2969,0.61223 -0.4756,1.215 -0.5481,1.81943 -0.064,0.53338 -0.039,1.00825 0.012,1.44226 0.024,0.20573 0.053,0.3886 0.076,0.55573 0.023,0.16522 0.04,0.30429 0.041,0.41438 0.2428,1.41877 0.8575,2.71136 1.7446,3.88111 0.2038,0.26866 0.4217,0.53056 0.6524,0.78579 0.7766,0.85897 1.7135,1.66016 2.7845,2.40486 2.6746,1.85982 6.1755,3.35919 10.0321,4.50915 3.6681,1.09374 7.6152,1.85712 11.2923,2.29011 1.773,0.20877 3.4757,0.33959 5.028,0.39104 1.5162,0.0503 2.9041,0.0252 4.0664,-0.0815 1.1562,-0.10646 2.2363,-0.3249 3.2669,-0.67064 1.013,-0.33989 1.9637,-0.79791 2.8839,-1.37908 0.903,-0.57023 1.7664,-1.25246 2.6259,-2.04537 0.8446,-0.77919 1.6856,-1.66535 2.5596,-2.65976 1.7182,-1.95481 3.5384,-4.2958 5.8364,-7.15412 2.2088,-2.74722 4.8903,-6.01048 8.2815,-9.74147 1.541,-1.69314 3.5,-3.20013 5.8146,-4.53625 2.2849,-1.31895 4.8915,-2.45711 7.7332,-3.43657 4.7305,-1.63051 10.0271,-2.79219 15.402,-3.62607 0.962,-0.14926 1.9335,-0.28901 2.913,-0.41981 5.9803,-0.79859 11.854,-1.21186 17.1713,-1.47087 2.4607,-0.11987 4.4844,-0.19305 6.349,-0.27147 0.8642,-0.0363 1.6513,-0.0723 2.3225,-0.11186 0.6527,-0.0384 1.236,-0.0825 1.6986,-0.1393 1.4569,-0.17824 2.5586,-0.20609 3.3764,-0.15167 0.7791,0.0519 1.2358,0.17412 1.4784,0.26677 0.227,0.0867 0.2286,0.12734 0.1636,0.0494 -0.072,-0.0858 -0.172,-0.2457 -0.2394,-0.51041 l 0.9541,1.17189 c 13.8655,7.24568 24.2486,11.89154 32.6658,15.08313 8.4574,3.20682 14.8519,4.91312 20.5971,6.31093 3.0648,0.74644 5.5998,1.01973 7.7272,0.98873 2.2062,-0.0321 3.9719,-0.39192 5.4124,-0.88778 1.5041,-0.51779 2.6565,-1.18671 3.535,-1.76186 0.4516,-0.2957 0.8737,-0.59608 1.1998,-0.82463 0.3654,-0.2561 0.6331,-0.43833 0.8802,-0.58464 0,-0.007 0.063,-0.0399 0.1535,-0.0775 0.093,-0.0387 0.2145,-0.0834 0.3634,-0.13243 0.3049,-0.10054 0.7004,-0.2124 1.1694,-0.33194 0.9788,-0.24954 2.2503,-0.52564 3.6567,-0.80641 3.1661,-0.63206 7.0853,-1.30284 10.4806,-1.85822 4.3704,-0.71487 8.8691,-1.3985 11.1838,-1.75881 1.1524,-0.17938 2.0739,-0.32565 2.8193,-0.45096 0.6772,-0.11387 1.2467,-0.21908 1.7349,-0.31716 2.0463,-0.41112 2.7278,-0.70977 3.1752,-0.82514 z"
           style="fill:#b1b1b1;fill-opacity:1;fill-rule:nonzero;stroke:none;stroke-width:1.056;stroke-linecap:butt;stroke-linejoin:miter;stroke-miterlimit:4;stroke-dasharray:none;stroke-opacity:1"
           transform="translate(1105.9709)"
           sodipodi:nodetypes="csscssssc"
           inkscape:original-d="m 3821.7122,222.12338 c -6.3362,0.26413 -32.7362,3.96 -35.3762,5.28 -2.6399,1.32013 -6.072,5.54413 -17.688,2.64 -11.6162,-2.90387 -25.08,-6.86413 -52.8002,-21.38413 0,0 -0.5281,-1.848 -6.8641,-1.05587 -6.336,0.79187 -46.9921,-0.264 -60.456,14.78413 -13.4643,15.048 -15.5763,22.704 -24.2883,23.75987 -8.7118,1.05613 -33.1333,-2.48985 -35.112,-13.19987 -0.1822,-0.98616 -1.2037,-3.12683 1.5842,-6.336"
           inkscape:path-effect="#path-effect739" /><path
           id="path723"
           d="m 4966.7551,135.00311 c 0,0 8.9762,-2.63986 17.4242,-10.296 8.448,-7.656 35.376,-16.89613 64.4161,-9.50386"
           style="font-variation-settings:normal;opacity:1;vector-effect:none;fill:none;fill-opacity:1;stroke:#c0bfbc;stroke-width:0.616;stroke-linecap:butt;stroke-linejoin:miter;stroke-miterlimit:4;stroke-dasharray:none;stroke-dashoffset:0;stroke-opacity:1;-inkscape-stroke:none;stop-color:#000000;stop-opacity:1" /><path
           id="path724"
           d="m 4905.5069,146.35525 c 2.3761,2.64 21.1201,15.048 33.7921,3.96 0,0 20.856,13.99213 29.3041,-2.112"
           style="fill:none;stroke:#c0bfbc;stroke-width:0.616;stroke-linecap:butt;stroke-linejoin:miter;stroke-miterlimit:4;stroke-dasharray:none;stroke-opacity:1" /><path
           id="path725"
           d="m 3938.6645,200.73938 c 3.4127,0.2352 10.9323,0.94393 20.5213,1.24699 5.626,0.1778 13.9881,0.28386 22.6431,0.0844 8.8263,-0.20341 16.6483,-0.69029 23.0479,-1.45121 5.54,-0.6587 9.2003,-1.42633 11.5007,-2.10168 2.1688,-0.63674 2.8905,-1.12133 2.9092,-1.21026 l -0.2627,0.071 c 3.8733,-2.96536 6.5475,-5.85882 8.3386,-8.61836 a 0.06929846,0.26967441 47.256472 0 0 0.3457,-0.1864 c 1.9047,-2.96652 2.791,-5.7751 3.0439,-8.34061 0.281,-2.85125 -0.2176,-5.43068 -1.0093,-7.63378 -0.9661,-2.68826 -2.4255,-4.96935 -3.7078,-6.6703 -1.6057,-2.12992 -3.2508,-3.75778 -3.995,-4.47125 -1.1588,-1.11079 -2.0917,-1.82565 -2.3492,-2.03491 -0.154,-0.12512 0.2153,0.18497 0,0 -1.2274,-1.05433 -2.5815,-2.11464 -4.0314,-3.14021 -2.7255,-1.92793 -5.7199,-3.55346 -5.7586,-3.43214 l -0.034,-0.0203 c -7.2152,-4.44274 -15.9582,-8.52316 -26.0503,-12.19996 -9.0009,-3.27924 -18.5786,-6.05555 -28.1107,-8.35324 -8.9329,-2.15327 -17.4271,-3.78936 -24.6333,-4.95658 -3.4904,-0.56537 -6.6216,-1.01137 -9.2751,-1.34536 -2.6325,-0.33133 -4.7766,-0.55006 -6.3056,-0.66425 -1.3455,-0.0949 -2.7261,0.0257 -4.1568,0.34152 -1.4411,0.31816 -2.9335,0.83461 -4.4867,1.52847 -3.1826,1.42181 -6.5524,3.55836 -10.1157,6.11303 -3.6927,2.64735 -7.731,5.84946 -11.6811,8.94567 -4.5594,3.57373 -8.8332,6.87442 -13.4358,10.10276 -0.8306,0.58249 -1.6426,1.13017 -2.4354,1.64552 -9.477,6.15993 -17.6459,8.62066 -24.1425,9.64294 -3.9787,0.62606 -7.6526,0.75832 -10.9908,0.67654 -3.3395,-0.0818 -6.4104,-0.37874 -9.3233,-0.6604 -2.9928,-0.28145 -6.268,-1.17513 -9.7684,-2.5517 -3.1729,-1.24779 -6.5808,-2.91304 -10.1826,-4.92855 -0.4412,-0.2469 -0.885,-0.49891 -1.3315,-0.7559 -5.8827,-3.38598 -11.749,-7.37218 -17.4331,-11.47107 a 0.55228507,0.08067717 33.469882 0 1 -0.2895,-0.25866 c 0.033,0.0592 -4.4585,-4.90607 -11.5497,-10.25644 -3.3587,-2.53421 -7.2504,-5.0878 -11.3122,-6.98518 -2.0006,-0.93454 -4.0269,-1.70249 -6.0371,-2.23181 -2,-0.52661 -3.9644,-0.81186 -5.8597,-0.79996 -4.1414,0.0238 -8.6744,0.30677 -13.3705,0.79057 -4.7273,0.48702 -9.581,1.17347 -14.3195,1.99017 -4.8336,0.83308 -9.5173,1.79637 -13.825,2.81651 -4.462,1.05668 -8.4824,2.16504 -11.8871,3.25456 -10.3237,3.29179 -20.8656,8.09063 -29.3883,12.58634 -5.0122,2.64397 -9.3793,5.20625 -12.9889,7.49817 -0.9841,0.62485 -1.9127,1.23003 -2.7865,1.81353 -2.9185,1.94874 -5.3011,3.70657 -7.1868,5.24123 -1.26,1.02105 -2.6609,2.28734 -4.0669,3.70432 -1.5126,1.52447 -3.0075,3.19871 -4.3839,4.95518 -1.4598,1.86299 -2.7749,3.80335 -3.8576,5.76757 -1.1236,2.0382 -1.996,4.09987 -2.5273,6.13507 -0.5352,2.0502 -0.73,4.09466 -0.4704,6.08238 0.2534,1.94006 0.9495,3.90375 2.2939,5.8131 1.1858,1.68402 2.9157,3.38178 5.4005,4.98889 0.2126,0.13747 0.4313,0.27468 0.6565,0.41153 2.6383,1.60363 6.1516,3.15566 10.8489,4.49245 l -0.098,-0.0228 c -0.05,0.0611 8.6942,1.69964 22.2865,2.49169 16.6672,0.97123 29.735,0.12604 40.2981,-0.82737 5.3187,-0.48006 9.8514,-0.87526 11.3883,-1.06755 -1.7363,0.41834 -5.6721,1.50675 -11.2302,2.36255 -9.9977,1.53938 -24.3339,2.47511 -40.572,1.61676 -13.1704,-0.6962 -22.5453,-2.38532 -22.5935,-2.32628 a 0.10219071,0.00419318 15.509017 0 1 -0.098,-0.0229 c -4.8593,-1.34456 -8.5888,-2.92608 -11.4734,-4.60567 -0.2465,-0.1435 -0.4868,-0.28774 -0.7212,-0.43263 -2.7399,-1.69382 -4.7699,-3.54599 -6.2396,-5.48555 -1.6745,-2.20998 -2.6366,-4.55393 -3.0616,-6.92828 -0.4329,-2.41861 -0.3102,-4.87675 0.1935,-7.28411 0.499,-2.38496 1.3799,-4.75893 2.5137,-7.05885 1.0936,-2.21836 2.433,-4.38894 3.9176,-6.45608 1.4005,-1.95009 2.9284,-3.80531 4.4832,-5.50055 1.4434,-1.57383 2.9042,-3.00244 4.2494,-4.18584 1.9677,-1.7265 4.4303,-3.64293 7.4234,-5.71743 0.8969,-0.62169 1.8493,-1.26278 2.8577,-1.92135 3.6974,-2.41482 8.1645,-5.0744 13.2876,-7.79482 8.7619,-4.65272 19.5097,-9.51885 30.2091,-12.86787 3.5501,-1.1074 7.7005,-2.21484 12.2663,-3.25622 4.411,-1.00608 9.1973,-1.94737 14.13,-2.75199 4.8354,-0.78875 9.7974,-1.44375 14.6412,-1.89461 4.8085,-0.44757 9.4888,-0.69285 13.8004,-0.66911 2.3363,0.0119 4.6714,0.38904 6.9506,1.01503 2.2914,0.62931 4.5447,1.5151 6.7113,2.55316 4.3853,2.10101 8.5001,4.86675 11.9694,7.53473 6.7245,5.17118 11.1007,9.90546 11.8364,10.73549 5.5243,4.0206 11.2658,7.90371 16.9185,11.08223 0.4348,0.24447 0.8666,0.48332 1.2955,0.71645 3.5139,1.91034 6.7768,3.41001 9.7577,4.47657 3.3085,1.1838 6.1937,1.80645 8.6374,1.90335 2.9469,0.12651 5.8642,0.24695 9.0166,0.17272 3.1261,-0.0736 6.485,-0.34111 10.0716,-1.01472 5.7839,-1.08629 13.2206,-3.4109 22.0182,-9.03835 0.7429,-0.47518 1.5065,-0.98077 2.2902,-1.51933 4.5575,-3.13245 8.7094,-6.23504 13.385,-9.73853 3.9948,-2.99332 8.2008,-6.14939 12.1201,-8.76713 3.7653,-2.51481 7.5295,-4.7179 11.2105,-6.15474 1.8101,-0.70654 3.618,-1.2354 5.4185,-1.52709 1.7944,-0.29069 3.5745,-0.34466 5.3338,-0.10906 1.5771,0.21603 3.7579,0.53859 6.409,0.97283 2.677,0.43847 5.8255,0.98943 9.3322,1.66109 7.2435,1.38737 15.7529,3.23922 24.7126,5.61555 9.5578,2.53493 19.1489,5.53934 28.1654,9.04983 10.108,3.93545 18.8545,8.25728 26.062,12.93641 l -0.034,-0.0203 c -0.039,0.12132 2.8765,1.95615 5.5301,4.04316 1.4176,1.11501 2.7256,2.23203 3.9286,3.34722 0.2086,0.19342 -0.1417,-0.13871 0,0 0.1314,0.12863 1.1727,1.18892 2.1708,2.25277 0.7,0.74615 2.2931,2.46889 3.8061,4.6445 1.2169,1.74986 2.5778,4.06253 3.4369,6.74267 0.704,2.19646 1.0971,4.71678 0.7419,7.4571 -0.3189,2.46013 -1.245,5.13422 -3.1456,7.9529 l 0.3457,-0.18639 c -1.791,2.68628 -4.4653,5.50736 -8.3386,8.40243 a 0.06328471,0.21063979 58.160242 0 0 -0.2627,0.071 c 0.019,-0.0896 -0.6546,0.24038 -2.7496,0.74554 -2.2547,0.54368 -5.8198,1.20868 -11.3239,1.80508 -6.3871,0.69207 -14.0639,1.15072 -22.9027,1.39834 -8.7725,0.24577 -16.8076,0.23542 -22.5791,0.24907 -9.7799,0.0231 -16.7837,0.16346 -20.5415,0.13532 z"
           style="fill:#b1b1b1;fill-opacity:1;fill-rule:nonzero;stroke:none;stroke-width:0.616;stroke-linecap:butt;stroke-linejoin:miter;stroke-miterlimit:4;stroke-dasharray:none;stroke-opacity:1"
           sodipodi:nodetypes="cccssscssscc"
           transform="translate(1105.9709)"
           inkscape:original-d="m 3938.6645,200.73938 c 69.1681,2.64 80.3595,-3.88256 80.3595,-3.88256 30.3603,-22.968 -8.7995,-44.59216 -8.7995,-44.59216 -30.8883,-19.53586 -82.1201,-27.55755 -94.5281,-28.87755 -12.408,-1.32013 -26.664,13.464 -45.672,26.664 -19.0082,13.20014 -33.7922,12.144 -45.1443,11.35214 -11.3521,-0.792 -27.192,-11.35214 -37.7521,-19.00827 0,0 -19.272,-21.11987 -36.1682,-21.11987 -16.896,0 -39.9062,4.222 -54.12,8.71187 -19.5941,6.18933 -42.181,18.50947 -53.0642,27.7204 -9.9911,8.4552 -31.6802,34.848 5.0161,45.144 0,0 35.112,6.6 74.1843,-0.52813"
           inkscape:path-effect="#path-effect741" /><path
           id="path726"
           d="m 4815.3949,518.5963 c -5.2802,-13.728 -15.3122,-30.09599 -20.7682,-40.30413 -5.4561,-10.20786 -27.8082,-30.27186 -35.0242,-39.07226 -7.2159,-8.79987 -26.7522,-28.68787 -30.2722,-27.10387 -3.52,1.58387 4.9282,14.43187 11.0882,24.464 6.1601,10.032 23.0561,31.68013 33.9681,45.584 10.9121,13.90413 9.9439,20.59226 9.9439,20.59226 0,0 6.68,6.9854 9.5772,8.28718 2.8309,1.27202 12.4637,3.02527 14.5138,3.6996 2.1795,0.7169 6.9734,3.85322 6.9734,3.85322 z"
           style="font-variation-settings:normal;opacity:1;vector-effect:none;fill:#989898;fill-opacity:1;stroke:none;stroke-width:0.616;stroke-linecap:butt;stroke-linejoin:miter;stroke-miterlimit:4;stroke-dasharray:none;stroke-dashoffset:0;stroke-opacity:1;-inkscape-stroke:none;stop-color:#000000;stop-opacity:1"
           sodipodi:nodetypes="cssssscssc" /><path
           id="path727"
           d="m 3824.0001,167.12338 c -2.4674,0.13659 -8.1959,0.51536 -13.6448,-0.0107 -0.4357,-0.0421 -0.8749,-0.0901 -1.3168,-0.14472 -2.7519,-0.34029 -6.11,-0.95993 -9.768,-2.28842 -1.6296,-0.59174 -3.6901,-1.47916 -6.0929,-2.71429 -2.196,-1.12879 -4.7127,-2.56657 -7.4038,-4.32828 -4.9354,-3.23107 -10.6513,-7.68179 -15.8096,-13.31555 -2.1529,-2.33282 -4.6347,-4.16069 -7.3573,-5.54997 -2.6887,-1.37198 -5.6144,-2.3169 -8.6803,-2.89055 -6.1715,-1.15474 -12.7705,-0.77858 -18.7993,0.50779 -6.7649,1.43499 -15.4336,3.45666 -24.1531,6.10286 -4.618,1.40145 -9.0463,2.91666 -13.1245,4.54315 -4.4073,1.75771 -8.2169,3.57021 -11.3816,5.42101 -0.5957,0.34812 -1.197,0.69685 -1.7977,1.04352 -3.1292,1.80595 -6.4123,3.65976 -9.6164,5.54015 -3.9572,2.32237 -7.7193,4.63959 -11.0369,6.97706 -3.4215,2.41071 -6.1753,4.70855 -8.1122,6.88656 -0.9767,1.09835 -1.6907,2.10541 -2.1781,3.01952 -0.4884,0.91601 -0.7298,1.69349 -0.8094,2.38203 -0.096,0.9377 -0.055,1.76842 0.089,2.50829 0.1451,0.74667 0.4027,1.44533 0.7769,2.10588 0.3799,0.67061 0.8947,1.32746 1.5683,1.96044 0.6815,0.64039 1.5221,1.2528 2.5343,1.81944 2.0601,1.15334 4.744,2.06846 8.0078,2.65316 3.2952,0.59034 7.1012,0.82963 11.32,0.67683 4.3924,-0.16274 9.8203,-0.42719 15.5668,-0.69192 -0.053,0.002 1.6623,-0.0762 1.6094,-0.0737 5.0835,-0.23137 10.7588,-0.46467 16.2704,-0.60752 5.83,-0.1511 11.5861,-0.20441 16.5176,-0.0472 2.4348,0.0776 4.6707,0.20654 6.6254,0.40067 1.9551,0.19417 3.6497,0.4554 4.9971,0.80449 5.6908,1.5029 10.9996,2.78147 17.1688,4.71714 8.6049,2.69988 14.2583,5.31043 18.3989,7.61683 -4.2559,-1.95687 -10.1762,-4.10302 -18.8253,-6.02317 -6.1153,-1.35763 -11.7122,-2.21132 -17.4152,-3.11487 -1.1573,-0.17664 -2.6852,-0.29656 -4.5682,-0.35875 -1.8664,-0.0616 -4.0249,-0.0648 -6.409,-0.0201 -4.8322,0.0907 -10.4938,0.37657 -16.2791,0.7448 -5.4687,0.34808 -11.0857,0.77241 -16.1533,1.17167 -0.018,0.001 -1.5837,0.12569 -1.6015,0.1271 -5.7355,0.4583 -11.1182,0.92127 -15.5468,1.28808 -4.5324,0.37195 -8.7883,0.33491 -12.638,-0.13706 -3.7884,-0.46445 -7.2824,-1.36237 -10.2743,-2.78085 -1.485,-0.70408 -2.8689,-1.54719 -4.107,-2.54759 -1.229,-0.99309 -2.317,-2.14362 -3.2085,-3.4626 -0.8848,-1.3091 -1.5593,-2.75985 -1.9869,-4.34014 -0.4226,-1.56223 -0.5934,-3.21201 -0.5132,-4.92772 0.096,-1.94552 0.6399,-3.79982 1.4656,-5.52912 0.8126,-1.70201 1.9128,-3.3156 3.1864,-4.83799 2.4879,-2.97395 5.8038,-5.79595 9.4603,-8.45304 3.5853,-2.60533 7.5804,-5.11078 11.6177,-7.50455 3.3076,-1.96108 6.5852,-3.81326 9.7016,-5.59551 0.5941,-0.33981 1.1866,-0.67937 1.7701,-1.01549 3.6654,-2.11247 7.9298,-4.06696 12.659,-5.87049 4.3854,-1.67247 9.0914,-3.18463 13.9191,-4.53731 9.0685,-2.54093 18.1401,-4.39722 25.0825,-5.5569 6.8609,-1.15332 14.4581,-1.26389 21.6373,0.46354 3.5834,0.86223 7.0436,2.17842 10.2342,4.03392 3.2395,1.88389 6.1525,4.29566 8.6202,7.28154 4.4915,5.47376 9.5926,9.97097 14.1105,13.39268 2.4428,1.85015 4.739,3.4031 6.7312,4.65325 2.1783,1.36682 4.0414,2.40249 5.4682,3.13221 3.2234,1.64869 6.2508,2.61917 8.8762,3.26088 0.4169,0.1019 0.8327,0.19847 1.247,0.29012 5.2751,1.16708 10.8047,1.60737 13.3712,1.74944 z"
           style="fill:#b1b1b1;fill-opacity:1;fill-rule:nonzero;stroke:none;stroke-width:0.616;stroke-linecap:butt;stroke-linejoin:miter;stroke-miterlimit:4;stroke-dasharray:none;stroke-dashoffset:0;stroke-opacity:1"
           transform="translate(1105.9709)"
           inkscape:original-d="m 3824.0001,167.12338 c -10.384,0 -17.6,-1.05613 -24.112,-3.87213 -6.5121,-2.816 -18.48,-10.032 -27.8081,-20.76814 -9.328,-10.736 -24.6399,-12.32 -37.6643,-9.85586 -13.0237,2.46386 -35.9039,7.74386 -50.1599,16.01586 -14.2562,8.27214 -34.6722,18.83214 -35.3762,29.39227 -0.704,10.56 10.9121,16.01613 28.5121,14.96 17.6001,-1.056 51.0401,-3.696 61.0723,-1.584 10.032,2.112 24.112,4.752 35.9041,10.736"
           inkscape:path-effect="#path-effect743" /><path
           id="path728"
           d="m 3728.6077,174.33938 c 1.2481,0.27426 4.508,0.97204 8.7629,1.91264 0.2584,0.0571 0.5255,0.11703 0.8007,0.17965 2.8942,0.65859 7.0936,1.70992 11.6914,3.11097 8.2066,2.50076 16.8787,5.85444 25.1498,10.64166 0,-3e-5 0.059,0.0342 0.059,0.0342 3.6915,2.13941 8.4065,4.75242 13.0878,6.86938 4.4242,2.00063 8.8366,3.57448 12.9581,4.24839 2.1575,0.35279 4.1686,0.4481 6.0271,0.26908 2.084,-0.20075 3.8752,-0.73716 5.4021,-1.53073 1.9538,-1.01549 3.3175,-2.37132 4.2527,-3.64566 0.3621,-0.49341 0.6569,-0.97061 0.8913,-1.40076 1.0388,-1.90597 1.2396,-3.78425 1.3815,-4.49706 -0.3891,0.63431 -1.5264,2.073 -2.8283,3.47039 -0.2981,0.32004 -0.6398,0.66729 -1.0286,1.01735 -1.0111,0.91015 -2.2609,1.76719 -3.8735,2.32609 -1.2503,0.43333 -2.6875,0.67714 -4.3742,0.66247 -1.5134,-0.0131 -3.1892,-0.23408 -5.0527,-0.68099 -3.5906,-0.8611 -7.538,-2.47797 -11.7261,-4.54063 -4.3787,-2.15658 -8.9842,-4.7927 -12.6522,-6.86975 -1e-4,-2e-5 -0.063,-0.0359 -0.063,-0.0359 -8.771,-4.95605 -18.4711,-7.67855 -26.9122,-9.22049 -4.8617,-0.8881 -9.1531,-1.35702 -12.1567,-1.6574 -0.2828,-0.0283 -0.5574,-0.0554 -0.8223,-0.0813 -4.2916,-0.42005 -7.8529,-0.5364 -8.9742,-0.58161 z"
           style="fill:#b1b1b1;fill-opacity:1;fill-rule:nonzero;stroke:none;stroke-width:0.616;stroke-linecap:butt;stroke-linejoin:miter;stroke-miterlimit:4;stroke-dasharray:none;stroke-dashoffset:0;stroke-opacity:1"
           transform="translate(1105.9709)"
           inkscape:original-d="m 3728.6077,174.33938 c 10.9121,1.40773 30.8001,4.04773 47.6963,13.72787 16.896,9.68013 36.0802,19.53613 42.7681,2.46386"
           inkscape:path-effect="#path-effect745" /><path
           id="path729"
           d="m 3824.0001,167.12338 c -2.4674,0.13659 -8.1959,0.51536 -13.6448,-0.0107 -0.4357,-0.0421 -0.8749,-0.0901 -1.3168,-0.14472 -2.7519,-0.34029 -6.11,-0.95993 -9.768,-2.28842 -1.6296,-0.59174 -3.6901,-1.47916 -6.0929,-2.71429 -2.196,-1.12879 -4.7127,-2.56657 -7.4038,-4.32828 -4.9354,-3.23107 -10.6513,-7.68179 -15.8096,-13.31555 -2.1529,-2.33282 -4.6347,-4.16069 -7.3573,-5.54997 -2.6887,-1.37198 -5.6144,-2.3169 -8.6803,-2.89055 -6.1715,-1.15474 -12.7705,-0.77858 -18.7993,0.50779 -6.7649,1.43499 -15.4336,3.45666 -24.1531,6.10286 -4.618,1.40145 -9.0463,2.91666 -13.1245,4.54315 -4.4073,1.75771 -8.2169,3.57021 -11.3816,5.42101 -0.5957,0.34812 -1.197,0.69685 -1.7977,1.04352 -3.1292,1.80595 -6.4123,3.65976 -9.6164,5.54015 -3.9572,2.32237 -7.7193,4.63959 -11.0369,6.97706 -3.4215,2.41071 -6.1753,4.70855 -8.1122,6.88656 -0.9767,1.09835 -1.6907,2.10541 -2.1781,3.01952 -0.4884,0.91601 -0.7298,1.69349 -0.8094,2.38203 -0.096,0.9377 -0.055,1.76842 0.089,2.50829 0.1451,0.74667 0.4027,1.44533 0.7769,2.10588 0.3799,0.67061 0.8947,1.32746 1.5683,1.96044 0.6815,0.64039 1.5221,1.2528 2.5343,1.81944 2.0601,1.15334 4.744,2.06846 8.0078,2.65316 3.2952,0.59034 7.1012,0.82963 11.32,0.67683 4.3924,-0.16274 9.8203,-0.42719 15.5668,-0.69192 -0.053,0.002 1.6623,-0.0762 1.6094,-0.0737 5.0835,-0.23137 10.7588,-0.46467 16.2704,-0.60752 5.83,-0.1511 11.5861,-0.20441 16.5176,-0.0472 2.4348,0.0776 4.6707,0.20654 6.6254,0.40067 1.9551,0.19417 3.6497,0.4554 4.9971,0.80449 5.6908,1.5029 10.9996,2.78147 17.1688,4.71714 8.6049,2.69988 14.2583,5.31043 18.3989,7.61683 -4.2559,-1.95687 -10.1762,-4.10302 -18.8253,-6.02317 -6.1153,-1.35763 -11.7122,-2.21132 -17.4152,-3.11487 -1.1573,-0.17664 -2.6852,-0.29656 -4.5682,-0.35875 -1.8664,-0.0616 -4.0249,-0.0648 -6.409,-0.0201 -4.8322,0.0907 -10.4938,0.37657 -16.2791,0.7448 -5.4687,0.34808 -11.0857,0.77241 -16.1533,1.17167 -0.018,0.001 -1.5837,0.12569 -1.6015,0.1271 -5.7355,0.4583 -11.1182,0.92127 -15.5468,1.28808 -4.5324,0.37195 -8.7883,0.33491 -12.638,-0.13706 -3.7884,-0.46445 -7.2824,-1.36237 -10.2743,-2.78085 -1.485,-0.70408 -2.8689,-1.54719 -4.107,-2.54759 -1.229,-0.99309 -2.317,-2.14362 -3.2085,-3.4626 -0.8848,-1.3091 -1.5593,-2.75985 -1.9869,-4.34014 -0.4226,-1.56223 -0.5934,-3.21201 -0.5132,-4.92772 0.096,-1.94552 0.6399,-3.79982 1.4656,-5.52912 0.8126,-1.70201 1.9128,-3.3156 3.1864,-4.83799 2.4879,-2.97395 5.8038,-5.79595 9.4603,-8.45304 3.5853,-2.60533 7.5804,-5.11078 11.6177,-7.50455 3.3076,-1.96108 6.5852,-3.81326 9.7016,-5.59551 0.5941,-0.33981 1.1866,-0.67937 1.7701,-1.01549 3.6654,-2.11247 7.9298,-4.06696 12.659,-5.87049 4.3854,-1.67247 9.0914,-3.18463 13.9191,-4.53731 9.0685,-2.54093 18.1401,-4.39722 25.0825,-5.5569 6.8609,-1.15332 14.4581,-1.26389 21.6373,0.46354 3.5834,0.86223 7.0436,2.17842 10.2342,4.03392 3.2395,1.88389 6.1525,4.29566 8.6202,7.28154 4.4915,5.47376 9.5926,9.97097 14.1105,13.39268 2.4428,1.85015 4.739,3.4031 6.7312,4.65325 2.1783,1.36682 4.0414,2.40249 5.4682,3.13221 3.2234,1.64869 6.2508,2.61917 8.8762,3.26088 0.4169,0.1019 0.8327,0.19847 1.247,0.29012 5.2751,1.16708 10.8047,1.60737 13.3712,1.74944 z"
           style="fill:#b1b1b1;fill-opacity:1;fill-rule:nonzero;stroke:none;stroke-width:0.616;stroke-linecap:butt;stroke-linejoin:miter;stroke-miterlimit:4;stroke-dasharray:none;stroke-dashoffset:0;stroke-opacity:1"
           transform="matrix(-1,0,0,1,8772.2877,0)"
           inkscape:original-d="m 3824.0001,167.12338 c -10.384,0 -17.6,-1.05613 -24.112,-3.87213 -6.5121,-2.816 -18.48,-10.032 -27.8081,-20.76814 -9.328,-10.736 -24.6399,-12.32 -37.6643,-9.85586 -13.0237,2.46386 -35.9039,7.74386 -50.1599,16.01586 -14.2562,8.27214 -34.6722,18.83214 -35.3762,29.39227 -0.704,10.56 10.9121,16.01613 28.5121,14.96 17.6001,-1.056 51.0401,-3.696 61.0723,-1.584 10.032,2.112 24.112,4.752 35.9041,10.736"
           inkscape:path-effect="#path-effect747" /><path
           id="path730"
           d="m 3728.6077,174.33938 c 1.2481,0.27426 4.508,0.97204 8.7629,1.91264 0.2584,0.0571 0.5255,0.11703 0.8007,0.17965 2.8942,0.65859 7.0936,1.70992 11.6914,3.11097 8.2066,2.50076 16.8787,5.85444 25.1498,10.64166 0,-3e-5 0.059,0.0342 0.059,0.0342 3.6915,2.13941 8.4065,4.75242 13.0878,6.86938 4.4242,2.00063 8.8366,3.57448 12.9581,4.24839 2.1575,0.35279 4.1686,0.4481 6.0271,0.26908 2.084,-0.20075 3.8752,-0.73716 5.4021,-1.53073 1.9538,-1.01549 3.3175,-2.37132 4.2527,-3.64566 0.3621,-0.49341 0.6569,-0.97061 0.8913,-1.40076 1.0388,-1.90597 1.2396,-3.78425 1.3815,-4.49706 -0.3891,0.63431 -1.5264,2.073 -2.8283,3.47039 -0.2981,0.32004 -0.6398,0.66729 -1.0286,1.01735 -1.0111,0.91015 -2.2609,1.76719 -3.8735,2.32609 -1.2503,0.43333 -2.6875,0.67714 -4.3742,0.66247 -1.5134,-0.0131 -3.1892,-0.23408 -5.0527,-0.68099 -3.5906,-0.8611 -7.538,-2.47797 -11.7261,-4.54063 -4.3787,-2.15658 -8.9842,-4.7927 -12.6522,-6.86975 -1e-4,-2e-5 -0.063,-0.0359 -0.063,-0.0359 -8.771,-4.95605 -18.4711,-7.67855 -26.9122,-9.22049 -4.8617,-0.8881 -9.1531,-1.35702 -12.1567,-1.6574 -0.2828,-0.0283 -0.5574,-0.0554 -0.8223,-0.0813 -4.2916,-0.42005 -7.8529,-0.5364 -8.9742,-0.58161 z"
           style="fill:#b1b1b1;fill-opacity:1;fill-rule:nonzero;stroke:none;stroke-width:0.616;stroke-linecap:butt;stroke-linejoin:miter;stroke-miterlimit:4;stroke-dasharray:none;stroke-dashoffset:0;stroke-opacity:1"
           transform="matrix(-1,0,0,1,8768.3529,0)"
           inkscape:original-d="m 3728.6077,174.33938 c 10.9121,1.40773 30.8001,4.04773 47.6963,13.72787 16.896,9.68013 36.0802,19.53613 42.7681,2.46386"
           inkscape:path-effect="#path-effect749" /><path
           style="font-variation-settings:normal;opacity:1;vector-effect:none;fill:#b1b1b1;fill-opacity:1;fill-rule:nonzero;stroke:none;stroke-width:0.616;stroke-linecap:butt;stroke-linejoin:miter;stroke-miterlimit:4;stroke-dasharray:none;stroke-dashoffset:0;stroke-opacity:1;-inkscape-stroke:none;paint-order:markers fill stroke"
           d="m 3727.7787,202.62451 c 0.025,-0.0158 0.057,-0.0295 0.1,-0.0396 0.035,-0.008 0.078,-0.0144 0.1316,-0.0171 0.089,-0.005 0.2083,-1.4e-4 0.3718,0.0194 0.1389,0.0166 0.3093,0.0441 0.5201,0.0861 0.1883,0.0375 0.4076,0.0864 0.6641,0.14894 0.4586,0.11186 1.0241,0.26454 1.7321,0.46947 0.3313,0.0959 0.69,0.20211 1.0802,0.31981 0.3437,0.10365 0.7211,0.21972 1.14,0.35068 1.5102,0.4722 3.1807,1.018 5.65,1.82523 1.8982,0.62053 4.3358,1.41729 6.8558,2.21529 4.4662,1.4143 9.9816,3.08669 15.3786,4.4123 2.5584,0.62841 5.1141,1.18524 7.5624,1.60947 2.4283,0.42077 4.7488,0.71078 6.8718,0.81311 7.7401,0.38146 14.0436,0.9143 21.0045,0.68983 1.6575,-0.0535 3.2986,-0.15108 4.9169,-0.30336 4.4389,-0.41767 8.6717,-1.24353 12.5682,-2.66939 4.0455,-1.48037 7.6609,-3.58354 10.7332,-6.46042 0.4892,-0.50973 0.8736,-1.11627 1.1829,-1.739 0.317,-0.63824 0.5742,-1.33263 0.7876,-2.03007 0.1046,-0.34209 0.2001,-0.68952 0.2877,-1.03722 0.267,-1.05943 0.463,-2.19995 0.597,-3.33609 0.1743,-1.47801 0.2268,-2.8007 0.2197,-3.70816 -0.01,-1.31039 -0.1266,-1.57709 -0.1822,-1.57966 -0.077,-0.004 -0.1608,0.25199 -0.4232,1.52052 -0.1763,0.85286 -0.4414,2.17564 -0.7983,3.54576 -0.281,1.07872 -0.6001,2.11774 -0.969,3.06512 -0.1201,0.30858 -0.2484,0.6097 -0.3847,0.89932 -0.2805,0.59602 -0.5913,1.13536 -0.9277,1.58588 -0.3318,0.44439 -0.671,0.77856 -1.0036,0.99668 -2.9378,2.46166 -6.3334,4.19887 -10.1063,5.40497 -3.6476,1.16608 -7.6279,1.83017 -11.88,2.18622 -1.5498,0.12977 -3.1283,0.21809 -4.7336,0.27592 -6.116,0.22032 -13.6487,-0.0813 -20.8161,-0.10451 -1.9783,-0.005 -4.1931,-0.17897 -6.5716,-0.48459 -2.3935,-0.30754 -4.915,-0.74303 -7.465,-1.25265 -5.3626,-1.07172 -10.9426,-2.49301 -15.4493,-3.67974 -2.6142,-0.68837 -4.955,-1.32034 -6.9548,-1.85186 -2.4835,-0.66006 -4.2483,-1.11552 -5.7653,-1.48084 -0.4289,-0.10328 -0.8156,-0.1939 -1.1681,-0.27429 -0.4001,-0.0912 -0.7692,-0.17136 -1.1103,-0.24116 -0.7286,-0.14913 -1.3167,-0.24853 -1.7944,-0.3082 -0.2676,-0.0334 -0.4976,-0.054 -0.6959,-0.0641 -0.222,-0.0113 -0.4027,-0.009 -0.5503,0.002 -0.174,0.0137 -0.3007,0.0407 -0.3934,0.0741 -0.056,0.0201 -0.099,0.0423 -0.1317,0.065 -0.04,0.0277 -0.066,0.0557 -0.081,0.0805 z"
           id="path732"
           sodipodi:nodetypes="caac"
           transform="translate(1105.9709)"
           inkscape:original-d="m 3727.7787,202.62451 c 1.4879,-1.48792 31.6686,10.38531 48.0949,10.81423 16.3539,0.42703 36.1478,2.61071 48.3794,-8.25297 3.2541,-2.89018 3.6996,-12.52174 3.6996,-12.52174"
           inkscape:path-effect="#path-effect753" /><path
           style="font-variation-settings:normal;opacity:1;vector-effect:none;fill:#b1b1b1;fill-opacity:1;fill-rule:nonzero;stroke:none;stroke-width:0.616;stroke-linecap:butt;stroke-linejoin:miter;stroke-miterlimit:4;stroke-dasharray:none;stroke-dashoffset:0;stroke-opacity:1;-inkscape-stroke:none;paint-order:markers fill stroke"
           d="m 3727.7787,202.62451 c 0.025,-0.0158 0.057,-0.0295 0.1,-0.0396 0.035,-0.008 0.078,-0.0144 0.1316,-0.0171 0.089,-0.005 0.2083,-1.4e-4 0.3718,0.0194 0.1389,0.0166 0.3093,0.0441 0.5201,0.0861 0.1883,0.0375 0.4076,0.0864 0.6641,0.14894 0.4586,0.11186 1.0241,0.26454 1.7321,0.46947 0.3313,0.0959 0.69,0.20211 1.0802,0.31981 0.3437,0.10365 0.7211,0.21972 1.14,0.35068 1.5102,0.4722 3.1807,1.018 5.65,1.82523 1.8982,0.62053 4.3358,1.41729 6.8558,2.21529 4.4662,1.4143 9.9816,3.08669 15.3786,4.4123 2.5584,0.62841 5.1141,1.18524 7.5624,1.60947 2.4283,0.42077 4.7488,0.71078 6.8718,0.81311 7.7401,0.38146 14.0436,0.9143 21.0045,0.68983 1.6575,-0.0535 3.2986,-0.15108 4.9169,-0.30336 4.4389,-0.41767 8.6717,-1.24353 12.5682,-2.66939 4.0455,-1.48037 7.6609,-3.58354 10.7332,-6.46042 0.4892,-0.50973 0.8736,-1.11627 1.1829,-1.739 0.317,-0.63824 0.5742,-1.33263 0.7876,-2.03007 0.1046,-0.34209 0.2001,-0.68952 0.2877,-1.03722 0.267,-1.05943 0.463,-2.19995 0.597,-3.33609 0.1743,-1.47801 0.2268,-2.8007 0.2197,-3.70816 -0.01,-1.31039 -0.1266,-1.57709 -0.1822,-1.57966 -0.077,-0.004 -0.1608,0.25199 -0.4232,1.52052 -0.1763,0.85286 -0.4414,2.17564 -0.7983,3.54576 -0.281,1.07872 -0.6001,2.11774 -0.969,3.06512 -0.1201,0.30858 -0.2484,0.6097 -0.3847,0.89932 -0.2805,0.59602 -0.5913,1.13536 -0.9277,1.58588 -0.3318,0.44439 -0.671,0.77856 -1.0036,0.99668 -2.9378,2.46166 -6.3334,4.19887 -10.1063,5.40497 -3.6476,1.16608 -7.6279,1.83017 -11.88,2.18622 -1.5498,0.12977 -3.1283,0.21809 -4.7336,0.27592 -6.116,0.22032 -13.6487,-0.0813 -20.8161,-0.10451 -1.9783,-0.005 -4.1931,-0.17897 -6.5716,-0.48459 -2.3935,-0.30754 -4.915,-0.74303 -7.465,-1.25265 -5.3626,-1.07172 -10.9426,-2.49301 -15.4493,-3.67974 -2.6142,-0.68837 -4.955,-1.32034 -6.9548,-1.85186 -2.4835,-0.66006 -4.2483,-1.11552 -5.7653,-1.48084 -0.4289,-0.10328 -0.8156,-0.1939 -1.1681,-0.27429 -0.4001,-0.0912 -0.7692,-0.17136 -1.1103,-0.24116 -0.7286,-0.14913 -1.3167,-0.24853 -1.7944,-0.3082 -0.2676,-0.0334 -0.4976,-0.054 -0.6959,-0.0641 -0.222,-0.0113 -0.4027,-0.009 -0.5503,0.002 -0.174,0.0137 -0.3007,0.0407 -0.3934,0.0741 -0.056,0.0201 -0.099,0.0423 -0.1317,0.065 -0.04,0.0277 -0.066,0.0557 -0.081,0.0805 z"
           id="path733"
           sodipodi:nodetypes="caac"
           transform="matrix(-1,0,0,1,8771.4503,0)"
           inkscape:original-d="m 3727.7787,202.62451 c 1.4879,-1.48792 31.6686,10.38531 48.0949,10.81423 16.3539,0.42703 36.1478,2.61071 48.3794,-8.25297 3.2541,-2.89018 3.6996,-12.52174 3.6996,-12.52174"
           inkscape:path-effect="#path-effect755" /><path
           id="path734"
           style="fill:#989898;fill-opacity:1;stroke-width:3.416"
           d="m 4868.5158,89.898436 c -4.0347,-0.08888 -8.0529,0.69322 -11.9902,2.28906 a 0.00775058,0.73530449 67.992322 0 0 -0.7481,0.29297 c -0.9223,0.50208 -2.2551,1.13987 -3.916,1.87696 -1.649,0.73182 -3.6017,1.55331 -5.8125,2.45117 -4.4071,1.78983 -9.7834,3.859314 -15.8086,6.126954 -12.1293,4.56503 -26.7773,9.89213 -41.0527,15.21094 -15.1523,5.64555 -29.263,11.04716 -40.9199,15.9414 -6.1723,2.59149 -11.4799,4.96883 -15.8223,7.11524 -2.2786,1.12627 -4.2913,2.18758 -6.0312,3.18945 -1.805,1.03926 -3.3625,2.0399 -4.6465,3.00977 -15.6242,10.90491 -30.4142,23.04852 -44.4239,37.03515 -0.1941,0.19384 -0.3877,0.38895 -0.582,0.58399 -16.6398,16.70399 -32.9926,37.06412 -46.4433,61.7793 -15.3074,28.12662 -24.9684,58.43827 -29.2188,90.28906 -5.4577,40.89798 -0.9228,77.54718 3.584,98.17383 2.6148,11.96767 5.9306,19.57003 7.0488,22.91015 -0.3907,-4.07467 -0.3919,-11.24896 -1.541,-23.76367 -1.9485,-21.2212 -5.4263,-56.06933 0.3496,-96.00781 4.4446,-30.73308 13.7082,-59.85033 28.4395,-86.88281 12.9361,-23.73837 28.7274,-43.34681 45.0058,-59.19141 0.1901,-0.18502 0.3803,-0.36895 0.5703,-0.55274 13.5502,-13.10702 28.5793,-24.60199 43.9707,-34.08007 0.8805,-0.44229 2.0448,-0.98622 3.7227,-1.69336 1.5728,-0.66285 3.4507,-1.40663 5.668,-2.23828 4.2277,-1.58575 9.4668,-3.40982 15.6816,-5.46485 11.6998,-3.86874 25.9979,-8.27666 41.3887,-12.90039 14.5074,-4.35833 29.4343,-8.73957 41.9726,-12.46484 6.191,-1.83942 11.8807,-3.54287 16.5918,-4.99219 2.371,-0.72938 4.5561,-1.41281 6.4668,-2.0293 1.898,-0.61237 3.6692,-1.20552 5.125,-1.73437 l -0.748,0.29297 c 1.3362,-0.27117 2.1221,-0.11179 2.5996,0.0645 0.4395,0.16223 0.9622,0.48257 1.4961,0.86328 0.6373,0.45451 1.4403,1.10825 2.4336,2.11133 1.0627,1.07323 2.1738,2.37362 3.3828,3.93164 2.778,3.57999 5.6193,7.93354 8.3086,11.42578 1.8452,2.39615 3.5781,4.35732 5.3008,5.83203 1.6145,1.38215 3.13,2.23892 4.5215,2.58203 8.1322,6.58457 22.5869,15.55245 41.164,15.67969 23.4857,0.16086 45.8147,-11.2555 53.9317,-15.89258 1.221,-0.42437 2.5214,-1.18706 3.9023,-2.36914 1.7227,-1.47471 3.4556,-3.43588 5.3008,-5.83203 2.6893,-3.49224 5.5306,-7.84579 8.3086,-11.42578 1.209,-1.55802 2.3201,-2.85841 3.3828,-3.93164 0.9932,-1.00308 1.7962,-1.65682 2.4336,-2.11133 0.5339,-0.38071 1.0565,-0.70105 1.4961,-0.86328 0.4775,-0.17624 1.2634,-0.33562 2.5996,-0.0645 l -0.7481,-0.29297 c 1.4558,0.52885 3.2271,1.122 5.125,1.73437 1.9107,0.61649 4.0979,1.29992 6.4688,2.0293 4.7112,1.44932 10.3988,3.15277 16.5898,4.99219 12.5383,3.72527 27.4653,8.10651 41.9727,12.46484 15.3908,4.62373 29.6888,9.03165 41.3887,12.90039 6.2148,2.05503 11.4539,3.8791 15.6816,5.46485 2.2172,0.83165 4.0951,1.57543 5.668,2.23828 1.6779,0.70714 2.8421,1.25107 3.7226,1.69336 15.3915,9.47808 30.4205,20.97305 43.9707,34.08007 0.19,0.18379 0.3803,0.36772 0.5703,0.55274 16.2784,15.8446 32.0697,35.45304 45.0059,59.19141 14.7313,27.03248 23.9948,56.14973 28.4395,86.88281 5.7758,39.93848 2.298,74.78661 0.3496,96.00781 -1.1491,12.51471 -1.1503,19.689 -1.5411,23.76367 1.1183,-3.34012 4.434,-10.94248 7.0489,-22.91015 4.5067,-20.62665 9.0417,-57.27585 3.584,-98.17383 -4.2504,-31.85079 -13.9114,-62.16244 -29.2188,-90.28906 -13.4507,-24.71518 -29.8035,-45.07531 -46.4434,-61.7793 -0.1942,-0.19504 -0.3878,-0.39015 -0.582,-0.58399 -14.0096,-13.98663 -28.7977,-26.13024 -44.4219,-37.03515 -1.284,-0.96987 -2.8435,-1.97051 -4.6484,-3.00977 -1.74,-1.00187 -3.7527,-2.06318 -6.0312,-3.18945 -4.3425,-2.14641 -9.65,-4.52375 -15.8223,-7.11524 -11.6569,-4.89424 -25.7676,-10.29585 -40.9199,-15.9414 -14.2754,-5.31881 -28.9235,-10.64591 -41.0528,-15.21094 -6.0251,-2.26764 -11.4015,-4.337124 -15.8086,-6.126954 -2.2108,-0.89786 -4.1635,-1.71935 -5.8125,-2.45117 -1.6608,-0.73709 -2.9936,-1.37488 -3.916,-1.87696 a 0.73530449,0.00775058 22.007678 0 0 -0.748,-0.29297 c -3.9374,-1.59584 -7.9555,-2.37794 -11.9903,-2.28906 -4.1502,0.09142 -7.9367,1.09661 -11.2793,2.61524 -3.4444,1.56492 -6.3691,3.6512 -8.791,5.79101 -2.5746,2.274804 -4.752,4.762214 -6.5508,7.113284 -3.9468,5.15874 -6.7761,10.60593 -8.4667,14.42774 l -0.09,-0.11328 c 0,0 -0.087,0.51002 -0.4473,1.3457 0,0.003 0,0.006 0,0.01 -1.5703,3.62795 -8.3245,13.36155 -35.7714,14.3418 -20.9299,0.7475 -29.967,-5.44435 -33.8262,-10.27148 -0.4231,-1.4217 -0.957,-2.96909 -1.7422,-4.78321 -1.6575,-3.82925 -4.6301,-9.5924 -8.7344,-14.95703 -1.7987,-2.35107 -3.9761,-4.83848 -6.5508,-7.113284 -2.4218,-2.13981 -5.3465,-4.22609 -8.791,-5.79101 -3.3425,-1.51863 -7.1291,-2.52382 -11.2793,-2.61524 z" /><path
           id="path737"
           d="m 5060.1315,515.77908 c 5.2802,-13.728 15.3122,-30.09599 20.7682,-40.30413 5.4561,-10.20786 27.8082,-30.27186 35.0242,-39.07226 7.2159,-8.79987 26.7522,-28.68787 30.2722,-27.10387 3.52,1.58387 -4.9282,14.43187 -11.0882,24.464 -6.1601,10.032 -23.0561,31.68013 -33.9681,45.584 -10.9121,13.90413 -9.9439,20.59226 -9.9439,20.59226 0,0 -6.68,6.9854 -9.5772,8.28718 -2.8309,1.27202 -12.4637,3.02527 -14.5138,3.6996 -2.1795,0.7169 -6.9734,3.85322 -6.9734,3.85322 z"
           style="font-variation-settings:normal;opacity:1;vector-effect:none;fill:#989898;fill-opacity:1;stroke:none;stroke-width:0.616;stroke-linecap:butt;stroke-linejoin:miter;stroke-miterlimit:4;stroke-dasharray:none;stroke-dashoffset:0;stroke-opacity:1;-inkscape-stroke:none;stop-color:#000000;stop-opacity:1"
           sodipodi:nodetypes="cssssscssc" /><path
           id="path785"
           style="color:#000000;fill:#ffffff;fill-opacity:1;-inkscape-stroke:none"
           d="m 4937.875,454.99274 -1.0351,95.40039 c -0.1818,0.35412 -0.4257,0.79786 -0.8125,1.36328 -1.716,2.50786 -5.4792,8.71077 -8.7793,9.63477 -3.3,0.92414 -5.6752,1.58365 -1.4512,1.84765 5.1161,0.31987 20.459,1.05664 22.043,1.05664 1.5841,0 5.0622,1.04682 1.1894,-1.58398 -3.498,-2.37573 -9.7677,-11.35206 -10.7578,-12.4082 -0.1503,-0.16032 -0.2659,-0.2893 -0.3691,-0.4043 l 1.0273,-94.89453 z" /><path
           style="fill:#ffffff;fill-opacity:1;stroke:none;stroke-width:1.546;paint-order:markers fill stroke"
           d="m 4923.6181,562.64459 -2.616,2.1884 c 0,0 7.6971,4.07494 16.7274,3.67248 9.0303,-0.40246 14.3881,-1.73563 14.3881,-1.73563 l -1.4338,-2.76693 z"
           id="path786" /><path
           id="path787"
           style="color:#000000;fill:#ffffff;fill-opacity:1;-inkscape-stroke:none"
           d="m 4935.875,454.99274 -1.0351,95.40039 c -0.1818,0.35412 -0.4257,0.79786 -0.8125,1.36328 -1.716,2.50786 -3.4792,8.71077 -6.7793,9.63477 -3.3,0.92414 -5.6752,1.58365 -1.4512,1.84765 5.1161,0.31987 20.459,1.05664 22.043,1.05664 1.5841,0 5.0622,1.04682 1.1894,-1.58398 -3.498,-2.37573 -7.7677,-11.35206 -8.7578,-12.4082 -0.1503,-0.16032 -0.2659,-0.2893 -0.3691,-0.4043 l 1.0273,-94.89453 c -1.5152,-16.41164 -3.1391,-22.31313 -5.0547,-0.0117 z"
           sodipodi:nodetypes="ccssssssccc" /><path
           id="path788"
           d="m 3821.7122,222.12338 c -0.4001,-0.0683 -1.2808,-0.31871 -3.2867,-0.328 -0.5013,-0.002 -1.0869,0.009 -1.7768,0.0425 -0.756,0.0362 -1.7014,0.0982 -2.8658,0.19386 -2.6814,0.22026 -6.6302,0.63292 -11.3059,1.22768 -3.4886,0.44377 -7.3601,0.98618 -10.6229,1.52422 -1.4316,0.23607 -2.7551,0.47331 -3.8075,0.693 -0.5015,0.10471 -0.9589,0.20905 -1.3414,0.31027 -0.1879,0.0497 -0.3674,0.10123 -0.5306,0.15435 -0.1569,0.0511 -0.3233,0.11149 -0.4779,0.1835 -0.4056,0.18146 -0.8063,0.40617 -1.2029,0.63855 -0.3851,0.22561 -0.7794,0.46612 -1.2051,0.70787 -0.7993,0.4539 -1.7435,0.93285 -2.933,1.29069 -1.1334,0.34098 -2.5652,0.59589 -4.4217,0.58066 -1.8003,-0.0148 -4.0411,-0.28365 -6.8588,-1.0079 -5.6513,-1.45099 -11.875,-3.17777 -20.1251,-6.36111 -8.1363,-3.13939 -18.2246,-7.68599 -31.7433,-14.76706 -0.037,-0.0455 -0.076,-0.0913 -0.1174,-0.13731 -0.374,-0.41282 -0.8965,-0.77473 -1.5855,-1.04785 -0.7055,-0.27968 -1.577,-0.46365 -2.6467,-0.5334 -1.1264,-0.0735 -2.4843,-0.021 -4.1146,0.18674 -0.3351,0.0429 -0.8192,0.0834 -1.4517,0.1231 -0.6366,0.0399 -1.3964,0.0774 -2.2564,0.11653 -1.8395,0.0836 -3.8953,0.1647 -6.3736,0.29363 -5.3728,0.27951 -11.3635,0.72041 -17.487,1.56516 -1.0042,0.13854 -2.0016,0.28657 -2.9909,0.44475 -5.511,0.88121 -11.0337,2.12242 -16.0253,3.89151 -3.0018,1.06387 -5.8187,2.32114 -8.3306,3.81114 -2.5444,1.50926 -4.7882,3.26473 -6.5923,5.31026 -3.4044,3.86398 -6.0615,7.24334 -8.2189,10.08324 -2.2328,2.9391 -3.9746,5.35193 -5.5157,7.27511 -0.7906,0.98659 -1.5221,1.83867 -2.2378,2.57793 -0.726,0.74989 -1.4294,1.37693 -2.1468,1.89911 -0.7283,0.53007 -1.4779,0.95712 -2.2847,1.29077 -0.8227,0.34023 -1.7166,0.58806 -2.7184,0.74311 -1.0364,0.16012 -2.3283,0.25189 -3.7913,0.26909 -1.4912,0.0175 -3.1452,-0.0424 -4.881,-0.18125 -3.6009,-0.28798 -7.4881,-0.90871 -11.103,-1.8635 -3.8057,-1.00522 -7.2323,-2.35842 -9.8381,-4.05675 -1.0414,-0.67873 -1.9447,-1.40782 -2.6904,-2.18647 -0.2215,-0.23126 -0.4304,-0.46809 -0.6256,-0.71056 -0.8481,-1.05339 -1.4393,-2.21329 -1.6944,-3.48978 -0.042,-0.12928 -0.1026,-0.28712 -0.1563,-0.43315 -0.057,-0.15599 -0.1158,-0.3225 -0.1691,-0.50624 -0.1118,-0.38514 -0.1928,-0.82008 -0.1882,-1.31699 0.01,-0.56695 0.1217,-1.15701 0.365,-1.77345 0.345,-0.87366 0.8823,-1.64101 1.3715,-2.23942 -0.5214,0.56511 -1.109,1.30863 -1.5271,2.17096 -0.2969,0.61223 -0.4756,1.215 -0.5481,1.81943 -0.064,0.53338 -0.039,1.00825 0.012,1.44226 0.024,0.20573 0.053,0.3886 0.076,0.55573 0.023,0.16522 0.04,0.30429 0.041,0.41438 0.2428,1.41877 0.8575,2.71136 1.7446,3.88111 0.2038,0.26866 0.4217,0.53056 0.6524,0.78579 0.7766,0.85897 1.7135,1.66016 2.7845,2.40486 2.6746,1.85982 6.1755,3.35919 10.0321,4.50915 3.6681,1.09374 7.6152,1.85712 11.2923,2.29011 1.773,0.20877 3.4757,0.33959 5.028,0.39104 1.5162,0.0503 2.9041,0.0252 4.0664,-0.0815 1.1562,-0.10646 2.2363,-0.3249 3.2669,-0.67064 1.013,-0.33989 1.9637,-0.79791 2.8839,-1.37908 0.903,-0.57023 1.7664,-1.25246 2.6259,-2.04537 0.8446,-0.77919 1.6856,-1.66535 2.5596,-2.65976 1.7182,-1.95481 3.5384,-4.2958 5.8364,-7.15412 2.2088,-2.74722 4.8903,-6.01048 8.2815,-9.74147 1.541,-1.69314 3.5,-3.20013 5.8146,-4.53625 2.2849,-1.31895 4.8915,-2.45711 7.7332,-3.43657 4.7305,-1.63051 10.0271,-2.79219 15.402,-3.62607 0.962,-0.14926 1.9335,-0.28901 2.913,-0.41981 5.9803,-0.79859 11.854,-1.21186 17.1713,-1.47087 2.4607,-0.11987 4.4844,-0.19305 6.349,-0.27147 0.8642,-0.0363 1.6513,-0.0723 2.3225,-0.11186 0.6527,-0.0384 1.236,-0.0825 1.6986,-0.1393 1.4569,-0.17824 2.5586,-0.20609 3.3764,-0.15167 0.7791,0.0519 1.2358,0.17412 1.4784,0.26677 0.227,0.0867 0.2286,0.12734 0.1636,0.0494 -0.072,-0.0858 -0.172,-0.2457 -0.2394,-0.51041 l 0.9541,1.17189 c 13.8655,7.24568 24.2486,11.89154 32.6658,15.08313 8.4574,3.20682 14.8519,4.91312 20.5971,6.31093 3.0648,0.74644 5.5998,1.01973 7.7272,0.98873 2.2062,-0.0321 3.9719,-0.39192 5.4124,-0.88778 1.5041,-0.51779 2.6565,-1.18671 3.535,-1.76186 0.4516,-0.2957 0.8737,-0.59608 1.1998,-0.82463 0.3654,-0.2561 0.6331,-0.43833 0.8802,-0.58464 0,-0.007 0.063,-0.0399 0.1535,-0.0775 0.093,-0.0387 0.2145,-0.0834 0.3634,-0.13243 0.3049,-0.10054 0.7004,-0.2124 1.1694,-0.33194 0.9788,-0.24954 2.2503,-0.52564 3.6567,-0.80641 3.1661,-0.63206 7.0853,-1.30284 10.4806,-1.85822 4.3704,-0.71487 8.8691,-1.3985 11.1838,-1.75881 1.1524,-0.17938 2.0739,-0.32565 2.8193,-0.45096 0.6772,-0.11387 1.2467,-0.21908 1.7349,-0.31716 2.0463,-0.41112 2.7278,-0.70977 3.1752,-0.82514 z"
           style="fill:#b1b1b1;fill-opacity:1;fill-rule:nonzero;stroke:none;stroke-width:1.056;stroke-linecap:butt;stroke-linejoin:miter;stroke-miterlimit:4;stroke-dasharray:none;stroke-opacity:1"
           transform="matrix(-1,0,0,1,8769.3294,0)"
           sodipodi:nodetypes="csscssssc"
           inkscape:original-d="m 3821.7122,222.12338 c -6.3362,0.26413 -32.7362,3.96 -35.3762,5.28 -2.6399,1.32013 -6.072,5.54413 -17.688,2.64 -11.6162,-2.90387 -25.08,-6.86413 -52.8002,-21.38413 0,0 -0.5281,-1.848 -6.8641,-1.05587 -6.336,0.79187 -46.9921,-0.264 -60.456,14.78413 -13.4643,15.048 -15.5763,22.704 -24.2883,23.75987 -8.7118,1.05613 -33.1333,-2.48985 -35.112,-13.19987 -0.1822,-0.98616 -1.2037,-3.12683 1.5842,-6.336"
           inkscape:path-effect="#path-effect789" /><path
           style="fill:#ffffff;fill-opacity:1;stroke:none;stroke-width:1.546;paint-order:markers fill stroke"
           d="m 4974.8299,-0.28458498 c 0,0 -22.4822,6.54545458 -26.751,33.58102798 -4.2687,27.035573 -8.1817,102.201587 -8.1817,102.201587 0,0 -2.2702,0.317 -2.8884,0.24288 -0.1143,-4.26956 0,-131.0208442 0,-131.0208442 z"
           id="path790"
           sodipodi:nodetypes="cscccc" /><path
           style="fill:#ffffff;fill-opacity:1;stroke:none;stroke-width:1.546;paint-order:markers fill stroke"
           d="m 4899.1877,-0.28458498 c 0,0 22.4822,6.54545458 26.751,33.58102798 4.2687,27.035573 8.1817,102.201587 8.1817,102.201587 0,0 2.2702,0.317 2.8884,0.24288 0.1143,-4.26956 0,-131.0208442 0,-131.0208442 z"
           id="path791"
           sodipodi:nodetypes="cscccc" /></g></g></g></svg>
