<?xml version="1.0" encoding="UTF-8" standalone="no"?>
<!-- Created with Inkscape (http://www.inkscape.org/) -->

<svg
   width="1279.6801"
   height="720"
   viewBox="0 0 1279.6801 720.00003"
   version="1.1"
   id="svg5"
   inkscape:version="1.3 (0e150ed6c4, 2023-07-21)"
   sodipodi:docname="Title-Slide-Paths.svg"
   xml:space="preserve"
   xmlns:inkscape="http://www.inkscape.org/namespaces/inkscape"
   xmlns:sodipodi="http://sodipodi.sourceforge.net/DTD/sodipodi-0.dtd"
   xmlns="http://www.w3.org/2000/svg"
   xmlns:svg="http://www.w3.org/2000/svg"><sodipodi:namedview
     id="namedview7"
     pagecolor="#ffffff"
     bordercolor="#e0e0e0"
     borderopacity="1"
     inkscape:pageshadow="2"
     inkscape:pageopacity="0.0"
     inkscape:pagecheckerboard="false"
     inkscape:document-units="px"
     showgrid="false"
     units="px"
     showborder="true"
     inkscape:showpageshadow="true"
     inkscape:deskcolor="#ffffff"
     inkscape:zoom="0.26354166"
     inkscape:cx="1030.1977"
     inkscape:cy="1037.7866"
     inkscape:window-width="1920"
     inkscape:window-height="991"
     inkscape:window-x="-9"
     inkscape:window-y="-9"
     inkscape:window-maximized="1"
     inkscape:current-layer="layer1"
     showguides="false" /><defs
     id="defs2"><inkscape:path-effect
       effect="powerstroke"
       id="path-effect1"
       is_visible="true"
       lpeversion="1.3"
       scale_width="1"
       interpolator_type="CentripetalCatmullRom"
       interpolator_beta="0.2"
       start_linecap_type="zerowidth"
       end_linecap_type="zerowidth"
       offset_points="0.27326911,1.9890413 | 1.3865747,3.3398745 | 2.6791014,4.5190065"
       linejoin_type="round"
       miter_limit="4"
       not_jump="false"
       sort_points="true"
       message="&lt;b&gt;Ctrl + click&lt;/b&gt; on existing node and move it" /><clipPath
       clipPathUnits="userSpaceOnUse"
       id="clipPath10523"><path
         d="M 0,900 H 900 V 0 H 0 Z"
         id="path10521" /></clipPath></defs><g
     inkscape:label="Layer 1"
     inkscape:groupmode="layer"
     id="layer1"><g
       id="g107832"
       transform="matrix(3.0607182,0,0,3.0607182,-147.69082,-2532.6543)" /><g
       id="g1"
       inkscape:export-filename="Cover-Image.png"
       inkscape:export-xdpi="96"
       inkscape:export-ydpi="96"><path
         style="fill:#0093fb;fill-opacity:1;stroke-width:0.258868;stroke:none"
         d="m 133.69844,360.30916 c -0.0784,-1.86018 -0.11946,-3.56984 -0.0913,-3.79919 0.0973,-0.79343 15.56705,7.17444 30.64697,7.53544 7.70183,0.18439 15.6062,0.28922 17.56528,0.233 7.22358,-0.2074 12.47722,-0.95822 16.29861,-2.32926 8.01688,-2.87641 8.55909,-6.44953 4.05927,-26.75072 -3.54019,-15.97183 -3.34639,-22.25694 0.86161,-27.94204 3.58392,-4.84195 8.19784,-7.48392 21.65549,-12.40019 15.0827,-5.50996 19.05959,-8.07176 23.72385,-15.28234 2.03002,-3.13828 4.46453,-8.49237 6.0776,-13.36837 1.12257,-3.39248 1.53893,-4.30852 1.87767,-4.13073 0.75956,0.39864 0.72999,-1.04132 -0.1557,-7.57995 -1.23244,-9.09878 -1.6581,-13.31688 -1.98662,-19.6869 -0.1442,-2.79633 -0.67707,-10.15036 -1.18414,-16.34231 -0.50707,-6.19194 -0.87654,-11.34461 -0.821,-11.45039 0.0556,-0.10577 0.83339,0.10412 1.72865,0.46631 0.89525,0.36224 2.60368,1.02407 3.79651,1.47071 l 2.16881,0.81206 0.99863,-2.28337 c 5.51832,-12.61766 10.5563,-24.94247 15.01549,-36.73354 8.35264,-22.08631 13.09067,-31.96508 19.82772,-41.34048 2.49671,-3.47446 10.60116,-13.44806 11.36202,-13.98241 0.55883,-0.39248 1.74279,-1.74045 3.7395,-4.25746 0.22511,-0.28383 0.83104,-1.0183 1.34641,-1.63218 1.00478,-1.19679 4.06296,-6.74832 3.93824,-7.14903 -0.0414,-0.1328 -1.66792,-0.20131 -3.61464,-0.15231 -1.94676,0.049 -7.89801,-0.0948 -13.22504,-0.31952 -9.05525,-0.38202 -17.6989,-0.47351 -19.33458,-0.20464 l -0.71157,0.11698 -0.002,2.00423 c -0.007,7.04645 -3.0312,16.66771 -8.03471,25.56211 -5.0729,9.0178 -9.34988,12.81242 -16.21498,14.38627 -2.49923,0.57293 -9.28368,2.54478 -9.22428,2.68093 0.0174,0.0399 0.50476,0.8528 1.08298,1.80645 1.77329,2.92458 3.14189,6.07663 4.7024,10.83001 2.21099,6.73475 2.42652,9.01326 1.30766,13.82435 -1.33357,5.73454 -7.78209,20.9313 -11.02413,25.97977 -3.26676,5.08694 -8.03229,8.58219 -15.16531,11.12284 l -2.23923,0.79757 0.36632,1.50693 c 0.95807,3.94134 1.22285,9.06751 1.01674,19.68506 -0.23995,12.36054 -0.82055,15.83766 -3.50079,20.96639 -2.52951,4.83944 -4.99699,7.15248 -10.17751,9.53849 -7.23491,3.33222 -25.97914,5.76888 -33.44059,4.34708 -3.23797,-0.61695 -6.54954,-1.84431 -10.57234,-3.91826 -2.71032,-1.39738 -3.88049,-2.10414 -3.97305,-2.39971 -0.0978,-0.31237 0.14266,-0.80437 0.94444,-1.93255 0.59162,-0.83242 1.03307,-1.58553 0.98101,-1.67357 -0.16096,-0.27231 -5.05589,-3.18841 -5.12643,-3.05402 -0.18684,0.356 -2.50658,12.51029 -3.43098,17.97676 -0.66271,3.91892 -1.21096,6.43244 -1.46505,6.71684 -0.90889,1.01713 -6.35015,1.82309 -12.95484,1.91888 -3.58427,0.052 -3.84862,0.10033 -4.98581,0.91202 -1.84758,1.31879 -6.68129,4.04513 -9.76687,5.50885 -5.13239,2.43465 -16.75165,5.63815 -21.63124,5.96392 -4.6166,0.30818 -10.259017,-0.73856 -15.452093,-2.86662 -8.758317,-3.58912 -19.343808,-10.74541 -26.257766,-17.75151 l -0.89374,-0.90567 -2.814784,0.47862 c -4.79486,0.81538 -7.954228,0.2794 -11.625477,-1.97214 -3.583652,-2.19794 -6.136153,-4.79192 -10.21179,-10.37785 -6.697429,-9.17918 -12.147964,-22.32487 -13.796279,-33.27403 -0.610061,-4.05234 -0.612748,-4.09261 -0.5178,-7.78912 0.07121,-2.7777 0.369651,-5.53864 0.875315,-8.09937 0.432088,-2.1884 1.612216,-6.96705 1.98137,-8.02312 0.189955,-0.54348 0.41133,-1.21665 0.492048,-1.4959 0.529311,-1.83284 1.830824,-5.32672 3.689381,-9.90406 1.262008,-3.10793 3.985033,-8.6986 7.484946,-15.36702 3.290373,-6.26918 4.136657,-7.72417 5.341537,-9.18311 1.990192,-2.41005 5.933457,-6.41378 7.716372,-7.83467 0.383341,-0.30549 0.773479,-0.69275 0.867003,-0.86058 0.09614,-0.16642 0.585842,-0.61308 1.094139,-0.9895 0.508223,-0.37644 0.995999,-0.8129 1.083879,-0.96997 0.09051,-0.15566 0.35683,-0.41057 0.597711,-0.56336 0.72821,-0.46195 5.84217,-5.54379 6.494988,-6.45415 l 0.609268,-0.84968 -2.207224,-5.73389 c -6.363078,-16.52993 -7.295005,-24.51481 -3.61113,-30.94084 0.637537,-1.11256 1.39857,-2.22608 1.690723,-2.47474 2.040488,-1.73629 2.035773,-1.72294 1.911485,-5.35396 -0.168632,-4.928075 0.564263,-9.537595 2.220549,-13.965535 1.005818,-2.68915 4.946217,-9.780984 6.471844,-11.647884 0.226175,-0.276857 0.687228,-0.890006 1.024426,-1.362653 0.63559,-0.890932 2.288653,-2.697332 3.133265,-3.424123 0.266668,-0.229384 0.568823,-0.577148 0.671504,-0.772786 0.102688,-0.195647 0.549546,-0.645608 0.993124,-0.999878 0.443514,-0.354309 0.99348,-0.80911 1.222233,-1.010649 0.96666,-0.852147 1.743934,-1.477425 2.419136,-1.946252 0.395607,-0.274757 1.139961,-0.804997 1.654107,-1.17832 0.90573,-0.657833 3.210365,-1.965045 3.614035,-2.049999 0.109372,-0.02314 1.039838,-0.424139 2.0677,-0.891443 l 1.868967,-0.849607 0.218337,-1.124625 c 0.120026,-0.618579 0.274359,-1.424123 0.342953,-1.790121 0.0687,-0.365942 0.239886,-1.196991 0.380591,-1.84675 0.140752,-0.649692 0.344112,-1.661214 0.452004,-2.247787 0.10789,-0.586556 0.274133,-1.485998 0.36947,-1.998749 0.0954,-0.512718 0.263841,-1.213671 0.374267,-1.557702 0.110286,-0.344105 0.511469,-1.748941 0.891247,-3.122031 0.379766,-1.373063 0.817639,-2.919314 0.97302,-3.436101 0.328019,-1.090742 3.155684,-6.531081 3.608135,-6.941628 0.168375,-0.15282 0.551273,-0.54388 0.850876,-0.869026 2.470563,-2.68066 8.873318,-2.863268 15.881888,-0.452915 0.47668,0.16399 1.45501,0.486782 2.17389,0.71737 2.61626,0.839193 8.64376,3.603785 11.25766,5.163481 4.91452,2.932465 7.98177,6.208265 8.59346,9.177738 0.66333,3.220308 -0.009,6.495422 -2.18431,10.639982 -3.26245,6.215976 -9.6902,11.571151 -16.78141,13.981081 l -2.08623,0.709031 -0.27102,2.585279 c -0.67804,6.467227 -0.11361,11.370377 1.83794,15.966367 1.66113,3.911975 7.51247,14.618685 8.18104,14.969575 0.44046,0.23117 4.70108,-0.44846 7.70325,-1.22866 3.31306,-0.86105 10.60198,-3.37287 14.28014,-4.921 3.21559,-1.35349 7.25138,-3.51737 7.52216,-4.03313 0.0859,-0.16388 0.47236,-0.51878 0.85851,-0.78879 1.49136,-1.042895 3.00938,-3.308165 5.28455,-7.886045 1.20412,-2.42315 2.30916,-4.73751 2.45527,-5.14319 0.14613,-0.40571 0.63026,-1.598763 1.0758,-2.651296 1.10913,-2.620557 2.08983,-5.263529 3.99525,-10.766751 1.52798,-4.413219 3.52355,-8.63446 4.52951,-9.581381 1.3503,-1.271088 2.07148,-1.212202 5.91669,0.483218 2.36843,1.044284 4.50636,2.183541 7.13755,3.803422 4.59681,2.830036 10.03737,6.368028 11.87895,7.724909 0.75371,0.555327 1.85683,1.336206 2.45135,1.735261 1.56544,1.050793 2.11654,1.513822 3.07462,2.583425 1.15026,1.284146 1.15831,1.760355 0.0493,2.930947 -0.48754,0.514596 -1.26009,1.44757 -1.71681,2.073244 -0.60312,0.826382 -1.11887,1.235592 -1.88502,1.495672 -0.64572,0.21922 -1.38857,0.74961 -1.91578,1.36789 -0.47362,0.5554 -2.75088,4.35948 -5.06049,8.45353 -2.30971,4.094035 -4.69606,8.164505 -5.30304,9.045465 -0.60699,0.881 -1.09709,1.69453 -1.08909,1.80791 0.0473,0.67457 4.99768,7.77179 8.41437,12.0637 2.28496,2.87034 7.69528,8.93375 8.21472,9.20639 0.2365,0.12415 0.91641,-1.04855 3.34639,-5.77183 2.26205,-4.39711 3.24127,-6.10516 3.79226,-6.61515 0.71266,-0.65972 0.79854,-0.6656 2.1228,-0.14539 6.83477,2.68487 10.15994,3.1376 16.78648,2.28552 6.78938,-0.87302 8.40822,-1.00966 11.26896,-0.95125 0.9596,0.0196 1.13446,-0.083 1.84512,-1.08294 0.43175,-0.60757 0.92893,-1.28698 1.10476,-1.50985 0.17592,-0.22282 0.5991,-0.7873 0.94056,-1.2543 0.34148,-0.467 0.68111,-0.88604 0.7547,-0.93121 0.0735,-0.0452 0.43963,-0.51363 0.81348,-1.04101 0.37379,-0.5274 0.95351,-1.24516 1.28823,-1.59503 0.33468,-0.34991 0.63432,-0.68817 0.66588,-0.75173 0.0306,-0.0641 0.26645,-0.36538 0.52201,-0.67077 0.25559,-0.30537 0.61229,-0.74088 0.79269,-0.96777 0.18037,-0.22692 0.98327,-1.09292 1.7841,-1.92448 0.86019,-0.89318 1.40929,-1.63125 1.34175,-1.80346 -0.0628,-0.16034 -1.69392,-1.74271 -3.62452,-3.51636 -1.93059,-1.773645 -5.37072,-5.120335 -7.64473,-7.437055 -2.27399,-2.31674 -4.76787,-4.76021 -5.54195,-5.42992 -1.89552,-1.63996 -7.64575,-4.646655 -10.95143,-5.726269 -3.66347,-1.196518 -4.41266,-1.652341 -4.67435,-2.843983 -0.40591,-1.848193 0.19679,-4.925023 2.10382,-10.74079 1.90313,-5.803801 3.11141,-8.692421 5.76593,-13.784234 3.69726,-7.092328 4.48757,-7.641628 8.49,-5.902632 12.18122,5.29257 22.06977,6.015717 33.61189,2.458034 3.74537,-1.15445 5.8803,-2.347235 7.05157,-3.939681 0.85177,-1.158016 2.38298,-2.73575 3.21689,-3.314558 0.3809,-0.264393 0.74303,-0.575365 0.80474,-0.691068 0.37181,-0.696428 8.09699,-5.495617 9.07616,-5.638136 0.11996,-0.01747 0.73766,-0.285267 1.37275,-0.595124 0.63505,-0.30987 1.90397,-0.827932 2.81981,-1.151227 0.91582,-0.323312 2.31847,-0.83695 3.11704,-1.141407 3.2719,-1.247432 14.15164,-4.485511 17.23982,-5.130966 1.6555,-0.346016 4.17538,-0.91535 4.48034,-1.012262 0.0966,-0.03061 0.74922,-0.146327 1.45051,-0.257015 1.37236,-0.216633 2.26516,-0.387762 2.88053,-0.552148 0.21288,-0.05688 1.35299,-0.268143 2.53354,-0.469474 2.72376,-0.46452 6.5506,-1.192346 8.0809,-1.536901 0.65028,-0.146418 1.82146,-0.391217 2.60263,-0.544005 0.7812,-0.152777 1.66815,-0.34506 1.97103,-0.427282 0.30287,-0.08223 1.27651,-0.289346 2.16359,-0.46029 0.8871,-0.170919 1.91244,-0.380107 2.27851,-0.464877 3.81926,-0.884256 9.9523,-2.000728 10.47759,-1.907311 0.28513,0.05074 0.7841,0.419079 1.10967,0.816987 0.57662,0.706876 1.89436,3.810381 2.26494,5.334247 0.27475,1.129841 1.9791,5.309372 2.78591,6.831794 0.38728,0.730783 1.44326,2.102749 2.34664,3.048824 0.90335,0.946061 1.887,2.044066 2.18588,2.439991 0.29889,0.395928 0.63845,0.769743 0.75462,0.830708 0.40981,0.215091 2.00991,2.797491 2.4723,3.990031 0.41084,1.059643 0.40032,1.396672 -0.0859,2.747839 -1.32127,3.671949 -5.37426,6.074773 -11.07965,6.568552 -1.07415,0.09296 -2.0691,0.200683 -2.21101,0.239365 -0.40652,0.110803 -0.88639,3.765418 -0.99169,7.552792 -0.053,1.905501 0.1422,5.560072 0.4338,8.121293 1.46205,12.843097 1.62819,16.742473 0.97465,22.874563 -0.84905,7.966735 -3.19782,16.908455 -6.34494,24.155105 -2.24763,5.17551 -5.29761,9.88314 -10.55653,16.29366 -0.98083,1.19564 -1.4746,1.95536 -1.35301,2.08182 0.11832,0.12305 -1.22698,2.01739 -3.52224,4.95965 -6.36851,8.16375 -6.84709,8.87693 -10.0038,14.90752 -3.37099,6.44075 -5.13234,10.59605 -10.18405,24.03137 -5.76786,15.33989 -8.25679,21.46232 -12.53955,30.84554 -0.62167,1.36209 -1.43843,3.16993 -1.81496,4.0175 -1.09651,2.46812 -3.00788,6.72097 -3.1629,7.03754 -0.16864,0.3443 0.41548,0.66366 2.88336,1.57657 1.81359,0.67088 4.32301,2.35179 4.11176,2.7543 -0.0492,0.094 -0.66906,0.63963 -1.37717,1.21256 -0.70815,0.57293 -1.48398,1.20168 -1.72414,1.39723 -0.2401,0.19557 -1.81702,1.53868 -3.50417,2.98471 -1.68718,1.44605 -3.46234,2.94821 -3.94483,3.33814 -0.48251,0.38996 -2.15378,1.81509 -3.71397,3.16699 -1.56016,1.35188 -4.54947,3.8613 -6.64289,5.5765 -2.09346,1.71518 -4.95908,4.22376 -6.36808,5.57459 -2.29498,2.20028 -11.83787,12.27984 -12.10145,12.78204 -0.0581,0.1107 0.26888,0.48649 0.72664,0.83499 0.95693,0.72852 0.94708,0.84786 -0.40499,4.90446 -1.62951,4.88904 -2.58191,7.13532 -4.86688,11.47869 -2.58728,4.91758 -3.75416,6.60256 -6.68197,9.64697 -4.45296,4.63026 -9.30594,7.22338 -22.10715,11.8126 -9.88594,3.54415 -13.32481,5.10501 -16.49925,7.48881 -2.37354,1.78239 -3.61506,3.47669 -4.13353,5.64105 -1.03032,4.30136 -0.66652,7.04966 3.23694,24.45175 0.47575,2.12096 1.07297,5.15427 1.32717,6.74066 2.73456,17.06647 -3.36007,23.8412 -23.17498,25.76111 -6.18318,0.5991 -11.24609,0.66138 -25.15892,0.30956 -8.28078,-0.2094 -19.55372,-8.52119 -22.99572,-8.3296 -3.10018,0.17252 -5.81241,0.29305 -6.02719,0.26781 -0.27188,-0.032 -0.43382,-1.07365 -0.533,-3.42802 z M 56.345014,265.72471 c 0.687199,0.13282 1.608206,0.20677 2.046669,0.16422 l 0.797263,-0.0773 -0.969653,-1.43148 c -2.256688,-3.33143 -3.736929,-6.87104 -4.326281,-10.34536 -0.894966,-5.27543 -0.275475,-14.28601 1.629535,-23.70263 0.220578,-1.09019 0.451472,-2.28462 0.513094,-2.65427 0.0617,-0.3696 0.268303,-1.37942 0.459161,-2.24403 0.190796,-0.86462 0.416484,-1.93022 0.501473,-2.36799 0.211353,-1.08904 0.609486,-2.74479 0.842638,-3.50455 0.106132,-0.34628 0.389514,-1.3816 0.629387,-2.30089 0.239874,-0.91929 0.580438,-2.08902 0.756816,-2.59942 0.519031,-1.50224 0.915416,-2.69327 1.087113,-3.26711 0.724394,-2.4206 4.451235,-9.94712 5.989149,-12.09517 1.172767,-1.63826 3.388539,-3.88539 4.929229,-4.99919 l 1.393885,-1.0076 -0.498596,-1.73843 c -1.125856,-3.92526 -1.818242,-8.48431 -2.786027,-18.34447 -0.745981,-7.60024 -1.449883,-12.02045 -2.493921,-15.66129 l -0.770916,-2.68839 -2.971123,2.76717 c -1.634125,1.52193 -3.818866,3.50628 -4.854821,4.40971 -2.98896,2.60638 -6.622769,6.23789 -8.247742,8.2425 -2.617316,3.22891 -9.789399,17.55802 -13.166308,26.30516 -3.770553,9.7668 -5.598557,18.49758 -5.20558,24.86246 0.340897,5.51999 2.714327,14.04149 5.994305,21.52175 2.630796,5.99974 7.153157,13.52679 10.179308,16.94253 2.549619,2.87781 6.1976,5.36082 8.541926,5.81411 z m 30.886375,12.51284 c 4.387401,-0.15963 8.258705,-1.33836 12.895331,-3.92635 2.80369,-1.56487 5.42945,-3.45493 12.64997,-9.10543 3.19771,-2.50238 6.89937,-5.36151 8.22595,-6.35362 1.32659,-0.99209 2.62814,-1.99388 2.89236,-2.22616 0.34218,-0.30082 0.92397,-1.99007 2.02213,-5.87196 2.62128,-9.26557 3.50628,-14.64759 3.0829,-18.74884 -0.24105,-2.33558 0.0848,-3.0074 1.55582,-3.20792 1.0087,-0.13748 6.80613,-0.003 8.08635,0.18817 l 0.89078,0.13269 -0.51456,-2.00411 c -0.28299,-1.10227 -1.06565,-4.17905 -1.73923,-6.83727 -3.57531,-14.10987 -5.61658,-18.69017 -9.29956,-20.86685 -3.65538,-2.16039 -8.0079,-1.8989 -19.38441,1.16449 -4.34173,1.16912 -4.22016,0.92224 -1.55417,3.15576 5.09272,4.26658 7.10805,8.34276 7.80394,15.78419 0.70851,7.57597 0.60693,9.7803 -0.68377,14.84364 -0.68754,2.69739 -0.88237,3.1398 -3.97317,9.02421 -3.71783,7.08362 -4.80464,8.62526 -8.70681,12.3869 -3.883856,3.744 -13.920398,10.69552 -15.131204,10.4802 -0.452319,-0.0794 -3.456973,-2.25122 -4.58678,-3.31373 -0.357269,-0.33606 -0.639573,-0.26361 -1.758323,0.45123 l -1.332696,0.85149 0.05335,1.6482 c 0.144418,4.46037 1.46228,8.59393 3.454436,10.83495 1.005118,1.13075 2.587572,1.60567 5.051224,1.51603 z m -4.842921,-31.83148 c 4.515865,-4.3129 8.217172,-9.07456 11.580691,-14.89844 3.985271,-6.90013 5.581944,-12.88426 5.014951,-18.79481 -0.219896,-2.29204 -0.928889,-4.60501 -1.43694,-4.68781 -0.566418,-0.0923 -3.816996,2.48896 -5.087733,4.04021 -2.601233,3.17532 -4.432061,7.38094 -7.800211,17.91819 -2.672886,8.36208 -5.285132,18.42195 -4.843782,18.6536 0.08416,0.044 1.242022,-0.95976 2.573024,-2.23094 z m 89.073152,4.72374 c 0.58005,-0.57993 1.40561,-1.29779 1.83461,-1.59522 l 0.77998,-0.54078 2.8089,1.45748 c 6.51141,3.37855 9.52627,3.97676 15.28458,3.03316 3.57961,-0.58658 10.34817,-2.5922 13.02272,-3.85883 2.49097,-1.17968 6.07141,-3.58918 7.63951,-5.14111 0.58391,-0.57789 1.19166,-1.11407 1.35054,-1.19147 0.60191,-0.29331 2.27749,-2.10486 3.39803,-3.67387 1.44707,-2.02623 2.75743,-5.32877 2.50812,-6.32163 -0.47582,-1.89523 -3.16658,-3.89555 -10.27585,-7.63909 -2.40678,-1.26739 -5.60186,-3.07564 -7.10014,-4.01847 -1.49826,-0.9428 -5.47674,-3.3628 -8.84108,-5.37779 -3.36431,-2.01499 -6.93453,-4.22853 -7.93379,-4.91902 l -1.81685,-1.25541 -2.15015,-0.0987 c -4.15288,-0.19063 -7.171,-1.34643 -7.99815,-3.06291 -0.58334,-1.21052 -0.70532,-3.01161 -0.37558,-5.54543 0.8636,-6.63657 3.8833,-15.73324 6.51893,-19.63806 1.69832,-2.51617 2.78744,-2.80618 6.85839,-1.82633 1.33357,0.32098 3.19112,0.62727 4.12806,0.67964 0.93676,0.0533 2.47986,0.24656 3.42913,0.42931 1.84465,0.35517 5.19474,1.09009 5.38511,1.18144 0.0634,0.0301 0.42909,0.14195 0.81287,0.24816 0.38381,0.10622 0.92619,0.25924 1.20529,0.3402 2.014,0.58424 7.88323,1.87559 9.43526,2.07595 0.60236,0.0777 1.52128,0.20696 2.04202,0.28701 0.52078,0.08 1.26161,0.17247 1.64634,0.20539 0.38474,0.0329 0.94715,0.0893 1.24981,0.12527 5.12824,0.61148 12.36485,-0.38222 16.34121,-2.24391 0.63444,-0.29703 4.508,-2.43317 5.33593,-2.94261 0.34866,-0.21453 -1.25082,-3.41398 -4.5303,-9.062 -4.81865,-8.2988 -6.03751,-9.56449 -12.40765,-12.88453 -2.33614,-1.21668 -7.17928,-3.51951 -10.76334,-5.11585 -8.76341,-3.90324 -11.29842,-5.47956 -12.59082,-7.82924 -0.74115,-1.34748 -0.66775,-2.86268 0.28029,-5.78789 0.4231,-1.30548 0.76033,-2.39616 0.7494,-2.42374 -0.0109,-0.0274 -1.10502,-1.11599 -2.4312,-2.41873 -4.97588,-4.88789 -11.00305,-12.20441 -14.98279,-18.18791 -0.84482,-1.27018 -1.59872,-2.34049 -1.67524,-2.37841 -0.077,-0.0372 -1.06899,0.72389 -2.20534,1.69299 -7.93232,6.76443 -18.32067,10.66732 -30.91781,11.6158 -6.53527,0.49205 -11.04469,-0.0285 -16.06461,-1.85435 -3.68681,-1.34101 -25.50404,-12.26128 -29.1062,-14.56867 -2.917729,-1.86895 -5.946993,-4.88134 -8.109145,-8.06395 -0.830806,-1.22287 -1.60973,-2.27546 -1.730886,-2.33905 -0.121147,-0.0637 -0.852327,0.17757 -1.624783,0.53594 -0.772458,0.35834 -3.888918,1.51105 -6.925527,2.56154 l -5.521082,1.90999 0.507844,2.31034 c 0.27927,1.27069 0.460123,2.4011 0.401881,2.51208 -0.182851,0.34838 -1.10095,0.89814 -2.861753,1.71367 -1.033727,0.47882 -1.693519,0.93571 -1.681061,1.1642 0.01132,0.20687 0.290277,2.17387 0.61989,4.37109 1.648192,10.9869 1.787697,16.70304 0.537608,22.03672 -0.459502,1.9606 -0.872175,2.96912 -2.528198,6.17945 l -1.979236,3.83638 1.36975,4.61502 c 1.67332,5.6379 2.213324,8.74582 3.32475,19.13572 0.986386,9.2218 1.488328,12.46153 2.455073,15.84634 l 0.683298,2.39257 2.524999,0.1375 c 4.307695,0.23457 8.119428,1.33501 13.659697,3.94384 l 3.50839,1.65198 6.004091,-1.65993 c 9.47656,-2.61984 13.84753,-3.48894 18.00471,-3.58008 8.83476,-0.19369 14.20462,4.37105 17.74211,15.08193 0.45726,1.38447 1.77741,6.17122 2.93366,10.63717 1.15626,4.46597 2.35657,8.89295 2.66737,9.83778 l 0.56503,1.71779 1.03485,0.17421 c 0.56922,0.0956 2.40836,0.31463 4.08708,0.48618 5.77658,0.59028 11.66742,2.1165 13.09596,3.39297 0.75904,0.67822 0.6255,2.3667 -0.68106,8.61304 -0.58677,2.80505 -1.03016,5.21501 -0.98534,5.35548 0.11679,0.36599 1.85369,1.41943 5.12306,3.10721 l 2.8442,1.46816 z M 67.863543,140.6972 c 1.754526,-4.3267 1.802808,-10.35959 0.169954,-21.2528 -0.320469,-2.13794 -0.626556,-3.91021 -0.680172,-3.93835 -0.05375,-0.0283 -1.063916,0.1652 -2.245197,0.42958 -1.181285,0.26437 -2.237611,0.43353 -2.347534,0.37583 -0.109846,-0.0577 -0.234535,-0.46339 -0.277019,-0.90164 -0.104278,-1.07434 -0.25405,-0.95529 -0.686661,0.54576 -0.976175,3.38719 -0.426342,8.37009 1.663077,15.07272 1.172052,3.75988 3.650097,10.66214 3.869188,10.77712 0.03859,0.0203 0.279204,-0.47836 0.534217,-1.1083 z M 82.725145,97.949515 c 2.78326,-0.97491 5.344149,-1.96512 5.690975,-2.20035 0.61658,-0.41827 0.60633,-0.51011 -0.462682,-4.14641 -0.601267,-2.04526 -1.237177,-4.81268 -1.413105,-6.149782 -0.175995,-1.337144 -0.441057,-2.393381 -0.589126,-2.347247 -0.148056,0.04609 -1.155581,0.798916 -2.238898,1.67285 -2.776931,2.240249 -5.059495,4.903199 -6.476475,7.555759 -1.230882,2.30501 -1.373888,3.20587 -1.035266,6.53805 0.145428,1.430565 -0.423315,1.510975 6.524579,-0.92287 z M 249.86612,118.91314 c 0.65417,0.0218 1.29896,0.097 1.43283,0.16737 0.13387,0.0702 0.4703,0.13069 0.74767,0.13421 0.27735,0.004 0.81642,0.0383 1.19794,0.0773 3.926,0.40168 10.91877,0.31352 11.17593,-0.14089 0.17647,-0.31051 -2.79966,-4.00723 -5.45267,-6.77373 -1.386,-1.44526 -2.57521,-2.61052 -2.64274,-2.58949 -0.47978,0.14952 -7.1526,7.79319 -7.6792,8.79649 -0.14887,0.28366 -0.15154,0.28278 1.22022,0.32874 z m 28.78723,-24.303325 c 0.67755,-0.0961 1.42614,-0.16882 1.66356,-0.16159 0.23739,0.008 0.70414,-0.005 1.0372,-0.0266 0.33303,-0.0218 1.61162,-0.0766 2.84126,-0.12175 1.22965,-0.0452 2.57571,-0.10317 2.99125,-0.12896 0.41553,-0.0258 3.67288,0.0345 7.23857,0.13402 14.35398,0.40056 19.48896,0.41458 23.89398,0.0652 0.33736,-0.0268 0.48795,-0.39556 0.84366,-2.06641 1.26486,-5.941302 1.2583,-11.58372 -0.021,-18.013941 -1.5705,-7.89419 -1.82847,-9.345779 -1.95214,-10.983912 -0.075,-0.993556 -0.20077,-1.84029 -0.27955,-1.881632 -0.19876,-0.104321 -12.97915,4.341172 -15.24281,5.302032 -5.0516,2.144276 -7.44046,3.810985 -10.89109,7.598794 -0.94576,1.038195 -2.30543,2.352794 -3.02147,2.921333 -3.35143,2.661063 -8.93439,4.94859 -15.53906,6.36686 -1.96424,0.421765 -3.58937,0.801332 -3.61147,0.843451 -0.022,0.04212 0.53596,0.670804 1.24013,1.397083 1.96768,2.029432 4.72064,5.284092 5.96344,7.050212 0.61663,0.87631 1.23196,1.65791 1.3674,1.7369 0.1352,0.0793 0.80055,0.065 1.4781,-0.0311 z"
         id="path18"
         sodipodi:nodetypes="ccsccsssscssssssscsssssssssscssssssssscsscsscssssscsssscscsccsccsccscsccccscscccccscsccccccccccsccsccccssccccssscccccsccssssssscsscscssccsssscsccccssscssscsscsssscssssscssssssscscsssssscssscssssscssssscsssssssssscssssscssssccsccscsccccscccccssscsccscsssscssssccsccscssssccscsscssccscsscscscscsssscscsssscsscsscscsscsscssscssssssccscssccsccsccssccscccscccssssccssssccccscscccscccscscccccsssccccscssssccsscssssssssscsscss" /><rect
         style="fill:#ededed;fill-opacity:1;stroke:none;stroke-width:2.407;stroke-linecap:round;stroke-dasharray:none;paint-order:markers fill stroke"
         id="rect33"
         width="1279.6801"
         height="46.482239"
         x="1.2789769e-13"
         y="673.51776"
         ry="0.041191876" /><path
         id="path27531-5"
         style="fill:#ffe70f;fill-opacity:1;stroke:none;stroke-width:6.2013;stroke-linecap:round;paint-order:markers fill stroke;stop-color:#000000"
         d="m 0,272.78516 v 185.56836 a 19.917962,19.917962 0 0 1 0.86328125,-0.0859 19.917962,19.917962 0 0 1 15.33789075,6.21094 19.917962,19.917962 0 0 1 -0.78125,28.1582 A 19.917962,19.917962 0 0 1 0,497.96289 v 87.49805 c 20.189738,-6.354 42.339675,-14.19448 65.402344,-23.61524 0.795287,-0.74016 1.404118,-1.43861 1.648437,-2.02148 0.68246,-1.628 0.212866,-2.92378 -0.11914,-4.75195 -3.957448,-3.52265 -6.347063,-8.47766 -6.642579,-13.76758 -0.574252,-10.98524 7.866239,-20.35544 18.851563,-20.92969 10.219149,-0.51177 19.162191,6.80262 20.689453,16.91992 0.862542,1.81594 0.763332,2.92208 3.210942,4.33789 1.7025,0.98485 4.48291,0.7966 7.21875,0.21875 7.20164,-3.48598 14.41914,-7.07155 21.64453,-10.875 37.7664,-19.88034 71.12632,-60.30633 68.76562,-101.70312 -1.77763,-31.17311 -35.58256,-83.88802 -98.64062,-95.4375 C 55.511436,325.31602 22.459277,296.34157 0,272.78516 Z m 134.3125,95.02148 a 19.917961,19.917961 0 0 1 19.91797,19.91797 19.917961,19.917961 0 0 1 -19.91797,19.91797 19.917961,19.917961 0 0 1 -19.91797,-19.91797 19.917961,19.917961 0 0 1 19.91797,-19.91797 z M 95.923828,439.16016 A 19.917961,19.917961 0 0 1 115.8418,459.07812 19.917961,19.917961 0 0 1 95.923828,478.99609 19.917961,19.917961 0 0 1 76.005859,459.07812 19.917961,19.917961 0 0 1 95.923828,439.16016 Z" /><path
         id="path27646"
         style="fill:#ffe70f;fill-opacity:1;stroke:none;stroke-width:6.2013;stroke-linecap:round;paint-order:markers fill stroke;stop-color:#000000"
         d="m 254.74419,464.01539 c -1.27468,0.0183 -2.59302,0.15829 -3.95651,0.44259 -19.76323,6.3666 -31.51629,48.53577 -54.07042,70.22895 C 161.63029,560.74154 87.026476,601.90133 16.904938,627.15049 8.3651884,630.22546 6.404673,633.94249 0,636.56349 V 720 h 322.52879 c 0,0 -19.48965,-22.90216 -29.44728,-40.6875 -9.75313,-17.42017 -16.67005,-124.22169 -11.55135,-168.13669 0.13428,-1.00978 0.26888,-2.01892 0.43321,-2.9845 1.53244,-8.86714 0.42304,-28.04928 -5.4255,-33.38383 -6.03235,-5.02512 -12.87072,-10.92033 -21.79368,-10.79209 z"
         sodipodi:nodetypes="sccscccscccs" /><path
         style="font-variation-settings:normal;fill:#55b323;fill-opacity:1;stroke:none;stroke-width:0.617324;stroke-linecap:round;stroke-linejoin:miter;stroke-miterlimit:4;stroke-dasharray:none;stroke-dashoffset:0;stroke-opacity:1;paint-order:markers fill stroke;stop-color:#000000"
         d="m 60.734513,307.83626 c 0,0 -7.531454,-7.71071 -12.237837,0.10328 -4.706383,7.814 -21.73682,28.31706 -16.041702,32.77192 5.695104,4.45486 10.91477,7.2973 12.020729,6.09489 1.105963,-1.20242 11.652292,-23.883 15.88664,-28.34467 4.234345,-4.46169 0.37217,-10.62542 0.37217,-10.62542 z"
         id="path62270" /><path
         style="font-variation-settings:normal;fill:#55b323;fill-opacity:1;stroke:none;stroke-width:0.617324;stroke-linecap:round;stroke-linejoin:miter;stroke-miterlimit:4;stroke-dasharray:none;stroke-dashoffset:0;stroke-opacity:1;paint-order:markers fill stroke;stop-color:#000000"
         d="m 75.088122,317.61935 c 0,0 10.563386,2.14308 6.552959,10.33606 -4.010426,8.19299 -11.993444,33.62294 -18.825528,31.25595 -6.832082,-2.36699 -12.05175,-5.20943 -11.641747,-6.79083 0.410007,-1.58141 13.740162,-22.74602 15.190684,-28.72366 1.450535,-5.97765 8.723632,-6.07752 8.723632,-6.07752 z"
         id="path62272" /><path
         id="path141942"
         style="font-variation-settings:normal;fill:#55b323;fill-opacity:1;stroke:none;stroke-width:0.617325;stroke-linecap:round;stroke-linejoin:miter;stroke-miterlimit:4;stroke-dasharray:none;stroke-dashoffset:0;stroke-opacity:1;paint-order:markers fill stroke;stop-color:#000000"
         d="m 198.66708,516.10053 c 0,0 -0.41214,0.19167 -0.29483,0.31122 -0.53936,0.41101 -2.8817,3.24083 -3.00575,3.7834 -0.0202,-0.0669 -0.12738,-0.0493 -0.14373,0.0153 -1.23371,2.33934 -1.49579,5.2589 2.10149,8.05413 7.20307,5.59708 25.54984,24.93226 30.64662,19.8036 5.09679,-5.12866 8.53567,-9.97678 7.47243,-11.2172 -1.06333,-1.24027 -22.33794,-14.39223 -26.26786,-19.12437 -3.92988,-4.73189 -10.50864,-1.62592 -10.50864,-1.62592 z"
         sodipodi:nodetypes="ccccsssscc" /><path
         style="font-variation-settings:normal;fill:#55b323;fill-opacity:1;stroke:none;stroke-width:0.617325;stroke-linecap:round;stroke-linejoin:miter;stroke-miterlimit:4;stroke-dasharray:none;stroke-dashoffset:0;stroke-opacity:1;paint-order:markers fill stroke;stop-color:#000000"
         d="m 210.07894,503.00409 c 0,0 3.37658,-10.23596 11.03816,-5.28533 7.6615,4.95071 31.96968,15.88342 28.81176,22.38783 -3.15794,6.5044 -6.59735,11.3516 -8.11925,10.75752 -1.52181,-0.59405 -20.96254,-16.33232 -26.72683,-18.47907 -5.76433,-2.147 -5.00392,-9.38096 -5.00392,-9.38096 z"
         id="path141944" /><path
         style="font-weight:bold;font-size:67.8899px;line-height:100%;font-family:'Segoe UI';-inkscape-font-specification:'Segoe UI Bold';letter-spacing:0px;word-spacing:0px;white-space:pre;inline-size:1425.18;stroke-width:3.9;stroke-linecap:round;stroke-dasharray:3.9, 11.7;paint-order:markers fill stroke;fill:#000000;fill-opacity:1;stroke:none"
         d="m 590.54392,374.51385 v -47.53618 h 17.30397 q 7.95584,0 12.23211,2.91714 4.27627,2.91714 4.27627,8.22104 0,3.84533 -2.6188,6.72932 -2.58565,2.884 -6.62987,4.01108 v 0.13259 q 5.07185,0.62984 8.08844,3.74588 3.04974,3.11604 3.04974,7.59121 0,6.53042 -4.67406,10.37575 -4.67406,3.81217 -12.7625,3.81217 z m 10.70724,-39.64664 V 346.138 h 4.70721 q 3.31494,0 5.20445,-1.59117 1.92267,-1.62432 1.92267,-4.44202 0,-5.2376 -7.82325,-5.2376 z m 0,19.22664 v 12.53046 h 5.80114 q 3.71273,0 5.80114,-1.72377 2.12156,-1.72377 2.12156,-4.70721 0,-2.85085 -2.08841,-4.47517 -2.05526,-1.62431 -5.76799,-1.62431 z m 72.69656,20.42 H 661.64931 L 654.257,362.28174 q -0.82874,-1.39227 -1.59117,-2.4862 -0.76244,-1.09393 -1.55802,-1.85637 -0.76244,-0.79558 -1.62432,-1.19337 -0.82874,-0.43095 -1.82322,-0.43095 h -2.88399 v 18.199 h -10.70725 v -47.53618 h 16.97248 q 17.30397,0 17.30397,12.92825 0,2.4862 -0.76244,4.60776 -0.76243,2.08841 -2.15471,3.77903 -1.39227,1.69061 -3.38123,2.91714 -1.95581,1.22653 -4.37572,1.92266 v 0.1326 q 1.06078,0.3315 2.05526,1.09393 0.99448,0.72929 1.92267,1.72377 0.92818,0.99448 1.75691,2.15471 0.86189,1.12708 1.55802,2.221 z m -29.17144,-39.51404 v 13.2266 h 4.64091 q 3.44753,0 5.53594,-1.98896 2.12156,-2.02211 2.12156,-5.00556 0,-6.23208 -7.4586,-6.23208 z m 75.41481,39.51404 h -11.66858 l -3.38124,-10.57464 H 688.2351 l -3.34809,10.57464 h -11.60228 l 17.30397,-47.53618 h 12.69621 z m -17.50287,-18.79569 -5.105,-15.97799 q -0.56354,-1.79006 -0.79559,-4.27627 h -0.26519 q -0.16575,2.08841 -0.82874,4.14367 l -5.1713,16.11059 z m 34.14384,18.79569 h -10.70724 v -47.53618 h 10.70724 z m 53.56939,0 h -10.8067 l -19.59127,-29.86757 q -1.72377,-2.6188 -2.38675,-3.94478 h -0.1326 q 0.26519,2.51935 0.26519,7.69066 v 26.12169 h -10.11055 v -47.53618 h 11.53598 l 18.86198,28.93939 q 1.29283,1.95581 2.38676,3.87848 h 0.1326 q -0.2652,-1.65747 -0.2652,-6.53043 v -26.28744 h 10.11056 z"
         id="text11"
         transform="matrix(2.2197529,0,0,2.2197529,-892.83872,-382.0829)"
         aria-label="BRAIN" /><path
         style="font-weight:600;font-size:67.8899px;line-height:100%;font-family:'Segoe UI';-inkscape-font-specification:'Segoe UI Semi-Bold';letter-spacing:0px;word-spacing:0px;white-space:pre;inline-size:1425.18;stroke-width:3.9;stroke-linecap:round;stroke-dasharray:3.9, 11.7;paint-order:markers fill stroke;fill:#000000;fill-opacity:1;stroke:none"
         d="m 628.65901,113.83399 h -8.1216 V 66.297802 h 8.1216 z m 52.01135,0 h -8.61883 L 649.34421,78.894561 q -0.86188,-1.325975 -1.42542,-2.751397 h -0.1989 q 0.2652,1.52487 0.2652,6.530425 v 31.160401 h -7.62436 V 66.297802 h 9.18238 l 21.94488,34.110698 q 1.39227,2.12156 1.79006,2.91714 h 0.1326 q -0.33149,-1.88951 -0.33149,-6.397824 V 66.297802 h 7.5912 z m 9.58017,-1.88951 v -8.1216 q 1.09392,0.99448 2.58565,1.79007 1.52487,0.79558 3.21548,1.35912 1.69062,0.53039 3.38124,0.82874 1.69062,0.29834 3.11604,0.29834 4.9724,0 7.39231,-1.65747 2.45305,-1.65746 2.45305,-4.80665 0,-1.690622 -0.82873,-2.917149 -0.79559,-1.259675 -2.25416,-2.287306 -1.45857,-1.02763 -3.44753,-1.955812 -1.95582,-0.961332 -4.20997,-1.988962 -2.41991,-1.292826 -4.50832,-2.6188 -2.08841,-1.325975 -3.64643,-2.917144 -1.52487,-1.624319 -2.4199,-3.64643 -0.86188,-2.022112 -0.86188,-4.74036 0,-3.348086 1.49172,-5.801139 1.52487,-2.486202 3.97792,-4.077372 2.4862,-1.624318 5.63539,-2.386754 3.14919,-0.795585 6.43098,-0.795585 7.45861,0 10.87299,1.690618 v 7.790101 q -4.04422,-2.917144 -10.4089,-2.917144 -1.75692,0 -3.51383,0.331493 -1.72377,0.331494 -3.11604,1.093929 -1.35913,0.762436 -2.22101,1.955813 -0.86188,1.193377 -0.86188,2.883995 0,1.591169 0.66298,2.751397 0.66299,1.160228 1.92267,2.121559 1.29282,0.961332 3.11604,1.889514 1.85636,0.895033 4.27627,1.955813 2.4862,1.292825 4.67406,2.718248 2.221,1.425422 3.87847,3.149189 1.69062,1.723767 2.65195,3.845327 0.99448,2.08841 0.99448,4.773511 0,3.61328 -1.45857,6.09948 -1.45857,2.4862 -3.94477,4.04422 -2.45306,1.55802 -5.66855,2.25416 -3.21548,0.69614 -6.79562,0.69614 -1.19337,0 -2.95029,-0.1989 -1.72377,-0.16575 -3.54698,-0.53039 -1.82322,-0.33149 -3.44753,-0.82873 -1.62432,-0.49724 -2.6188,-1.12708 z m 75.71315,-17.33712 q 0,20.02222 -18.96144,20.02222 -18.16585,0 -18.16585,-19.259784 V 66.297802 h 7.88955 v 27.447675 q 0,13.989033 10.87299,13.989033 10.4752,0 10.4752,-13.491793 V 66.297802 h 7.88955 z m 37.49193,19.22663 H 777.13502 V 66.297802 h 7.88954 v 40.873168 h 18.43105 z m 14.95036,0 h -8.12159 V 66.297802 h 8.12159 z m 52.01136,0 H 861.7985 L 839.09118,78.894561 q -0.86188,-1.325975 -1.42542,-2.751397 h -0.1989 q 0.2652,1.52487 0.2652,6.530425 V 113.83399 H 830.1077 V 66.297802 h 9.18238 l 21.94488,34.110698 q 1.39227,2.12156 1.79006,2.91714 h 0.1326 q -0.33149,-1.88951 -0.33149,-6.397824 V 66.297802 h 7.5912 z"
         id="text12"
         transform="matrix(1.7568135,0,0,1.7568135,-669.8247,-35.701016)"
         aria-label="INSULIN" /><path
         d="m 683.10205,164.68039 q -0.99449,0 -1.75692,-0.72929 -0.76244,-0.72929 -0.76244,-1.85637 0,-1.09392 0.76244,-1.75691 0.79558,-0.69614 1.75692,-0.69614 1.02763,0 1.79006,0.66299 0.79559,0.66299 0.79559,1.79006 0,1.06078 -0.76244,1.82322 -0.76243,0.76244 -1.82321,0.76244 z m -1.49173,42.49748 v -33.94495 h 3.04975 v 33.94495 z m 36.9947,0 v -19.75702 q 0,-12.23212 -8.81774,-12.23212 -4.9061,0 -8.05529,3.61328 -3.14919,3.58014 -3.14919,8.88403 v 19.49183 h -3.04974 v -33.94495 h 3.04974 v 6.16578 h 0.1326 q 3.71273,-6.99451 11.60227,-6.99451 5.5028,0 8.41994,3.67958 2.91715,3.64643 2.91715,10.44205 v 20.65205 z m 45.28202,-0.46409 q -2.38675,1.12708 -4.47516,1.12708 -7.52491,0 -7.52491,-9.01663 v -22.80676 h -6.09948 v -2.78455 h 6.09948 v -8.81773 q 0.72929,-0.26519 1.52487,-0.53039 0.79559,-0.23204 1.52488,-0.49724 v 9.84536 h 8.95032 v 2.78455 h -8.95032 v 22.40897 q 0,3.51383 1.09392,5.105 1.12708,1.55802 3.77903,1.55802 1.88952,0 4.07737,-1.22652 z m 29.80128,0.46409 v -20.35371 q 0,-6.03318 -2.18785,-8.81773 -2.18786,-2.8177 -6.82877,-2.8177 -4.37572,0 -7.69066,3.41439 -3.31493,3.41438 -3.31493,9.77906 v 18.79569 h -3.04974 v -50.25444 h 3.04974 v 22.40897 h 0.1326 q 4.01107,-6.92821 11.66857,-6.92821 5.5028,0 8.38679,3.54698 2.884,3.54698 2.884,10.17685 v 21.04985 z m 13.98904,-16.83988 q 0,6.99452 3.21548,10.93929 3.24864,3.94478 8.88403,3.94478 5.70169,0 11.13819,-4.20997 v 3.24864 q -5.27075,3.74588 -11.76802,3.74588 -6.56358,0 -10.6078,-4.70721 -4.04422,-4.70721 -4.04422,-13.2929 0,-7.42546 4.20997,-12.49731 4.24311,-5.105 11.00559,-5.105 6.33152,0 9.71276,4.44201 3.38123,4.44202 3.38123,12.13267 v 1.35912 z m 21.94488,-2.78454 q -0.1989,-5.86744 -2.8177,-9.11608 -2.6188,-3.24864 -7.22656,-3.24864 -4.77351,0 -7.9227,3.21549 -3.11604,3.18234 -3.84533,9.14923 z"
         id="text13"
         style="font-weight:300;font-size:67.8899px;line-height:100%;font-family:'Segoe UI';-inkscape-font-specification:'Segoe UI Light';letter-spacing:0px;word-spacing:0px;white-space:pre;inline-size:1425.18;stroke-width:3.9;stroke-linecap:round;stroke-dasharray:3.9, 11.7;paint-order:markers fill stroke;fill:#000000;fill-opacity:1;stroke:none"
         transform="matrix(1.4759258,0,0,1.4759258,-476.98365,-14.600589)"
         aria-label="in the" /><path
         style="fill:#55b323;fill-opacity:1;stroke-width:1.86909;stroke-linecap:round;stroke-dasharray:1.86909, 5.60726;paint-order:markers fill stroke;stroke:none"
         d="M 1142.8458,108.27668 C 1146.4485,107.22666 1090.6719,0 1090.6719,0 h -43.5026 c 0,0 92.0738,109.3267 95.6765,108.27668 z"
         id="path16"
         sodipodi:nodetypes="zccz" /><path
         style="font-variation-settings:normal;fill:#55b323;fill-opacity:1;stroke:none;stroke-width:0.617325;stroke-linecap:round;stroke-linejoin:miter;stroke-miterlimit:4;stroke-dasharray:none;stroke-dashoffset:0;stroke-opacity:1;paint-order:markers fill stroke;stop-color:#000000"
         d="m 46.961409,603.80987 c 0,0 8.606916,-6.48833 12.082673,1.9454 3.475756,8.43373 17.223759,31.268 10.922637,34.81418 -6.301118,3.54628 -11.889365,5.57012 -12.801599,4.21485 -0.912241,-1.35528 -7.922132,-25.36564 -11.436187,-30.41407 -3.514007,-5.04867 1.232457,-10.56036 1.232457,-10.56036 z"
         id="path20" /><path
         style="font-variation-settings:normal;fill:#55b323;fill-opacity:1;stroke:none;stroke-width:0.617325;stroke-linecap:round;stroke-linejoin:miter;stroke-miterlimit:4;stroke-dasharray:none;stroke-dashoffset:0;stroke-opacity:1;paint-order:markers fill stroke;stop-color:#000000"
         d="m 32.40274,607.96928 c 0,0 -10.777985,0.11176 -8.385229,8.91423 2.392756,8.80247 5.434874,35.28183 12.590789,34.24622 7.155957,-1.03555 12.818152,-2.84221 12.713853,-4.47256 -0.1043,-1.63036 -9.202268,-24.92979 -9.498923,-31.07367 -0.296846,-6.14403 -7.420484,-7.61424 -7.420484,-7.61424 z"
         id="path21" /><circle
         style="fill:#b8de29;fill-opacity:1;stroke:none;stroke-width:5.80416;stroke-linecap:round;stroke-dasharray:none;paint-order:markers fill stroke"
         id="circle22"
         cx="89.112411"
         cy="454.11444"
         r="6.0727119" /><circle
         style="fill:#b8de29;fill-opacity:1;stroke:none;stroke-width:5.80416;stroke-linecap:round;stroke-dasharray:none;paint-order:markers fill stroke"
         id="circle28"
         cx="98.00016"
         cy="454.95291"
         r="6.0727119" /><circle
         style="fill:#b8de29;fill-opacity:1;stroke:none;stroke-width:5.80416;stroke-linecap:round;stroke-dasharray:none;paint-order:markers fill stroke"
         id="circle29"
         cx="127.17879"
         cy="382.17401"
         r="6.0727119" /><circle
         style="fill:#b8de29;fill-opacity:1;stroke:none;stroke-width:5.80416;stroke-linecap:round;stroke-dasharray:none;paint-order:markers fill stroke"
         id="circle30"
         cx="140.25887"
         cy="387.87558"
         r="6.0727119" /><circle
         style="fill:#b8de29;fill-opacity:1;stroke:none;stroke-width:5.80416;stroke-linecap:round;stroke-dasharray:none;paint-order:markers fill stroke"
         id="circle31"
         cx="10.799638"
         cy="479.77151"
         r="6.0727119" /><circle
         style="fill:#b8de29;fill-opacity:1;stroke:none;stroke-width:5.80416;stroke-linecap:round;stroke-dasharray:none;paint-order:markers fill stroke"
         id="circle24"
         cx="96.994003"
         cy="467.8653"
         r="6.0727119" /><circle
         style="fill:#b8de29;fill-opacity:1;stroke:none;stroke-width:5.80416;stroke-linecap:round;stroke-dasharray:none;paint-order:markers fill stroke"
         id="circle25"
         cx="76.535416"
         cy="539.80573"
         r="6.0727119" /><circle
         style="fill:#b8de29;fill-opacity:1;stroke:none;stroke-width:5.80416;stroke-linecap:round;stroke-dasharray:none;paint-order:markers fill stroke"
         id="circle26"
         cx="99.844788"
         cy="557.07812"
         r="6.0727119" /><circle
         style="fill:#b8de29;fill-opacity:1;stroke:none;stroke-width:5.80416;stroke-linecap:round;stroke-dasharray:none;paint-order:markers fill stroke"
         id="circle27"
         cx="81.73391"
         cy="578.71057"
         r="6.0727119" /><circle
         style="fill:#b8de29;fill-opacity:1;stroke:none;stroke-width:5.80416;stroke-linecap:round;stroke-dasharray:none;paint-order:markers fill stroke"
         id="path22"
         cx="160.88515"
         cy="535.27802"
         r="6.0727119" /><path
         d="m 536.09102,584.25609 q -5.3702,2.78455 -13.35919,2.78455 -10.3426,0 -16.57469,-6.53042 -6.23208,-6.53043 -6.23208,-17.13823 0,-11.40338 6.99452,-18.43104 7.02767,-7.02767 17.73491,-7.02767 6.89507,0 11.43653,1.95581 v 7.82325 q -4.80666,-2.85084 -10.6078,-2.85084 -7.7238,0 -12.53046,4.93925 -4.7735,4.93926 -4.7735,13.19345 0,7.8564 4.47516,12.53046 4.47516,4.64091 11.76803,4.64091 6.72932,0 11.66857,-3.18234 z m 38.32067,1.98897 h -7.69065 v -18.56365 q 0,-10.07741 -6.72933,-10.07741 -3.38123,0 -5.70169,2.91715 -2.32045,2.91714 -2.32045,7.45861 v 18.2653 h -7.7238 v -50.25444 h 7.7238 v 21.94488 h 0.1326 q 3.84532,-6.43098 11.00558,-6.43098 11.30394,0 11.30394,13.82329 z m 29.03884,-26.61894 q -1.39227,-1.09393 -4.01107,-1.09393 -3.41438,0 -5.70169,3.08289 -2.28731,3.08289 -2.28731,8.38679 v 16.24319 h -7.69065 v -33.94495 h 7.69065 v 6.99451 h 0.1326 q 1.12708,-3.58013 3.44754,-5.56909 2.3536,-2.02211 5.2376,-2.02211 2.08841,0 3.18233,0.62984 z m 9.31497,-14.45313 q -1.88951,0 -3.24864,-1.22652 -1.32597,-1.22653 -1.32597,-3.11604 0,-1.88952 1.32597,-3.14919 1.35913,-1.25968 3.24864,-1.25968 1.95581,0 3.31494,1.25968 1.35912,1.25967 1.35912,3.14919 0,1.79006 -1.35912,3.08289 -1.35913,1.25967 -3.31494,1.25967 z m 3.81218,41.07207 h -7.69066 v -33.94495 h 7.69066 z m 7.92269,-1.06078 v -7.12712 q 4.30942,3.28179 9.51387,3.28179 6.96137,0 6.96137,-4.11052 0,-1.16023 -0.59669,-1.95581 -0.59669,-0.82874 -1.62432,-1.45858 -0.99448,-0.62983 -2.38675,-1.12707 -1.35913,-0.49724 -3.04975,-1.12708 -2.08841,-0.82874 -3.77902,-1.75692 -1.65747,-0.92818 -2.78455,-2.08841 -1.09393,-1.19338 -1.65747,-2.6851 -0.56354,-1.49172 -0.56354,-3.48068 0,-2.45305 1.16023,-4.30942 1.16023,-1.88951 3.11604,-3.14919 1.95581,-1.29282 4.44202,-1.92266 2.4862,-0.66299 5.13815,-0.66299 4.70721,0 8.41994,1.42542 v 6.72933 q -3.58014,-2.45306 -8.22105,-2.45306 -1.45857,0 -2.65195,0.29835 -1.16022,0.29834 -1.98896,0.82873 -0.82873,0.53039 -1.29282,1.29283 -0.46409,0.72928 -0.46409,1.62431 0,1.09393 0.46409,1.85637 0.46409,0.76243 1.35912,1.35912 0.92818,0.56354 2.18786,1.06078 1.29282,0.46409 2.95029,1.02763 2.18786,0.89504 3.91163,1.82322 1.75691,0.92818 2.98344,2.12156 1.22653,1.16023 1.88951,2.71825 0.66299,1.52487 0.66299,3.64643 0,2.58565 -1.19337,4.50831 -1.19338,1.92266 -3.18234,3.18234 -1.98897,1.25967 -4.60777,1.85636 -2.58565,0.62984 -5.46964,0.62984 -5.56909,0 -9.64647,-1.85636 z m 49.29311,0.69613 q -2.25416,1.12708 -5.93374,1.12708 -9.87851,0 -9.87851,-9.48072 v -19.19348 h -5.66854 v -6.03318 h 5.66854 v -7.8564 l 7.69066,-2.18786 v 10.04426 h 8.12159 v 6.03318 h -8.12159 v 16.97248 q 0,3.01659 1.09392,4.30941 1.09393,1.29283 3.64643,1.29283 1.95582,0 3.38124,-1.12708 z m 34.97258,-14.51942 H 685.6278 q 0.1326,4.70721 2.884,7.25971 2.78454,2.5525 7.62435,2.5525 5.4365,0 9.97796,-3.24863 v 6.19893 q -4.64091,2.91714 -12.26527,2.91714 -7.49175,0 -11.76802,-4.60776 -4.24312,-4.64091 -4.24312,-13.0277 0,-7.9227 4.67406,-12.8951 4.70721,-5.00556 11.66858,-5.00556 6.96136,0 10.77354,4.47517 3.81218,4.47516 3.81218,12.43101 z m -7.42546,-5.43649 q -0.0331,-4.14368 -1.95581,-6.43098 -1.92267,-2.32046 -5.3039,-2.32046 -3.31494,0 -5.63539,2.41991 -2.28731,2.4199 -2.8177,6.33153 z m 22.47527,20.32056 h -7.7238 v -50.25444 h 7.7238 z m 13.88959,-41.07207 q -1.88952,0 -3.24864,-1.22652 -1.32598,-1.22653 -1.32598,-3.11604 0,-1.88952 1.32598,-3.14919 1.35912,-1.25968 3.24864,-1.25968 1.95581,0 3.31493,1.25968 1.35913,1.25967 1.35913,3.14919 0,1.79006 -1.35913,3.08289 -1.35912,1.25967 -3.31493,1.25967 z m 3.81217,41.07207 h -7.69065 v -33.94495 h 7.69065 z m 40.27648,0 h -7.69065 v -19.12719 q 0,-9.51387 -6.72932,-9.51387 -3.51384,0 -5.80114,2.65195 -2.28731,2.6188 -2.28731,6.62988 v 19.35923 h -7.7238 v -33.94495 h 7.7238 v 5.63539 h 0.1326 q 3.81218,-6.43098 11.00559,-6.43098 5.53594,0 8.45309,3.61328 2.91714,3.58013 2.91714,10.37575 z m 40.24333,0 h -7.69065 v -5.76799 h -0.1326 q -3.71273,6.56357 -11.43653,6.56357 -6.26523,0 -10.04426,-4.54146 -3.74587,-4.57461 -3.74587,-12.43101 0,-8.41994 4.14367,-13.4918 4.17682,-5.07185 11.10503,-5.07185 6.86192,0 9.97796,5.5028 h 0.1326 v -21.0167 h 7.69065 z m -7.5912,-15.51391 v -4.44201 q 0,-3.61328 -2.35361,-6.13263 -2.3536,-2.51936 -6.00003,-2.51936 -4.30942,0 -6.79562,3.21549 -2.45305,3.21549 -2.45305,8.91718 0,5.1713 2.3536,8.18789 2.38676,2.98345 6.39783,2.98345 3.94477,0 6.39783,-2.884 2.45305,-2.91714 2.45305,-7.32601 z m 43.69086,15.51391 h -7.45861 v -5.3039 h -0.1326 q -3.51383,6.09948 -10.30945,6.09948 -5.00555,0 -7.8564,-2.71825 -2.8177,-2.71824 -2.8177,-7.19341 0,-9.61332 11.07189,-11.20448 l 10.07741,-1.42543 q 0,-7.25971 -6.89507,-7.25971 -6.06633,0 -10.93929,4.17682 v -6.72932 q 5.3702,-3.18234 12.39786,-3.18234 12.86196,0 12.86196,12.66306 z m -7.42546,-16.67413 -7.12711,0.99448 q -3.31494,0.43094 -5.00556,1.62432 -1.65747,1.16022 -1.65747,4.11052 0,2.15471 1.52487,3.54698 1.55802,1.35912 4.14367,1.35912 3.51384,0 5.80114,-2.45305 2.32046,-2.4862 2.32046,-6.23208 z m 62.6523,16.67413 h -26.3206 v -47.53619 h 7.88955 v 40.87316 h 18.43105 z m 32.05544,0 h -7.4586 v -5.3039 h -0.1326 q -3.51383,6.09948 -10.30945,6.09948 -5.00556,0 -7.8564,-2.71825 -2.8177,-2.71824 -2.8177,-7.19341 0,-9.61332 11.07189,-11.20448 l 10.07741,-1.42543 q 0,-7.25971 -6.89507,-7.25971 -6.06634,0 -10.93929,4.17682 v -6.72932 q 5.3702,-3.18234 12.39786,-3.18234 12.86195,0 12.86195,12.66306 z m -7.42545,-16.67413 -7.12712,0.99448 q -3.31493,0.43094 -5.00555,1.62432 -1.65747,1.16022 -1.65747,4.11052 0,2.15471 1.52487,3.54698 1.55802,1.35912 4.14367,1.35912 3.51383,0 5.80114,-2.45305 2.32046,-2.4862 2.32046,-6.23208 z m 46.40911,16.67413 h -7.69065 v -5.3702 h -0.1326 q -3.34808,6.16578 -10.4089,6.16578 -12.03322,0 -12.03322,-14.45312 v -20.28741 h 7.69065 v 19.49182 q 0,9.14923 7.06082,9.14923 3.41438,0 5.60224,-2.51935 2.22101,-2.51936 2.22101,-6.59673 v -19.52497 h 7.69065 z m 29.70186,-26.61894 q -1.3923,-1.09393 -4.0111,-1.09393 -3.4144,0 -5.7017,3.08289 -2.2873,3.08289 -2.2873,8.38679 v 16.24319 h -7.69065 v -33.94495 h 7.69065 v 6.99451 h 0.1326 q 1.1271,-3.58013 3.4475,-5.56909 2.3536,-2.02211 5.2376,-2.02211 2.0884,0 3.1824,0.62984 z m 33.5803,11.73487 h -23.1383 q 0.1326,4.70721 2.884,7.25971 2.7846,2.5525 7.6244,2.5525 5.4365,0 9.978,-3.24863 v 6.19893 q -4.641,2.91714 -12.2653,2.91714 -7.4918,0 -11.768,-4.60776 -4.2432,-4.64091 -4.2432,-13.0277 0,-7.9227 4.6741,-12.8951 4.7072,-5.00556 11.6686,-5.00556 6.9613,0 10.7735,4.47517 3.8122,4.47516 3.8122,12.43101 z m -7.4255,-5.43649 q -0.033,-4.14368 -1.9558,-6.43098 -1.9226,-2.32046 -5.3039,-2.32046 -3.3149,0 -5.6354,2.41991 -2.2873,2.4199 -2.8177,6.33153 z m 18.6299,-20.75151 q -1.8895,0 -3.2486,-1.22652 -1.326,-1.22653 -1.326,-3.11604 0,-1.88952 1.326,-3.14919 1.3591,-1.25968 3.2486,-1.25968 1.9559,0 3.315,1.25968 1.3591,1.25967 1.3591,3.14919 0,1.79006 -1.3591,3.08289 -1.3591,1.25967 -3.315,1.25967 z m 3.8122,41.07207 h -7.6906 v -33.94495 h 7.6906 z m 17.7349,-1.42543 q 0,8.35364 -3.5138,12.86196 -3.5138,4.54146 -10.0442,4.54146 -2.4199,0 -4.7073,-1.06078 v -6.59672 q 2.1548,1.49172 4.0774,1.49172 6.4973,0 6.4973,-11.46968 v -32.28748 h 7.6906 z m -3.779,-39.64664 q -1.8895,0 -3.2486,-1.22652 -1.326,-1.22653 -1.326,-3.11604 0,-1.88952 1.326,-3.14919 1.3591,-1.25968 3.2486,-1.25968 1.9227,0 3.2818,1.25968 1.3591,1.25967 1.3591,3.14919 0,1.79006 -1.3591,3.08289 -1.3591,1.25967 -3.2818,1.25967 z m 11.7018,40.01129 v -7.12712 q 4.3094,3.28179 9.5138,3.28179 6.9614,0 6.9614,-4.11052 0,-1.16023 -0.5967,-1.95581 -0.5967,-0.82874 -1.6243,-1.45858 -0.9945,-0.62983 -2.3868,-1.12707 -1.3591,-0.49724 -3.0497,-1.12708 -2.0884,-0.82874 -3.779,-1.75692 -1.6575,-0.92818 -2.7846,-2.08841 -1.0939,-1.19338 -1.6575,-2.6851 -0.5635,-1.49172 -0.5635,-3.48068 0,-2.45305 1.1602,-4.30942 1.1603,-1.88951 3.1161,-3.14919 1.9558,-1.29282 4.442,-1.92266 2.4862,-0.66299 5.1381,-0.66299 4.7073,0 8.42,1.42542 v 6.72933 q -3.5801,-2.45306 -8.2211,-2.45306 -1.4585,0 -2.6519,0.29835 -1.1602,0.29834 -1.989,0.82873 -0.8287,0.53039 -1.2928,1.29283 -0.4641,0.72928 -0.4641,1.62431 0,1.09393 0.4641,1.85637 0.4641,0.76243 1.3591,1.35912 0.9282,0.56354 2.1879,1.06078 1.2928,0.46409 2.9503,1.02763 2.1878,0.89504 3.9116,1.82322 1.7569,0.92818 2.9834,2.12156 1.2266,1.16023 1.8896,2.71825 0.6629,1.52487 0.6629,3.64643 0,2.58565 -1.1933,4.50831 -1.1934,1.92266 -3.1824,3.18234 -1.9889,1.25967 -4.6077,1.85636 -2.5857,0.62984 -5.4697,0.62984 -5.5691,0 -9.6464,-1.85636 z"
         id="text31"
         style="font-weight:600;font-size:67.8899px;line-height:100%;font-family:'Segoe UI';-inkscape-font-specification:'Segoe UI Semi-Bold';letter-spacing:0px;word-spacing:0px;white-space:pre;inline-size:1425.18;stroke-width:3.4;stroke-linecap:round;paint-order:markers fill stroke;fill:#000000;stroke:none"
         transform="matrix(0.68348153,0,0,0.68348153,88.822647,161.08546)"
         aria-label="Christelinda Laureijs" /><path
         d="m 406.41589,648.85376 v -47.53619 h 11.90062 q 11.83433,0 18.00011,5.90059 6.16578,5.90058 6.16578,17.20452 0,10.87299 -6.62987,17.66861 -6.59673,6.76247 -18.23216,6.76247 z m 3.28179,-44.5196 v 41.53616 h 7.4586 q 10.57465,0 16.24319,-5.46965 5.66854,-5.50279 5.66854,-15.8454 0,-20.22111 -21.24874,-20.22111 z m 57.81249,13.75699 q -1.52487,-1.09393 -3.58013,-1.09393 -4.01107,0 -6.72932,4.14367 -2.71825,4.14367 -2.71825,11.76803 v 15.94484 h -2.98344 v -33.94495 h 2.98344 v 7.52491 h 0.1326 q 1.16022,-3.87848 3.67958,-6.03319 2.51935,-2.15471 5.83428,-2.15471 1.88952,0 3.38124,0.59669 z m -0.0663,31.3593 q -1.12708,0 -1.88951,-0.76244 -0.76244,-0.79558 -0.76244,-1.92266 0,-1.16023 0.76244,-1.88951 0.76243,-0.76244 1.88951,-0.76244 1.12708,0 1.92266,0.76244 0.79559,0.72928 0.79559,1.88951 0,1.12708 -0.79559,1.92266 -0.79558,0.76244 -1.92266,0.76244 z m 56.71857,-0.59669 -20.25426,-22.74046 q -0.56354,-0.62984 -0.79559,-1.09393 h -0.1326 v 23.83439 h -3.28178 v -47.53619 h 3.28178 v 22.40897 h 0.1326 q 0.39779,-0.69614 0.86189,-1.16023 l 19.22663,-21.24874 h 4.27627 l -20.85096,23.03881 22.14378,24.49738 z m 30.92835,0 v -6.79562 h -0.1326 q -1.62432,3.48068 -4.74036,5.56909 -3.08289,2.05526 -6.86192,2.05526 -4.8398,0 -7.6575,-2.71824 -2.81769,-2.71825 -2.81769,-6.86192 0,-8.88403 11.76802,-10.7404 l 10.44205,-1.55802 q 0,-10.93929 -8.22104,-10.93929 -5.60225,0 -10.90614,4.50832 v -3.67958 q 1.88951,-1.49173 5.105,-2.5525 3.24864,-1.06078 6.09948,-1.06078 5.2376,0 8.08845,3.24863 2.88399,3.24864 2.88399,9.44757 v 22.07748 z m -9.34812,-16.90618 q -5.33705,0.76244 -7.49176,2.48621 -2.15471,1.69061 -2.15471,5.53594 0,3.01659 1.98897,4.9724 2.02211,1.95582 5.60224,1.95582 4.9061,0 8.15474,-3.61328 3.24864,-3.64643 3.24864,-9.38127 v -3.31494 z m 38.61902,-13.85643 q -1.52487,-1.09393 -3.58013,-1.09393 -4.01108,0 -6.72933,4.14367 -2.71824,4.14367 -2.71824,11.76803 v 15.94484 h -2.98345 v -33.94495 h 2.98345 v 7.52491 h 0.13259 q 1.16023,-3.87848 3.67958,-6.03319 2.51935,-2.15471 5.83429,-2.15471 1.88952,0 3.38124,0.59669 z m 5.76799,13.92273 q 0,6.99452 3.21549,10.93929 3.24864,3.94478 8.88403,3.94478 5.70169,0 11.13818,-4.20997 v 3.24864 q -5.27074,3.74587 -11.76802,3.74587 -6.56357,0 -10.6078,-4.70721 -4.04422,-4.70721 -4.04422,-13.29289 0,-7.42546 4.20997,-12.49731 4.24312,-5.105 11.00559,-5.105 6.33153,0 9.71276,4.44201 3.38124,4.44202 3.38124,12.13267 v 1.35912 z m 21.94488,-2.78454 q -0.1989,-5.86744 -2.8177,-9.11608 -2.6188,-3.24864 -7.22656,-3.24864 -4.77351,0 -7.9227,3.21549 -3.11604,3.18234 -3.84532,9.14923 z m 34.67422,19.62442 v -19.75702 q 0,-12.23212 -8.81773,-12.23212 -4.90611,0 -8.0553,3.61328 -3.14919,3.58013 -3.14919,8.88403 v 19.49183 h -3.04974 v -33.94495 h 3.04974 v 6.16578 h 0.1326 q 3.71273,-6.99451 11.60228,-6.99451 5.50279,0 8.41994,3.67958 2.91714,3.64643 2.91714,10.44205 v 20.65205 z m 64.11087,-1.55802 q -5.76799,2.38675 -12.03322,2.38675 -9.74591,0 -15.91169,-6.53042 -6.13264,-6.56358 -6.13264,-17.10507 0,-11.56913 6.66303,-18.5305 6.66302,-6.99451 16.93932,-6.99451 5.46965,0 10.4752,1.75691 v 3.48068 q -5.00555,-2.25415 -10.5415,-2.25415 -8.95033,0 -14.55257,6.06633 -5.60224,6.06634 -5.60224,16.14374 0,9.71277 5.33705,15.34816 5.37019,5.60224 13.59124,5.60224 6.56357,0 11.76802,-2.5525 z m 25.92283,-29.20459 q -1.52487,-1.09393 -3.58013,-1.09393 -4.01108,0 -6.72932,4.14367 -2.71825,4.14367 -2.71825,11.76803 v 15.94484 h -2.98345 v -33.94495 h 2.98345 v 7.52491 h 0.1326 q 1.16022,-3.87848 3.67957,-6.03319 2.51936,-2.15471 5.83429,-2.15471 1.88952,0 3.38124,0.59669 z m 18.66308,31.59134 q -7.42546,0 -11.76803,-4.87295 -4.30941,-4.90611 -4.30941,-12.72936 0,-8.45309 4.50831,-13.2266 4.54146,-4.7735 11.93377,-4.7735 7.25971,0 11.46968,4.74035 4.20997,4.74036 4.20997,13.12715 0,7.9227 -4.30942,12.82881 -4.27626,4.9061 -11.73487,4.9061 z m 0.23204,-32.81787 q -6.00003,0 -9.58016,4.04422 -3.54698,4.04423 -3.54698,11.23764 0,6.66302 3.48068,10.70724 3.48068,4.04423 9.51387,4.04423 6.13263,0 9.44757,-3.97793 3.31493,-3.97792 3.31493,-11.03874 0,-7.25971 -3.31493,-11.13818 -3.28179,-3.87848 -9.31498,-3.87848 z m 22.47528,30.49742 v -3.67958 q 1.72376,1.49172 4.17682,2.3536 2.45305,0.86189 4.24312,0.86189 7.98899,0 7.98899,-6.53043 0,-2.25415 -1.75691,-3.84532 -1.75692,-1.59117 -5.70169,-3.28179 -4.87296,-2.12156 -6.86192,-4.37572 -1.95582,-2.2873 -1.95582,-5.53594 0,-4.14367 3.14919,-6.69617 3.18234,-2.5525 7.82325,-2.5525 4.37572,0 7.49176,1.79006 v 3.44754 q -3.77903,-2.45306 -7.82325,-2.45306 -3.34809,0 -5.40335,1.75692 -2.05526,1.72377 -2.05526,4.50831 0,2.41991 1.29283,3.94478 1.29282,1.49172 5.70169,3.44753 5.3039,2.38676 7.29286,4.44202 1.98896,2.02211 1.98896,5.40334 0,4.04422 -3.04974,6.69617 -3.01659,2.6188 -8.35364,2.6188 -4.90611,0 -8.18789,-2.32045 z m 31.29298,-4.54146 h -0.1326 v 6.03318 h -3.04974 v -50.25444 h 3.04974 v 23.30401 h 0.1326 q 1.82322,-3.74588 5.20445,-5.76799 3.41439,-2.05526 7.49176,-2.05526 6.46412,0 10.07741,4.47516 3.64643,4.44201 3.64643,12.09952 0,8.51939 -4.20997,13.79013 -4.20997,5.2376 -10.93929,5.2376 -7.62436,0 -11.27079,-6.86191 z m -0.1326,-12.62991 v 4.27627 q 0,5.105 3.21549,8.78458 3.21549,3.64643 8.45309,3.64643 5.20445,0 8.45309,-4.44202 3.24864,-4.47516 3.24864,-11.73487 0,-6.36468 -2.98345,-10.11056 -2.98344,-3.74588 -7.95584,-3.74588 -5.93374,0 -9.18238,3.97793 -3.24864,3.97792 -3.24864,9.34812 z m 43.25994,25.59131 q -1.85636,4.57461 -4.11052,6.79562 -2.25416,2.221 -5.80114,2.221 -1.49172,0 -2.65195,-0.46409 v -3.04974 q 1.19338,0.46409 2.78455,0.46409 4.07737,0 6.43098,-5.63539 l 3.14919,-7.52491 -12.86196,-33.67975 h 3.41439 l 10.24315,27.64657 q 0.33149,0.89503 0.46409,1.35912 0.1326,0.62984 0.29835,1.12708 h 0.13259 l 0.79559,-2.2873 10.93929,-27.84547 h 3.31494 z"
         id="text32"
         style="font-weight:300;font-size:67.8899px;line-height:100%;font-family:'Segoe UI';-inkscape-font-specification:'Segoe UI Light';letter-spacing:0px;word-spacing:0px;white-space:pre;inline-size:1425.18;stroke-width:3.4;stroke-linecap:round;paint-order:markers fill stroke;fill:#000000;stroke:none"
         transform="matrix(0.73268589,0,0,0.73268589,172.55838,154.62469)"
         aria-label="Dr. Karen Crosby" /><path
         id="path132993"
         style="display:inline;fill:#b8de29;fill-opacity:1;stroke:none;stroke-width:3.81524;stroke-linecap:butt;stroke-linejoin:miter;stroke-miterlimit:4;stroke-dasharray:none;stroke-dashoffset:0;stroke-opacity:1;paint-order:markers fill stroke;stop-color:#000000"
         d="m 1205.2227,0 c 0.4717,1.9690558 0.5623,3.9028256 0.3515,5.5742188 -0.2646,2.1029493 -0.8377,3.7176935 -1.0097,4.7441402 0.013,0.0137 -5e-4,0.02686 0,0.04102 -0.164,0.699681 -0.3339,1.430971 -0.4961,2.103516 -1.7581,7.398999 -3.8066,13.980214 -4.834,18.144531 -1.7427,5.492839 -3.5645,11.69506 -4.6114,16.269531 -4.8639,34.464577 -22.9229,81.088163 -65.1679,77.253903 -14.1789,0.72134 -50.7364,-19.99951 -75.1875,-29.93945 -4.197,-5.185739 -7.3127,-11.510098 -8.8008,-18.40625 -1.9636,-9.099533 -0.6682,-16.595315 -0.061,-21.148437 0.408,-3.059273 0.3302,-5.342117 0.4961,-6.423828 -0.6529,0.786682 -2.5176,2.444772 -3.8671,5.443359 -1.9859,4.411095 -3.9161,13.031096 -1.9317,23.230469 0.8928,4.589139 2.475,8.935121 4.5723,12.941406 -10.0656,-6.532752 -19.0305,-14.790288 -29.7363,-22.216797 -1.8903,-1.13531 -3.6442,-2.142971 -5.2461,-3.328125 -1.4351,-1.061122 -2.5326,-2.112408 -3.336,-3.228515 -0.1869,-0.259482 -0.3659,-0.53295 -0.5371,-0.81836 -0.8421,-1.402078 -1.4143,-3.040355 -1.7715,-4.966797 -0.3441,-1.858133 -0.4526,-3.807033 -0.5156,-5.728515 -0.125,-4.495811 0.068,-8.469322 -0.086,-10.566407 -0.1107,-1.512346 -0.563,-2.574905 -0.6641,-3.095703 -0.2543,0.454506 -1.0293,1.352826 -1.5098,2.826172 -0.6855,2.101844 -1.2705,6.098919 -1.35152,10.855469 -0.0401,1.996388 0.0212,4.191798 0.38082,6.361328 0.3774,2.275081 1.0586,4.38678 2.1563,6.291016 0.2226,0.385695 0.4554,0.749978 0.6933,1.095703 1.031,1.496976 2.2801,2.881246 3.8399,4.273437 1.688,1.50657 3.5352,2.840468 5.2715,4.091797 4.0601,2.767131 7.8827,5.544322 11.3672,8.117188 -0.4446,0.01834 -0.8854,0.05461 -1.3243,0.09961 -6.4527,-1.649124 -12.9959,-2.394664 -19.3418,-2.261719 -0.5047,0.01025 -1.0137,0.02509 -1.5312,0.04687 -5.85917,0.22038 -10.98356,1.118068 -17.39649,1.84375 -17.88174,1.77599 -31.37356,-0.885827 -37.84961,-1.767578 -2.64047,-0.359484 -4.15349,-0.261217 -4.98633,-0.335937 l -0.008,0.002 c 0.67859,0.346221 2.04956,1.308751 4.53711,2.1875 5.91105,2.088007 20.48403,5.412916 38.66015,3.9375 5.99578,-0.406823 12.33407,-1.359493 17.22847,-1.625 0.4875,-0.0242 0.9695,-0.04283 1.4454,-0.05664 3.6867,-0.107882 7.4526,0.05381 11.2441,0.507813 -0.051,0.02845 -0.1083,0.05375 -0.1563,0.08789 -1.4304,0.813065 -2.7038,1.786288 -3.8886,2.767578 -1.2828,1.062578 -2.4785,2.141008 -3.6895,3.101563 -4.5949,3.495748 -10.03996,5.678276 -15.74216,7.02539 -2.61101,0.616759 -5.28037,1.060206 -7.94922,1.371094 -3.31699,0.386238 -6.79745,0.59703 -10.46093,0.65625 -4.27854,0.306742 -7.58771,0.475127 -9.7168,0.498047 2.03589,0.311064 5.64438,0.908141 9.95703,1.232422 3.73104,0.08094 7.31361,-0.01502 10.73437,-0.318359 2.75547,-0.244407 5.5318,-0.62902 8.26368,-1.207032 5.95977,-1.2607 11.78413,-3.4455 16.75783,-7.115234 1.3553,-0.961551 2.6156,-2.018138 3.8789,-3.025391 1.1743,-0.936618 2.3324,-1.813036 3.584,-2.542968 0.077,-0.04426 0.1514,-0.09347 0.2324,-0.136719 1.0975,-0.611478 2.3709,-1.13066 3.7969,-1.503906 4.8057,0.944024 9.6088,2.374323 14.3144,4.33789 1.3905,0.983468 4.0132,1.675605 5.4141,3.048828 25.787,20.360368 50.1613,43.690828 58.9082,76.624998 7.6555,34.46227 -11.0191,60.59578 -42.9531,67.98047 -9.7181,2.25295 -23.0137,7.7968 -35.6075,3.96094 -3.241,-0.87228 -6.3469,-2.10477 -9.8945,-3.58594 -3.4075,-1.42266 -6.7952,-2.88745 -10.35741,-4.0332 -2.5804,-0.79937 -5.00685,-1.35872 -7.30665,-1.75 -2.65332,-0.45125 -5.50308,-0.69118 -8.45703,-0.53125 -5.75603,0.31158 -11.06369,2.13325 -15.14843,5.20898 -1.50049,1.18682 -2.6116,2.4169 -3.32618,3.45118 -1.12792,1.63278 -1.46501,3.24262 -1.68359,3.92578 0.52516,-0.45857 1.90454,-1.33174 3.31055,-2.38867 0.92754,-0.69714 2.05482,-1.57024 3.48828,-2.45508 3.7115,-2.43319 8.38277,-3.90755 13.51562,-4.0586 2.63467,-0.0776 5.194,0.19123 7.59766,0.66993 2.0748,0.41316 4.28067,1.07439 6.58984,1.98437 3.27444,1.24618 6.36154,2.80101 9.77534,4.44141 3.4615,1.66325 6.8395,3.19746 10.4434,4.25976 0.035,0.0111 0.071,0.0187 0.1074,0.0293 -0.1716,0.40206 -0.3449,0.87864 -0.5957,1.40234 -0.3778,0.78877 -0.9383,1.67172 -1.8125,2.41016 -0.7868,0.66949 -1.8047,1.18155 -3.0156,1.56055 -1.2849,0.40147 -2.7171,0.62702 -3.918,0.75586 0,1e-4 -0.1406,0.0117 -0.1406,0.0117 -1.3034,0.11885 -2.0717,0.251 -3.4609,0.45704 -0.6019,0.25553 -3.8036,-2.93498 -5.584,-4.27735 -2.54881,-1.5369 -4.7023,-2.61336 -7.0586,-3.43555 -0.2658,-0.0927 -0.54024,-0.18007 -0.82031,-0.26367 -1.3777,-0.41226 -2.89272,-0.68087 -4.44727,-0.67187 -1.56285,0.009 -3.05984,0.29797 -4.41797,0.88086 -1.09967,0.53444 -1.89709,1.19941 -2.35156,1.73242 -0.48212,0.56553 -0.65835,1.15173 -0.76367,1.39062 0.23352,-0.10994 0.80758,-0.27047 1.41211,-0.52343 0.60286,-0.25226 1.36621,-0.60006 2.36132,-0.84766 1.14942,-0.35698 2.39118,-0.47981 3.68946,-0.38281 1.29588,0.0971 2.55767,0.40819 3.70703,0.8418 0.2358,0.0888 0.4669,0.18104 0.6914,0.27734 1.9452,0.83416 3.78867,2.193 5.94727,3.9375 0.9734,0.82173 1.90169,1.62146 2.71869,2.25781 -0.996,0.28447 -1.98685,0.62517 -2.95892,1.05274 -1.9287,0.83672 -3.69728,1.95413 -5.14258,3.38085 -1.7303,1.7081 -2.76444,3.6427 -3.17383,5.42188 -0.0744,0.35052 -0.11883,0.68236 -0.14063,0.99219 -0.12439,1.89367 0.77421,3.38912 1.06836,3.97461 0.14114,-0.83007 0.67287,-1.93536 1.32227,-3.44727 0.0969,-0.22592 0.20145,-0.46658 0.31445,-0.7168 0.5433,-1.27476 1.37254,-2.71447 2.74024,-4.07031 1.1457,-1.13572 2.56282,-2.10692 4.20312,-2.86133 1.59462,-0.72219 3.29552,-1.20117 5.05472,-1.53515 1.7614,-0.33444 3.5701,-0.51867 5.33,-0.64844 -2e-4,5e-4 0.1373,-0.01 0.1368,-0.01 1.1989,-0.0657 2.6806,-0.015 4.3476,-0.16992 1.5075,-0.14057 3.1799,-0.47558 4.7422,-1.30273 1.7841,-0.95106 3.1184,-2.37198 3.9121,-3.87891 0.5014,-0.95229 0.7462,-1.8568 0.8262,-2.62695 4.3174,0.1084 13.4421,-1.02761 17.5644,-1.18164 19.0358,0.0725 56.9774,-1.59986 68.8516,8.11523 24.3293,19.90571 15.3509,67.65486 2.3457,91.49024 -54.1562,128.33873 -91.9825,214.00342 -159.48632,317.36328 -0.84543,0.87428 -1.71367,1.72319 -2.53515,2.39453 -2.05907,1.54408 -7.29619,3.56864 -10.53516,3.72852 -2.92738,0.11423 -5.94755,-0.13763 -9.08008,-0.72266 -3.35348,-0.62631 -6.68317,-1.59683 -9.89648,-2.72656 -5.67957,-1.9979 -12.15577,-4.95912 -16.14453,-6.82813 -1.36861,-0.64127 -2.72208,-1.26028 -4.07813,-1.85937 -7.3273,-3.4176 -14.69027,-6.02595 -21.99414,-7.48243 -8.24416,-1.64388 -15.99576,-1.73455 -23.20117,-0.23437 -0.35231,0.0738 -0.69211,0.16489 -1.03906,0.24609 -2.08935,-0.0142 -5.2335,0.18468 -8.24415,-0.46484 -1.98594,-0.42841 -3.73274,-1.10687 -5.23046,-1.87891 -1.85325,-0.95524 -3.65969,-2.00525 -5.29102,-3.33593 -1.52257,-1.22501 -2.80293,-2.62395 -3.68359,-4.11329 -1.50843,-2.55074 -1.97758,-5.0685 -2.20703,-6.54101 0.0101,1.57096 0.2979,3.96378 1.25781,6.96289 0.54743,1.71031 1.22678,3.65231 2.35937,5.5957 1.23128,2.08421 2.91948,4.05215 5.10157,5.52539 1.34495,0.90815 2.96152,1.76614 4.80664,2.41211 -1.3492,0.71322 -2.63177,1.46765 -3.82813,2.25391 -1.35458,0.8903 -2.6531,1.85066 -3.88867,2.86914 -7.69891,6.34634 -11.25663,13.44476 -12.91211,17.17969 2.29113,-3.56433 6.99904,-9.42408 14.93555,-14.38868 1.26581,-0.79176 2.56333,-1.52804 3.89062,-2.21289 4.27405,-2.20533 9.31222,-4.04167 14.90821,-4.84375 6.47661,-0.94009 13.42132,-0.53493 20.86914,1.28907 6.61484,1.62004 13.35617,4.29232 20.13281,7.79883 1.23507,0.67296 2.4786,1.37521 3.74805,2.10937 4.09045,2.3656 9.16053,5.88072 15.33984,9.42383 3.23071,1.85172 6.84762,3.71453 10.7539,5.22656 3.798,1.47017 7.89542,2.62151 12.24219,3.13867 0.25321,0.03 0.50126,0.0327 0.75391,0.0586 -1.90719,1.65011 -3.81544,3.34196 -5.63867,5.07421 -2.43804,2.31596 -4.94171,4.89039 -7.32422,7.6504 -0.63939,0.26693 -1.27607,0.53032 -1.91992,0.79296 -1.29835,0.52958 -2.47393,0.99402 -4.02149,1.59766 -1.87422,0.73092 -4.62715,1.78392 -6.91211,2.75391 -1.35663,0.57586 -2.78005,1.22651 -4.20898,1.95117 -0.0247,-0.0891 -0.0512,-0.18387 -0.0801,-0.25977 -0.47348,-0.37248 -0.92758,-0.73756 -1.37109,-1.09375 -1.49361,-1.19951 -3.02475,-2.46435 -4.57618,-3.79297 -2.00551,-1.71736 -3.92387,-3.43671 -6.06054,-5.42578 -1.95232,-1.81767 -3.97587,-3.76204 -6.12305,-5.77343 0,0 -0.0156,-0.01 -0.0156,-0.01 -1.84245,-1.72539 -4.06539,-3.70618 -6.60743,-5.46875 -6.20407,-4.34505 -13.39711,-6.67145 -20.3457,-6.97266 -4.44708,-0.1928 -8.25425,0.46263 -11.01953,1.25782 -4.62276,1.32882 -7.79676,3.46974 -9.28125,4.45703 1.70897,-0.74772 5.12478,-1.94256 9.67969,-2.72266 2.71496,-0.46493 6.31156,-0.86304 10.46093,-0.5 3.47123,0.30374 6.97659,1.1224 10.3379,2.45899 -0.83182,0.94175 -1.55261,1.93612 -2.18555,2.94531 -0.95075,1.51594 -1.73156,3.08983 -2.44531,4.60351 -0.79618,1.68848 -1.50676,3.29651 -2.33008,4.83789 -0.64534,1.20823 -1.33549,2.42998 -2.12305,3.58985 -2.26686,3.20916 -5.25838,5.67871 -8.42969,7.35156 -0.95313,0.50277 -1.88473,0.91388 -2.76367,1.24414 -3.62017,1.36006 -6.72677,1.58003 -8.58203,1.58203 1.79893,0.30993 4.99327,0.65067 8.99219,-0.11133 0.97707,-0.18612 2.03443,-0.43893 3.14648,-0.7871 3.66554,-1.14754 7.57443,-3.21901 10.85742,-6.54102 1.18314,-1.15806 2.22144,-2.39591 3.13282,-3.59766 1.12407,-1.4822 2.26301,-3.07035 3.29882,-4.48437 0.98035,-1.33817 1.89674,-2.55997 2.84766,-3.73438 0.93353,-1.15297 1.85318,-2.20156 2.80469,-3.17578 0.0154,-0.0349 0.0235,-0.0779 0.0215,-0.1289 9e-4,-0.0952 -0.0401,-0.25542 -0.0976,-0.4375 0.7213,0.46549 1.42832,0.95732 2.11914,1.48046 2.25906,1.72901 4.2243,3.68348 5.85351,5.47657 l 0.0156,0.0117 c 1.86969,2.05883 3.55999,4.29971 5.17383,6.41601 1.74931,2.29365 3.49684,4.54151 5.48046,6.58985 1.43984,1.4868 3.00814,2.85064 4.74024,4.00976 -1.44452,1.03662 -2.83324,2.18411 -4.10156,3.50391 -1.70481,1.80507 -3.05638,3.759 -4.16602,5.64648 -0.87809,1.49359 -1.6317,2.98919 -2.28125,4.35742 -0.24419,0.51442 -0.48199,1.03482 -0.7168,1.56055 h 6.47852 c 0.53883,-0.82583 1.06276,-1.65749 1.68359,-2.45898 1.14663,-1.48031 2.41207,-2.84759 3.83789,-4.01563 1.6229,-1.36189 3.48311,-2.48955 5.52539,-3.5 2.07752,-1.02795 4.28878,-1.90717 6.50586,-2.76758 0.42254,-0.16405 0.82318,-0.3249 1.23828,-0.48633 -1.80536,3.42499 -3.26372,7.15533 -4.5,11.375 -0.17773,0.60665 -0.27813,1.24417 -0.44335,1.85352 h 6.08984 c 1.47612,-4.01507 3.07631,-7.35456 4.93359,-10.26172 0.25715,-0.40164 0.51636,-0.78823 0.77735,-1.16601 1.84165,-2.6662 4.02098,-5.05029 6.33593,-7.22071 2.78648,-2.61236 5.83156,-4.97461 8.80664,-7.19726 4.14295,-3.0955 8.17009,-5.96595 11.86524,-9.22461 -0.16258,1.53415 -0.27116,3.09264 -0.25586,4.6875 -0.0216,5.51077 1.04249,10.78604 2.70508,15.71679 1.55835,4.62163 3.65139,8.93143 5.86328,12.85547 -0.62223,0.48641 -1.2616,1.18598 -1.89648,1.81055 h 16.31054 c -1.11153,-2.15349 -2.27838,-4.24708 -3.26367,-6.45117 -1.74504,-3.90636 -3.20595,-7.92075 -4.125,-11.93945 -0.75771,-3.31301 -1.00967,-6.47036 -0.92187,-9.53907 0.61346,-2.37409 1.01533,-4.6759 2.89843,-7.49609 2.28875,-3.42773 4.57591,-6.85939 6.86524,-10.29102 66.5602,-113.51615 108.8041,-189.03142 169,-344.34765 1.1455,-2.56187 2.4292,-5.17761 3.6875,-7.17774 1.0126,-1.60977 2.7403,-3.67286 4.6875,-5.80664 0.7418,-0.78596 1.4197,-1.5633 2.1993,-2.35156 1.2466,-1.29749 2.4792,-2.52567 3.6621,-3.68945 27.0424,-25.49218 69.541,-41.23372 106.8867,-35.35547 4.503,0.70877 8.8496,1.93428 13.0586,3.36914 V 261.2105 c -3.8303,-3.70716 -7.682,-7.48119 -11.5039,-11.63867 -15.0099,-16.32802 -5.7828,-48.02862 11.5039,-78.24805 v -42.97656 c -19.1358,7.16265 -37.8723,11.52754 -48.0371,6.30273 -37.8639,-19.46269 -40.3014,-57.29541 -31.5918,-92.707033 0.8648,-2.84798 1.6681,-8.024085 2.8008,-10.96289 2.8998,-8.16051 5.8915,-18.551698 7.1523,-27.9902346 0.2335,-1.062091 0.5042,-2.00811963 0.7617,-2.9902344 z" /><path
         style="fill:#55b323;fill-opacity:1;stroke-width:1.86909;stroke-linecap:round;stroke-dasharray:1.86909, 5.60726;paint-order:markers fill stroke;stroke:none"
         d="m 1185.6642,237.41549 c -3.5639,2.15398 94.0159,209.87785 94.0159,209.87785 v -82.77258 c 0,0 -90.452,-129.25925 -94.0159,-127.10527 z"
         id="path33"
         sodipodi:nodetypes="zccz" /><path
         id="path253"
         style="fill:#6600cc;fill-opacity:1;stroke-width:1.2676px;stroke:none"
         inkscape:transform-center-x="8.6829919"
         inkscape:transform-center-y="-12.586725"
         d="m 1240.9159,470.16042 c -0.6577,0.0254 -1.7575,0.261 -3.5353,1.06466 -0.1852,0.0837 -0.3755,0.17202 -0.5694,0.26734 -2.0216,0.99317 -5.285,2.97747 -8.7223,6.62766 -3.0999,3.29184 -6.6044,8.22243 -9.2421,15.42914 -2.4063,6.57442 -4.122,15.12909 -4.0801,26.18386 0.013,2.98393 0.1778,5.73958 0.4877,8.29887 0.2411,1.99001 0.5705,3.91397 0.9978,5.77849 0.8872,3.87075 2.161,7.3308 3.83,10.58651 1.5368,2.99738 3.3065,5.62601 5.224,8.18492 1.7962,2.39691 3.6618,4.65578 5.4294,6.97676 1.7103,2.24606 3.3218,4.54182 4.7535,7.14015 1.3999,2.54091 2.6513,5.4133 3.6443,8.86333 0.9929,3.44978 1.7418,7.52234 2.1069,12.49033 0.3695,5.02769 0.343,10.93029 -0.2104,17.95192 -0.3846,4.29109 -1.1066,8.37987 -1.9955,12.25518 -20.0583,-42.08492 -102.5805,-106.18304 -181.4628,-81.11911 -19.0595,6.05547 -31.3318,3.82728 -39.672,-1.15377 5.1983,-4.29857 9.0366,-11.64331 9.0366,-21.71023 0,-16.91718 -9.7208,-20.73469 -19.638,-20.73469 -6.7406,0 -6.5108,4.55906 -5.6819,12.73294 -5.68606,-11.77476 -14.98634,-11.93435 -23.45557,-9.10088 -8.61603,2.88253 -2.67629,9.47571 2.50795,22.89354 l -17.53843,7.41257 c 0.54558,0.40005 -13.05872,4.10842 -25.67149,8.93013 -0.0469,-0.0596 -0.0938,-0.11789 -0.14109,-0.17822 -0.91381,-1.17963 -1.62849,-2.25786 -2.25304,-3.30769 -0.28635,-0.48105 -0.56978,-0.98404 -0.83928,-1.51275 -0.87274,-1.71279 -1.4642,-3.42076 -1.74789,-5.21403 -0.15427,-0.97492 -0.19989,-1.86414 -0.18569,-2.62673 0.0279,-1.48817 0.23449,-2.71318 0.37887,-3.40428 -0.20092,0.65954 -0.55216,1.88303 -0.69818,3.37208 -0.0761,0.76868 -0.11662,1.67425 -0.0494,2.68618 0.12296,1.85336 0.58828,3.71065 1.45076,5.53093 0.26658,0.56231 0.558,1.09622 0.86653,1.59439 0.66321,1.07189 1.52125,2.17255 2.55498,3.27802 0.0127,0.0127 0.0215,0.0216 0.0317,0.0317 -1.37281,0.53075 -2.74575,1.0549 -4.06761,1.60935 -0.42477,-1.28978 -0.99366,-2.82865 -1.75042,-4.38223 -0.75055,-1.54077 -1.59223,-2.90458 -2.50795,-4.06026 -0.42566,-0.53733 -0.90076,-1.07416 -1.42605,-1.59933 -1.701,-1.69973 -3.66769,-3.02298 -5.81817,-4.00081 -1.17393,-0.53391 -2.28131,-0.91128 -3.24329,-1.19091 -1.86338,-0.54178 -3.52102,-0.75258 -4.42178,-0.85665 0.90722,0.17493 2.48665,0.53417 4.28323,1.19332 0.92091,0.33807 1.95882,0.79023 3.04022,1.39386 1.9895,1.11054 3.70672,2.49147 5.27348,4.1519 0.48359,0.51275 0.92953,1.02512 1.34683,1.53254 0.91052,1.10725 1.80519,2.32022 2.71089,3.77555 0.90989,1.46206 1.66551,2.91828 2.24808,4.1495 -1.87008,0.78896 -3.68719,1.58362 -5.35269,2.40642 -0.28901,-0.94513 -0.66118,-2.02994 -1.13641,-3.11945 -0.53493,-1.22653 -1.13476,-2.31337 -1.78744,-3.2334 -0.30347,-0.42769 -0.64319,-0.85449 -1.01764,-1.27254 -1.21233,-1.35317 -2.61417,-2.40541 -4.14683,-3.18384 -0.83675,-0.42503 -1.62444,-0.72571 -2.30996,-0.9483 -1.32806,-0.43124 -2.50972,-0.60046 -3.15176,-0.68336 0.64673,0.13931 1.77223,0.42591 3.05277,0.9507 0.65636,0.26911 1.3955,0.62861 2.1662,1.10915 1.41807,0.88403 2.64156,1.98342 3.75832,3.30528 0.34466,0.40817 0.66321,0.81659 0.96059,1.22057 0.64901,0.88137 1.2856,1.84703 1.93106,3.00562 0.57511,1.03208 1.06466,2.06163 1.45825,2.96593 -1.13171,0.56409 -2.2126,1.13248 -3.2012,1.70582 -0.38079,-0.91496 -0.80493,-1.72863 -1.26507,-2.42138 -0.22297,-0.33566 -0.47256,-0.66955 -0.74776,-0.99773 -0.89087,-1.062 -1.9213,-1.88949 -3.04757,-2.50047 -0.61491,-0.33351 -1.19471,-0.56814 -1.69846,-0.74282 -0.97593,-0.33845 -1.84309,-0.47218 -2.3149,-0.53721 0.47523,0.10902 1.30221,0.33592 2.24315,0.74776 0.48233,0.21118 1.0255,0.49437 1.59186,0.87148 1.04197,0.69388 1.94247,1.55471 2.76299,2.59212 0.25327,0.32032 0.48461,0.64103 0.70314,0.95805 0.46293,0.67145 0.91889,1.40628 1.37903,2.28029 -1.46928,0.87452 -2.69797,1.75487 -3.71611,2.63421 -0.0228,-0.0532 -0.0431,-0.10648 -0.0672,-0.16099 -0.53493,-1.22653 -1.13488,-2.31324 -1.78757,-3.23327 -0.30347,-0.42769 -0.64065,-0.85462 -1.0151,-1.27255 -1.21233,-1.35316 -2.61418,-2.40553 -4.14696,-3.18396 -0.83662,-0.42503 -1.62684,-0.72558 -2.31236,-0.94817 -1.32807,-0.43124 -2.50973,-0.60046 -3.15164,-0.68336 0.6466,0.13931 1.77223,0.42591 3.05264,0.9507 0.65636,0.26911 1.39804,0.63114 2.16874,1.11169 1.41807,0.88402 2.64156,1.98075 3.75831,3.30261 0.34467,0.40817 0.66068,0.81659 0.95806,1.22057 0.64901,0.88137 1.28814,1.84703 1.9336,3.00562 0.052,0.0925 0.0989,0.18469 0.14856,0.27735 -0.0634,0.0596 -0.1516,0.11915 -0.21295,0.17822 -0.37902,-0.17239 -0.76551,-0.34085 -1.16848,-0.50007 -1.24441,-0.49195 -2.43621,-0.84092 -3.54789,-1.03246 -0.51668,-0.0887 -1.05883,-0.15363 -1.61911,-0.1857 -1.81394,-0.10395 -3.55132,0.14134 -5.18678,0.67094 -0.8929,0.28901 -1.66449,0.63241 -2.30742,0.95818 -1.24555,0.63139 -2.20246,1.34632 -2.71596,1.74042 0.5566,-0.35746 1.55699,-0.95159 2.83474,-1.48297 0.65509,-0.27228 1.43454,-0.53708 2.31984,-0.74028 1.62861,-0.37369 3.27219,-0.45849 4.99613,-0.30942 0.53226,0.0469 1.04412,0.11155 1.54001,0.18811 1.08164,0.16669 2.21589,0.39917 3.49085,0.765 0.33528,0.0963 0.6627,0.20003 0.98531,0.30461 -1.14097,1.21132 -1.77946,2.4125 -1.67856,3.57996 0.0621,0.71353 0.47408,1.54267 1.0374,2.41884 -0.25136,0.019 -0.49753,0.0444 -0.73787,0.0748 -0.52022,0.0659 -1.05908,0.1639 -1.60428,0.29712 -1.76475,0.43175 -3.35192,1.1714 -4.76099,2.15632 -0.76918,0.53759 -1.40666,1.0923 -1.92612,1.59199 -1.00635,0.96819 -1.71139,1.92891 -2.08711,2.45598 0.42769,-0.50464 1.20892,-1.36356 2.27522,-2.24556 0.54685,-0.4519 1.21589,-0.93296 2.00294,-1.38638 1.44811,-0.83383 2.99205,-1.39601 4.68418,-1.75791 0.5225,-0.11155 1.03347,-0.19813 1.53012,-0.26975 0.38205,-0.0558 0.77717,-0.10267 1.1809,-0.14362 0.77501,1.0241 1.73116,2.10169 3.0155,3.27055 -0.648,0.20484 -1.79772,0.56991 -2.97836,1.22792 -0.71468,0.39828 -1.35025,0.85373 -1.89152,1.35672 -0.25162,0.23374 -0.5026,0.49804 -0.75017,0.78984 -0.80112,0.94487 -1.43543,2.05124 -1.9137,3.27295 -0.26125,0.66702 -0.44987,1.2993 -0.59171,1.84944 -0.27495,1.0658 -0.39473,2.01865 -0.45558,2.53761 0.0938,-0.52111 0.279,-1.42669 0.60655,-2.45104 0.16796,-0.52504 0.39169,-1.11371 0.68336,-1.72559 0.53645,-1.12537 1.19168,-2.08812 1.97315,-2.95605 0.24136,-0.26771 0.48245,-0.51337 0.72051,-0.74281 0.51896,-0.50108 1.08469,-0.99038 1.76273,-1.48043 1.10991,-0.8024 2.21095,-1.37561 2.84716,-1.66868 1.07607,0.97859 2.35102,2.00649 3.72105,3.05505 -0.85538,0.684 -1.87998,1.55675 -2.85705,2.56741 -0.93004,0.96211 -1.70569,1.93018 -2.30742,2.8843 -0.27989,0.44341 -0.54596,0.92053 -0.78984,1.42605 -0.78845,1.63686 -1.22869,3.33443 -1.36407,5.04811 -0.0735,0.93561 -0.0507,1.77946 0,2.49806 0.10775,1.39234 0.40373,2.54877 0.57194,3.17395 -0.11788,-0.65091 -0.28432,-1.80253 -0.28724,-3.18625 -0.001,-0.70947 0.0507,-1.5305 0.20054,-2.42631 0.27684,-1.64789 0.82521,-3.19753 1.62164,-4.73374 0.24617,-0.47421 0.50464,-0.92294 0.765,-1.35177 0.56738,-0.936 1.215,-1.89532 2.04008,-2.93374 0.8692,-1.09407 1.78377,-2.07735 2.55498,-2.85211 0.87516,0.66638 1.75956,1.33542 2.73333,2.02018 -0.47357,0.78465 -0.96046,1.65283 -1.41375,2.57488 -0.70504,1.43455 -1.24225,2.826 -1.5968,4.14189 -0.16517,0.61175 -0.30626,1.25645 -0.41349,1.92866 -0.34644,2.17635 -0.29738,4.30668 0.0811,6.35538 0.20687,1.11854 0.49031,2.09738 0.76994,2.91891 0.5419,1.59186 1.21247,2.84818 1.58451,3.52305 -0.32578,-0.7219 -0.85563,-2.01257 -1.28244,-3.6294 -0.21866,-0.82889 -0.41476,-1.80671 -0.52732,-2.9042 -0.207,-2.01879 -0.0913,-4.01412 0.29459,-6.0755 0.11916,-0.63621 0.25745,-1.24656 0.40602,-1.8346 0.32323,-1.28332 0.72595,-2.61836 1.29485,-4.10729 0.35962,-0.94119 0.74966,-1.84182 1.13146,-2.66399 0.53075,0.37039 1.1179,0.74776 1.67362,1.12157 -0.0291,0.0837 -0.0608,0.16492 -0.0887,0.24997 -0.42237,1.26976 -0.70454,2.47931 -0.83434,3.59987 -0.0608,0.52086 -0.0925,1.06542 -0.0938,1.62659 0,1.81685 0.33401,3.53851 0.95311,5.14216 0.33807,0.87553 0.72596,1.62658 1.08684,2.2505 0.69934,1.20866 1.46458,2.12349 1.88656,2.61443 -0.38763,-0.53594 -1.03524,-1.50186 -1.63646,-2.74816 -0.30803,-0.639 -0.61707,-1.40248 -0.86894,-2.27522 -0.46331,-1.60542 -0.63786,-3.23936 -0.58437,-4.96888 0.0165,-0.53404 0.052,-1.05059 0.10141,-1.5499 0.10648,-1.08938 0.27723,-2.23478 0.57194,-3.52799 0,-0.0241 0.0127,-0.0469 0.0177,-0.0723 1.1416,0.75993 2.37256,1.51454 3.59973,2.28017 -0.014,1.17469 0.019,2.28637 0.10394,3.31516 0.0558,0.67931 0.13563,1.38067 0.24515,2.09205 0.35531,2.3026 0.95565,4.37197 1.75044,6.20429 0.43377,1.00026 0.88035,1.82648 1.28243,2.50047 0.77907,1.30601 1.55243,2.22008 1.97569,2.70608 -0.40564,-0.55407 -1.09686,-1.57069 -1.80735,-2.95605 -0.36418,-0.71024 -0.75245,-1.57766 -1.11904,-2.60214 -0.67437,-1.88467 -1.1321,-3.8994 -1.431,-6.10769 -0.0925,-0.68197 -0.16517,-1.34708 -0.22538,-1.99546 -0.0824,-0.88669 -0.1478,-1.81622 -0.19305,-2.80761 0.91635,0.56649 1.87491,1.12423 2.82739,1.68844 0.62251,1.34747 1.42972,2.54966 2.39158,3.60481 0.63216,0.69364 1.26469,1.25493 1.82712,1.70582 1.08964,0.87325 2.1349,1.44823 2.70596,1.75284 -0.55547,-0.35899 -1.50845,-1.02423 -2.52025,-1.96821 -0.5187,-0.48397 -1.08317,-1.08507 -1.63407,-1.80735 -0.61542,-0.80683 -1.13412,-1.66208 -1.57702,-2.57475 13.8246,8.05092 30.50283,15.52458 38.86977,16.71144 12.43975,1.76476 37.28021,24.73626 44.33391,41.74179 1.8825,4.53827 7.0303,9.80186 14.1368,15.15191 -0.5063,11.48042 -1.5539,23.99192 -3.7755,26.21352 -4.2514,4.25129 -7.0433,11.90304 -11.1164,14.03781 -4.0729,2.13465 -9.3902,-0.13893 -11.2152,0.95071 -0.1911,0.11408 -0.3216,0.22994 -0.4185,0.34402 0.024,0.0254 0.054,0.0532 0.099,0.0773 0.2411,0.12891 4.3614,-0.40133 4.6099,0.29953 0.1077,0.30372 -3.4124,0.46331 -3.3992,0.765 0.024,0.54963 5.0018,0.16656 5.0654,0.45558 0.1192,0.54012 -3.0046,0.6229 -3.424,0.99037 0.4666,0.18964 0.9882,0.38776 1.6266,0.57676 0.1298,0.0127 0.2451,0.0127 0.2451,0.0127 -0.013,0.0165 -0.016,0.0304 -0.024,0.0469 2.4052,0.67956 5.7727,1.08444 8.9696,-0.44556 2.1676,-1.03753 5.0121,-1.98253 7.9275,-3.02057 -0.1704,0.44226 -0.3305,0.86412 -0.4283,1.15377 -1.9211,5.69369 -11.9682,11.53252 -16.5308,12.10662 -4.5626,0.5741 -6.8366,0.50425 -8.9276,0.88631 -0.3522,0.0646 -0.5724,0.18139 -0.7081,0.32438 4e-4,0.0647 0.034,0.13918 0.1535,0.20294 0.2411,0.12892 4.3589,-0.40132 4.6073,0.29954 0.1078,0.30372 -3.4123,0.46343 -3.3992,0.76512 0.024,0.54964 5.0019,0.16644 5.0655,0.45545 0.1284,0.58386 -3.5327,0.6319 -3.4711,1.08444 0.013,0.0482 0.037,0.0913 0.081,0.13119 1.5161,0.38459 3.8629,0.70783 7.1699,0.4135 6.4638,-0.57575 19.0484,-1.74613 24.2923,-5.37489 3.7928,-2.62458 16.1494,-25.65413 22.7426,-38.27819 17.5137,8.6254 37.6549,15.60039 54.0812,17.41471 18.5456,2.04845 41.4516,6.07587 62.7315,6.9817 -0.5888,1.82434 -1.1705,3.5299 -1.8471,4.71384 -2.0165,3.52888 0.051,2.49654 -3.1417,3.00067 -3.1928,0.50412 -7.228,0.8427 -11.9332,1.34683 -0.8363,0.09 -1.4213,0.26467 -1.8024,0.49018 -0.028,0.0773 -0.03,0.18469 0.1387,0.27481 0.241,0.12892 4.3613,-0.39878 4.6098,0.30207 0.1078,0.30372 -3.4149,0.46331 -3.4017,0.765 0.024,0.54963 5.0044,0.17151 5.0679,0.46052 0.1179,0.53848 -2.9841,0.61593 -3.419,0.98049 0.9573,0.1833 2.0782,0.28826 3.3447,0.25492 2.8027,-0.0735 8.8283,-1.4187 14.7979,-2.94616 -0.411,1.1814 -0.832,2.25861 -1.2998,3.07735 -2.0167,3.52901 -2.806,3.84591 -5.999,4.35004 -3.1928,0.50412 -7.2253,0.84017 -11.9308,1.34429 -0.7934,0.0849 -1.3552,0.25162 -1.738,0.46052 0.014,0.0532 0.056,0.10901 0.1486,0.15845 0.2412,0.12892 4.3614,-0.39879 4.61,0.30207 0.1077,0.30372 -3.415,0.46331 -3.4017,0.765 0.024,0.54963 5.0043,0.16656 5.0678,0.45558 0.1286,0.58385 -3.5325,0.63177 -3.471,1.0843 0,0.0215 0.013,0.0418 0.023,0.0621 0.9474,0.17809 2.0543,0.27532 3.3002,0.24262 6.3858,-0.16796 32.3803,-8.21838 33.3885,-8.89059 1.0083,-0.67221 4.979,-3.03084 5.1471,-4.71143 0.1455,-1.45419 16.4552,-12.93601 21.0541,-16.14951 9.7954,-5.74123 16.2787,-15.16421 17.4742,-29.95207 1.7147,-3.80509 3.4508,-8.19708 4.959,-13.196 2.1084,-6.98867 3.8198,-15.20477 4.2361,-24.12654 0.4169,-7.53666 0.2635,-14.06519 -0.3789,-19.78398 -0.6366,-5.66834 -1.7484,-10.48726 -3.221,-14.67897 -1.4795,-4.21174 -3.2942,-7.70475 -5.2684,-10.7276 -1.996,-3.05606 -4.1434,-5.61218 -6.1772,-7.86307 -2.1145,-2.34024 -4.133,-4.393 -5.9443,-6.42712 -1.9243,-2.16114 -3.5882,-4.2575 -5.0283,-6.61778 -1.5585,-2.55409 -2.8084,-5.34725 -3.731,-8.5984 -0.4468,-1.57411 -0.8097,-3.23569 -1.0918,-4.99119 -0.363,-2.2576 -0.6103,-4.74299 -0.7156,-7.49673 -0.3949,-10.36595 0.8317,-18.30951 2.6417,-24.38158 1.9826,-6.65111 4.7516,-11.33098 7.2071,-14.56742 2.7066,-3.56792 5.4106,-5.85721 7.0163,-7.12292 0.1567,-0.12295 0.3095,-0.24147 0.458,-0.35645 2.6207,-2.02879 3.3142,-2.64155 3.2582,-2.82244 -0.013,-0.033 -0.226,-0.216 -0.8839,-0.19065 z m -265.92672,63.65002 a 4.7600958,5.8874867 0 0 1 4.76099,5.88738 4.7600958,5.8874867 0 0 1 -4.76099,5.88751 4.7600958,5.8874867 0 0 1 -4.71142,-5.04823 2.2365494,2.3694138 0 0 0 1.94108,1.2008 2.2365494,2.3694138 0 0 0 2.23554,-2.36927 2.2365494,2.3694138 0 0 0 -2.23554,-2.36941 2.2365494,2.3694138 0 0 0 -1.75538,0.91116 4.7600958,5.8874867 0 0 1 4.52572,-4.09994 z"
         inkscape:export-filename="..\..\BIOL-4311\Seminar\Seminar-Images\My-Rat.svg"
         inkscape:export-xdpi="96"
         inkscape:export-ydpi="96" /></g></g><style
     type="text/css"
     id="style3" /><style
     type="text/css"
     id="style2">&#10;	.st0{display:none;}&#10;	.st1{display:inline;}&#10;</style></svg>
