<?xml version="1.0" encoding="UTF-8" standalone="no"?>
<!-- Created with Inkscape (http://www.inkscape.org/) -->

<svg
   width="1280"
   height="640"
   viewBox="0 0 1280 640"
   version="1.1"
   id="svg5"
   inkscape:version="1.3 (0e150ed6c4, 2023-07-21)"
   sodipodi:docname="Github-honours-thesis-cover-image.svg"
   xmlns:inkscape="http://www.inkscape.org/namespaces/inkscape"
   xmlns:sodipodi="http://sodipodi.sourceforge.net/DTD/sodipodi-0.dtd"
   xmlns="http://www.w3.org/2000/svg"
   xmlns:svg="http://www.w3.org/2000/svg">
  <sodipodi:namedview
     id="namedview7"
     pagecolor="#ffffff"
     bordercolor="#e0e0e0"
     borderopacity="1"
     inkscape:pageshadow="2"
     inkscape:pageopacity="0.0"
     inkscape:pagecheckerboard="false"
     inkscape:document-units="px"
     showgrid="false"
     units="px"
     showborder="true"
     inkscape:showpageshadow="true"
     inkscape:deskcolor="#ffffff"
     inkscape:zoom="0.43923611"
     inkscape:cx="920.917"
     inkscape:cy="583.96838"
     inkscape:window-width="1920"
     inkscape:window-height="991"
     inkscape:window-x="-9"
     inkscape:window-y="-9"
     inkscape:window-maximized="1"
     inkscape:current-layer="layer1" />
  <defs
     id="defs2" />
  <g
     inkscape:label="Layer 1"
     inkscape:groupmode="layer"
     id="layer1"
     transform="translate(-230,-281.00004)">
    <g
       id="g42"
       inkscape:export-filename="..\..\..\Downloads\github-cover-image-honours-thesis-big.png"
       inkscape:export-xdpi="96"
       inkscape:export-ydpi="96"
       transform="translate(182.59164,-1274.4819)">
      <path
         style="fill:#0093fb;fill-opacity:1;stroke:none;stroke-width:0.242585"
         d="m 196.65596,1886.0897 c -0.0735,-1.7432 -0.11195,-3.3453 -0.0856,-3.5603 0.0912,-0.7435 14.58787,6.7232 28.71925,7.0615 7.21738,0.1728 14.62456,0.271 16.46041,0.2183 6.76921,-0.1943 11.6924,-0.8979 15.27342,-2.1827 7.51261,-2.6955 8.02072,-6.0439 3.80394,-25.0681 -3.31751,-14.9672 -3.1359,-20.857 0.80741,-26.1845 3.35849,-4.5373 7.68219,-7.0131 20.29335,-11.6202 14.13398,-5.1633 17.86072,-7.564 22.2316,-14.321 1.90233,-2.9409 4.18371,-7.9582 5.69531,-12.5275 1.05196,-3.1791 1.44213,-4.0375 1.75957,-3.8709 0.71178,0.3735 0.68407,-0.9758 -0.14591,-7.1032 -1.15492,-8.5265 -1.5538,-12.4792 -1.86166,-18.4486 -0.13513,-2.6204 -0.63448,-9.5119 -1.10966,-15.3143 -0.47517,-5.8025 -0.8214,-10.6311 -0.76935,-10.7302 0.0521,-0.099 0.78096,0.098 1.61991,0.437 0.83894,0.3394 2.43991,0.9596 3.55771,1.3782 l 2.03239,0.761 0.93581,-2.1398 c 5.17122,-11.824 9.89231,-23.3735 14.07101,-34.423 7.82725,-20.697 12.26726,-29.9544 18.58054,-38.7401 2.33967,-3.2559 9.93434,-12.6022 10.64734,-13.1029 0.52368,-0.3678 1.63317,-1.631 3.50429,-3.9897 0.21095,-0.2659 0.77876,-0.9542 1.26172,-1.5295 0.94157,-1.1215 3.80739,-6.3238 3.69052,-6.6993 -0.0388,-0.1245 -1.56301,-0.1887 -3.38728,-0.1428 -1.82431,0.046 -7.40122,-0.089 -12.39317,-0.2994 -8.48567,-0.358 -16.58563,-0.4437 -18.11843,-0.1917 l -0.66681,0.1096 -0.002,1.8781 c -0.007,6.6033 -2.84054,15.6193 -7.52932,23.9543 -4.75381,8.4506 -8.76177,12.0065 -15.19505,13.4813 -2.34203,0.5369 -8.69973,2.3848 -8.64407,2.5123 0.0163,0.037 0.47302,0.7992 1.01486,1.6929 1.66175,2.7406 2.94427,5.6944 4.40662,10.1488 2.07192,6.3111 2.27389,8.4463 1.22541,12.9547 -1.24969,5.3739 -7.29259,19.6148 -10.33071,24.3457 -3.06128,4.7669 -7.52705,8.0423 -14.2114,10.4232 l -2.09838,0.7474 0.34328,1.4121 c 0.89781,3.6934 1.14593,8.4972 0.95279,18.4469 -0.22486,11.583 -0.76894,14.8414 -3.28059,19.6476 -2.3704,4.535 -4.68268,6.7026 -9.53734,8.9385 -6.77983,3.1226 -24.34503,5.406 -31.33715,4.0736 -3.0343,-0.5781 -6.13757,-1.7283 -9.90733,-3.6718 -2.53984,-1.3095 -3.63641,-1.9718 -3.72315,-2.2487 -0.0916,-0.2928 0.13369,-0.7538 0.88504,-1.811 0.5544,-0.7801 0.96809,-1.4858 0.9193,-1.5683 -0.15083,-0.2552 -4.73787,-2.9879 -4.80397,-2.862 -0.17509,0.3337 -2.34892,11.7234 -3.21517,16.8461 -0.62103,3.6724 -1.13479,6.0278 -1.3729,6.2943 -0.85172,0.9532 -5.95072,1.7084 -12.13997,1.7982 -3.35882,0.049 -3.60654,0.094 -4.6722,0.8546 -1.73137,1.2359 -6.26103,3.7907 -9.15253,5.1624 -4.80956,2.2815 -15.69796,5.2835 -20.27062,5.5888 -4.32621,0.2888 -9.61371,-0.6921 -14.48014,-2.6863 -8.20741,-3.3634 -18.12707,-10.0696 -24.60614,-16.635 l -0.83752,-0.8487 -2.63773,0.4485 c -4.49326,0.7641 -7.4539,0.2619 -10.89423,-1.8481 -3.35824,-2.0596 -5.75018,-4.4905 -9.56946,-9.725 -6.27615,-8.6018 -11.383853,-20.9206 -12.928483,-31.1811 -0.57169,-3.7974 -0.57421,-3.8352 -0.48523,-7.2992 0.0667,-2.603 0.3464,-5.1902 0.82026,-7.5899 0.4049,-2.0507 1.5108,-6.5288 1.85674,-7.5185 0.178,-0.5092 0.38545,-1.1401 0.46109,-1.4018 0.49602,-1.7175 1.71567,-4.9916 3.457323,-9.281 1.18263,-2.9125 3.73437,-8.1515 7.01414,-14.4005 3.0834,-5.8748 3.87646,-7.2383 5.00555,-8.6055 1.86501,-2.2584 5.56024,-6.0103 7.231,-7.3418 0.35923,-0.2863 0.72483,-0.6492 0.81247,-0.8065 0.0901,-0.1559 0.54899,-0.5745 1.02532,-0.9272 0.47625,-0.3528 0.93335,-0.7618 1.0157,-0.909 0.0848,-0.1459 0.33439,-0.3847 0.56012,-0.5279 0.6824,-0.4329 5.47469,-5.1951 6.08644,-6.0482 l 0.57095,-0.7962 -2.06839,-5.3732 c -5.96283,-15.4902 -6.83614,-22.9729 -3.38399,-28.9947 0.59744,-1.0426 1.3106,-2.086 1.58438,-2.3191 1.91214,-1.627 1.90772,-1.6145 1.79125,-5.0172 -0.15802,-4.6181 0.52877,-8.9376 2.08088,-13.0871 0.94255,-2.52 4.63509,-9.1657 6.06476,-10.9152 0.21194,-0.2594 0.644,-0.834 0.95998,-1.2769 0.59562,-0.8349 2.1447,-2.5277 2.93619,-3.2088 0.24989,-0.2149 0.53304,-0.5408 0.62926,-0.7241 0.0962,-0.1834 0.51498,-0.605 0.93066,-0.937 0.41561,-0.332 0.93099,-0.7582 1.14535,-0.9471 0.90586,-0.7985 1.63424,-1.3845 2.26697,-1.8238 0.37072,-0.2575 1.06826,-0.7544 1.55006,-1.1042 0.84876,-0.6165 3.00843,-1.8415 3.38671,-1.9211 0.1025,-0.022 0.97443,-0.3974 1.93764,-0.8354 l 1.75141,-0.7961 0.2046,-1.0539 c 0.11248,-0.5797 0.25711,-1.3346 0.32139,-1.6775 0.0644,-0.343 0.22479,-1.1217 0.35665,-1.7306 0.1319,-0.6088 0.32246,-1.5567 0.42357,-2.1064 0.1011,-0.5497 0.25689,-1.3925 0.34623,-1.873 0.0894,-0.4805 0.24725,-1.1374 0.35073,-1.4598 0.10334,-0.3224 0.47929,-1.6389 0.83518,-2.9256 0.35588,-1.2867 0.76621,-2.7357 0.91182,-3.22 0.30739,-1.0221 2.95719,-6.1203 3.38118,-6.505 0.15778,-0.1432 0.5166,-0.5096 0.79735,-0.8143 2.31517,-2.5121 8.31518,-2.6832 14.88291,-0.4245 0.4467,0.1537 1.36349,0.4562 2.03715,0.6723 2.4517,0.7864 8.10006,3.3771 10.54955,4.8387 4.60539,2.748 7.47971,5.8177 8.05292,8.6004 0.62161,3.0178 -0.008,6.0869 -2.04691,9.9707 -3.05724,5.825 -9.08068,10.8434 -15.72585,13.1017 l -1.95501,0.6644 -0.25397,2.4227 c -0.63539,6.0604 -0.10646,10.6552 1.72233,14.9621 1.55665,3.6659 7.03993,13.6991 7.66645,14.0279 0.41276,0.2167 4.40538,-0.4202 7.21871,-1.1513 3.10467,-0.8069 9.93511,-3.1607 13.38191,-4.6115 3.01333,-1.2683 6.79526,-3.2961 7.04901,-3.7794 0.0805,-0.1536 0.44265,-0.4862 0.80451,-0.7392 1.39755,-0.9773 2.82009,-3.1001 4.95215,-7.39 1.12838,-2.2708 2.16391,-4.4395 2.30083,-4.8197 0.13694,-0.3802 0.59062,-1.4982 1.00813,-2.4845 1.03937,-2.4557 1.95838,-4.9325 3.74395,-10.0895 1.43187,-4.1357 3.30191,-8.0914 4.2446,-8.9787 1.26536,-1.1912 1.94118,-1.136 5.54452,0.4528 2.21946,0.9786 4.22291,2.0462 6.6886,3.5642 4.30766,2.652 9.40601,5.9674 11.13175,7.239 0.7063,0.5204 1.74004,1.2521 2.29716,1.6261 1.46697,0.9847 1.98341,1.4186 2.88122,2.4209 1.07791,1.2034 1.08546,1.6496 0.0462,2.7466 -0.45687,0.4822 -1.18083,1.3565 -1.60882,1.9428 -0.56518,0.7744 -1.04849,1.1579 -1.76645,1.4016 -0.6051,0.2055 -1.30123,0.7025 -1.79527,1.2819 -0.44383,0.5204 -2.57785,4.0852 -4.74219,7.9218 -2.16442,3.8365 -4.40067,7.6509 -4.96947,8.4765 -0.56881,0.8256 -1.02808,1.5879 -1.02059,1.6942 0.0443,0.6321 4.68333,7.2829 7.8851,11.3048 2.14124,2.6898 7.21125,8.3719 7.69801,8.6273 0.22163,0.1164 0.85877,-0.9826 3.1359,-5.4087 2.11977,-4.1206 3.03739,-5.7212 3.55373,-6.1991 0.66783,-0.6182 0.74831,-0.6237 1.98927,-0.1362 6.40486,2.516 9.52087,2.9402 15.7306,2.1417 6.36232,-0.8181 7.87934,-0.9461 10.56013,-0.8914 0.89924,0.018 1.0631,-0.078 1.72906,-1.0148 0.4046,-0.5694 0.8705,-1.206 1.03527,-1.4149 0.16486,-0.2088 0.56142,-0.7378 0.8814,-1.1754 0.32,-0.4376 0.63827,-0.8303 0.70723,-0.8726 0.0689,-0.042 0.41198,-0.4814 0.76231,-0.9756 0.35028,-0.4942 0.89354,-1.1668 1.2072,-1.4947 0.31363,-0.3279 0.59442,-0.6448 0.624,-0.7044 0.0287,-0.06 0.24969,-0.3424 0.48917,-0.6286 0.23952,-0.2861 0.57378,-0.6943 0.74283,-0.9069 0.16903,-0.2126 0.92142,-1.0242 1.67188,-1.8034 0.80608,-0.837 1.32064,-1.5287 1.25735,-1.69 -0.0588,-0.1503 -1.58737,-1.6331 -3.39653,-3.2952 -1.80916,-1.6621 -5.0329,-4.7983 -7.16387,-6.9693 -2.13096,-2.171 -4.46797,-4.4608 -5.19336,-5.0883 -1.77629,-1.5368 -7.16483,-4.3544 -10.26258,-5.3661 -3.43303,-1.1213 -4.1351,-1.5484 -4.38033,-2.6651 -0.38038,-1.732 0.18441,-4.6153 1.97149,-10.0652 1.78342,-5.4387 2.9157,-8.1457 5.40325,-12.9172 3.4647,-6.6462 4.2053,-7.161 7.95597,-5.5314 11.41502,4.9597 20.68157,5.6374 31.49768,2.3035 3.50978,-1.0819 5.51043,-2.1996 6.60802,-3.6919 0.7982,-1.0852 2.23309,-2.5637 3.01455,-3.1061 0.35694,-0.2477 0.69629,-0.5391 0.75412,-0.6476 0.34842,-0.6526 7.58768,-5.1499 8.50526,-5.2835 0.11242,-0.016 0.69126,-0.2673 1.2864,-0.5577 0.59511,-0.2903 1.78421,-0.7758 2.64245,-1.0788 0.85821,-0.3029 2.17263,-0.7843 2.92097,-1.0696 3.0661,-1.1689 13.26149,-4.2034 16.15543,-4.8082 1.55136,-0.3243 3.91274,-0.8578 4.19852,-0.9486 0.0905,-0.029 0.70209,-0.1371 1.35927,-0.2408 1.28604,-0.2031 2.12268,-0.3634 2.69934,-0.5175 0.19949,-0.053 1.26789,-0.2512 2.37418,-0.4399 2.55244,-0.4353 6.13856,-1.1174 7.57261,-1.4402 0.60937,-0.1372 1.70689,-0.3666 2.43892,-0.5098 0.73206,-0.1432 1.56322,-0.3234 1.84705,-0.4004 0.28382,-0.077 1.19622,-0.2712 2.0275,-0.4314 0.8313,-0.1601 1.79215,-0.3562 2.13519,-0.4356 3.57903,-0.8286 9.32629,-1.8749 9.81854,-1.7873 0.2672,0.048 0.73478,0.3927 1.03987,0.7656 0.54035,0.6624 1.77521,3.5707 2.12248,4.9987 0.25746,1.0587 1.85461,4.9754 2.61067,6.402 0.36292,0.6849 1.35248,1.9705 2.19904,2.8571 0.84652,0.8865 1.7683,1.9155 2.04838,2.2865 0.28009,0.371 0.59829,0.7213 0.70716,0.7785 0.38403,0.2015 1.88348,2.6215 2.31679,3.739 0.38499,0.993 0.37514,1.3088 -0.0805,2.575 -1.23816,3.441 -5.03622,5.6927 -10.38273,6.1554 -1.00659,0.087 -1.93895,0.1881 -2.07194,0.2243 -0.38095,0.1038 -0.83063,3.5286 -0.92931,7.0777 -0.0497,1.7857 0.13326,5.2104 0.40651,7.6105 1.37009,12.0352 1.52578,15.6893 0.91335,21.4357 -0.79565,7.4656 -2.99668,15.8449 -5.94584,22.6358 -2.10625,4.8499 -4.96439,9.2614 -9.89252,15.2687 -0.91913,1.1205 -1.38184,1.8324 -1.2679,1.9509 0.11087,0.1153 -1.1498,1.8905 -3.30069,4.6477 -5.96793,7.6502 -6.4164,8.3186 -9.37456,13.9698 -3.15895,6.0356 -4.80951,9.9296 -9.54346,22.5198 -5.40506,14.375 -7.73743,20.1123 -11.7508,28.9053 -0.58257,1.2764 -1.34796,2.9706 -1.7008,3.7648 -1.02754,2.3129 -2.81868,6.2982 -2.96395,6.5949 -0.15804,0.3226 0.38934,0.6219 2.70199,1.4774 1.69951,0.6287 4.05109,2.2039 3.85313,2.5811 -0.0461,0.088 -0.62698,0.5994 -1.29055,1.1362 -0.6636,0.5369 -1.39063,1.1261 -1.61569,1.3094 -0.22499,0.1833 -1.70273,1.4419 -3.28375,2.797 -1.58106,1.355 -3.24456,2.7627 -3.6967,3.1281 -0.45216,0.3655 -2.01831,1.7009 -3.48036,2.9678 -1.46202,1.2669 -4.2633,3.6184 -6.22505,5.2257 -1.96178,1.6073 -4.64715,3.9581 -5.96752,5.224 -2.15062,2.0619 -11.09326,11.5074 -11.34026,11.978 -0.0544,0.1038 0.25197,0.4559 0.68093,0.7825 0.89674,0.6827 0.88751,0.7945 -0.37951,4.596 -1.52701,4.5815 -2.41951,6.6865 -4.56075,10.7566 -2.42454,4.6083 -3.51802,6.1873 -6.26167,9.0402 -4.17287,4.339 -8.72059,6.769 -20.7166,11.0696 -9.2641,3.3212 -12.48666,4.7839 -15.46143,7.0177 -2.22424,1.6703 -3.38767,3.258 -3.87353,5.2863 -0.96551,4.0308 -0.62459,6.6062 3.03334,22.9137 0.44582,1.9875 1.00548,4.83 1.24369,6.3167 2.56255,15.9929 -3.14872,22.3415 -21.71726,24.1407 -5.79426,0.5614 -10.5387,0.6197 -23.57641,0.2901 -7.75991,-0.1963 -18.32377,-7.9852 -21.54927,-7.8057 -2.90518,0.1617 -5.44681,0.2746 -5.64808,0.251 -0.25477,-0.03 -0.40653,-1.0062 -0.49947,-3.2124 z m -72.48785,-88.6351 c 0.64398,0.1245 1.50705,0.1938 1.91794,0.1539 l 0.74711,-0.072 -0.90866,-1.3414 c -2.11474,-3.1219 -3.50187,-6.4389 -4.05415,-9.6947 -0.83868,-4.9436 -0.25815,-13.3874 1.52703,-22.2117 0.2067,-1.0216 0.42308,-2.1409 0.48082,-2.4873 0.0578,-0.3464 0.25143,-1.2927 0.43028,-2.1029 0.1788,-0.8102 0.39029,-1.8088 0.46993,-2.219 0.19806,-1.0206 0.57115,-2.5722 0.78964,-3.2841 0.0994,-0.3245 0.36501,-1.2947 0.58979,-2.1562 0.22479,-0.8615 0.54393,-1.9576 0.70922,-2.4359 0.48638,-1.4078 0.85783,-2.5239 1.01873,-3.0616 0.67883,-2.2684 4.17125,-9.3215 5.61243,-11.3344 1.099,-1.5352 3.17539,-3.641 4.61917,-4.6847 l 1.30621,-0.9443 -0.46723,-1.629 c -1.05504,-3.6784 -1.70388,-7.9507 -2.61079,-17.1906 -0.69905,-7.1222 -1.35868,-11.2644 -2.33705,-14.6762 l -0.72242,-2.5193 -2.78424,2.5931 c -1.53134,1.4262 -3.57866,3.2857 -4.54945,4.1323 -2.80095,2.4425 -6.20619,5.8456 -7.72895,7.7241 -2.45269,3.0258 -9.17364,16.4536 -12.33814,24.6505 -3.53338,9.1525 -5.2464,17.3341 -4.87815,23.2986 0.31946,5.1728 2.5436,13.1583 5.61726,20.168 2.46532,5.6224 6.70322,12.676 9.53903,15.8769 2.38924,2.6968 5.80776,5.0236 8.00463,5.4484 z m 28.9436,11.7258 c 4.11144,-0.1496 7.73923,-1.2542 12.08421,-3.6794 2.62734,-1.4664 5.08793,-3.2376 11.85428,-8.5327 2.99657,-2.3449 6.46539,-5.0242 7.70853,-5.9539 1.24315,-0.9297 2.46283,-1.8685 2.71043,-2.0862 0.32066,-0.2819 0.86585,-1.8649 1.89494,-5.5026 2.45639,-8.6827 3.28573,-13.7262 2.88898,-17.5695 -0.22589,-2.1887 0.0795,-2.8182 1.45796,-3.0061 0.94525,-0.1289 6.37802,0 7.57771,0.1763 l 0.83475,0.1243 -0.4822,-1.878 c -0.26519,-1.0329 -0.99862,-3.9162 -1.62983,-6.4072 -3.35042,-13.2224 -5.26329,-17.5146 -8.71461,-19.5543 -3.42545,-2.0245 -7.50419,-1.7795 -18.16511,1.0912 -4.06864,1.0956 -3.95471,0.8642 -1.45642,2.9573 4.77239,3.9982 6.66095,7.818 7.31307,14.7913 0.66394,7.0995 0.56875,9.1651 -0.64076,13.91 -0.64429,2.5277 -0.82687,2.9423 -3.72325,8.4566 -3.48398,6.638 -4.50243,8.0827 -8.15915,11.6077 -3.63956,3.5085 -13.0448,10.0228 -14.17944,9.821 -0.42387,-0.074 -3.23953,-2.1096 -4.29827,-3.1053 -0.3348,-0.3149 -0.59934,-0.247 -1.64772,0.4229 l -1.24887,0.7979 0.05,1.5445 c 0.13534,4.1798 1.37031,8.0534 3.23715,10.1535 0.9419,1.0596 2.42482,1.5046 4.7335,1.4206 z m -4.53829,-29.8292 c 4.23181,-4.0417 7.7003,-8.5038 10.85225,-13.9614 3.7346,-6.4661 5.23084,-12.0738 4.69951,-17.6126 -0.20606,-2.1478 -0.87046,-4.3153 -1.34655,-4.3929 -0.53079,-0.086 -3.57691,2.3324 -4.76772,3.7861 -2.43761,2.9756 -4.15328,6.9166 -7.30957,16.7911 -2.50476,7.8361 -4.95269,17.2632 -4.5391,17.4803 0.0789,0.041 1.1639,-0.8994 2.41118,-2.0906 z m 83.47038,4.4266 c 0.54357,-0.5435 1.3172,-1.2162 1.71922,-1.4949 l 0.73091,-0.5068 2.63222,1.3658 c 6.10184,3.1661 8.92706,3.7266 14.32317,2.8424 3.35445,-0.5497 9.69726,-2.4292 12.20358,-3.6161 2.33429,-1.1055 5.68952,-3.3634 7.15898,-4.8177 0.54718,-0.5416 1.11671,-1.044 1.26559,-1.1166 0.56405,-0.2748 2.13424,-1.9724 3.18429,-3.4427 1.35605,-1.8988 2.58399,-4.9936 2.35036,-5.924 -0.44589,-1.7761 -2.9674,-3.6506 -9.62949,-7.1586 -2.25539,-1.1877 -5.2495,-2.8822 -6.65354,-3.7657 -1.40401,-0.8835 -5.13224,-3.1513 -8.28497,-5.0396 -3.15269,-1.8882 -6.49834,-3.9625 -7.43474,-4.6096 l -1.70257,-1.1764 -2.01491,-0.092 c -3.89166,-0.1786 -6.71994,-1.2617 -7.49506,-2.8703 -0.54665,-1.1343 -0.66095,-2.8221 -0.35195,-5.1966 0.80928,-6.2191 3.63903,-14.7436 6.10888,-18.4028 1.5915,-2.3579 2.61211,-2.6297 6.42699,-1.7114 1.24969,0.3008 2.9904,0.5878 3.86841,0.6369 0.87783,0.05 2.32387,0.231 3.21343,0.4023 1.72862,0.3328 4.86799,1.0215 5.04638,1.1071 0.0594,0.028 0.4021,0.133 0.76174,0.2325 0.35967,0.1 0.86794,0.243 1.12948,0.3188 1.88732,0.5475 7.38737,1.7577 8.84178,1.9454 0.56447,0.073 1.42559,0.194 1.91357,0.269 0.48802,0.075 1.18225,0.1616 1.54278,0.1924 0.36054,0.031 0.88758,0.084 1.1712,0.1174 4.80567,0.573 11.58709,-0.3581 15.31334,-2.1027 0.59453,-0.2784 4.22444,-2.2802 5.00029,-2.7576 0.32673,-0.201 -1.17214,-3.1992 -4.24534,-8.4919 -4.51555,-7.7768 -5.65774,-8.9629 -11.6272,-12.0741 -2.18919,-1.1402 -6.7277,-3.2982 -10.08632,-4.7941 -8.21218,-3.6577 -10.58774,-5.1349 -11.79884,-7.3368 -0.69454,-1.2627 -0.62575,-2.6826 0.26266,-5.4238 0.39648,-1.2234 0.7125,-2.2454 0.70226,-2.2713 -0.0102,-0.026 -1.03552,-1.0458 -2.27828,-2.2666 -4.66289,-4.5804 -10.31095,-11.4367 -14.04036,-17.0438 -0.79168,-1.1903 -1.49816,-2.1933 -1.56987,-2.2289 -0.0722,-0.035 -1.00175,0.6784 -2.06662,1.5865 -7.43337,6.339 -17.16829,9.9964 -28.97306,10.8852 -6.12419,0.4611 -10.34997,-0.027 -15.05413,-1.7377 -3.45491,-1.2567 -23.89982,-11.49 -27.2754,-13.6523 -2.7342,-1.7514 -5.57292,-4.5743 -7.59907,-7.5567 -0.77855,-1.146 -1.50848,-2.1324 -1.62202,-2.1919 -0.11352,-0.06 -0.79871,0.1664 -1.52258,0.5022 -0.72387,0.3358 -3.6443,1.416 -6.48991,2.4004 l -5.1738,1.7899 0.4759,2.165 c 0.26171,1.1907 0.43118,2.25 0.3766,2.354 -0.17135,0.3265 -1.0317,0.8417 -2.68174,1.6059 -0.96871,0.4487 -1.587,0.8769 -1.57532,1.091 0.0106,0.1938 0.27201,2.0371 0.58089,4.0961 1.54452,10.2959 1.67525,15.6524 0.5038,20.6506 -0.4306,1.8373 -0.81732,2.7824 -2.36918,5.7908 l -1.85474,3.5951 1.2836,4.3247 c 1.56806,5.2833 2.0741,8.1957 3.11562,17.9321 0.92434,8.6417 1.39471,11.6777 2.30064,14.8496 l 0.64032,2.242 2.36618,0.1289 c 4.03673,0.2198 7.60871,1.251 12.80049,3.6958 l 3.28771,1.548 5.62643,-1.5555 c 8.88048,-2.455 12.97651,-3.2695 16.8722,-3.3549 8.27905,-0.1815 13.31114,4.0961 16.62612,14.1333 0.4285,1.2974 1.66561,5.783 2.74913,9.9681 1.08353,4.185 2.20834,8.3335 2.49959,9.2189 l 0.52949,1.6098 0.96976,0.1632 c 0.53341,0.09 2.25687,0.2949 3.83,0.4556 5.41322,0.5532 10.93353,1.9834 12.27221,3.1796 0.7113,0.6355 0.58616,2.2178 -0.63822,8.0713 -0.54986,2.6286 -0.96536,4.8869 -0.92336,5.0186 0.10944,0.3429 1.73709,1.3301 4.80081,2.9117 l 2.6653,1.3758 z m -97.08168,-103.4864 c 1.64417,-4.0545 1.68941,-9.7079 0.15926,-19.9159 -0.30031,-2.0035 -0.58714,-3.6643 -0.63738,-3.6907 -0.0504,-0.026 -0.997,0.1548 -2.10398,0.4026 -1.10698,0.2477 -2.09686,0.4063 -2.19987,0.3522 -0.10294,-0.054 -0.21978,-0.4343 -0.25959,-0.8449 -0.0977,-1.0068 -0.23807,-0.8952 -0.64347,0.5114 -0.91478,3.1741 -0.39953,7.8436 1.55846,14.1246 1.09833,3.5234 3.42051,9.9915 3.62582,10.0993 0.0362,0.019 0.26164,-0.4483 0.50061,-1.0386 z m 13.9268,-40.0588 c 2.60819,-0.9136 5.00799,-1.8415 5.33301,-2.0619 0.57779,-0.392 0.56819,-0.478 -0.43358,-3.8856 -0.56345,-1.9166 -1.15936,-4.51 -1.32422,-5.763 -0.16493,-1.253 -0.41332,-2.2428 -0.55207,-2.1996 -0.13875,0.043 -1.0829,0.7487 -2.09807,1.5676 -2.60226,2.0994 -4.74125,4.5948 -6.0691,7.0805 -1.15346,2.1601 -1.28747,3.0043 -0.97015,6.1268 0.13628,1.3406 -0.39669,1.416 6.11418,-0.8648 z m 156.62769,19.645 c 0.61302,0.02 1.21725,0.091 1.3427,0.1569 0.12545,0.066 0.44072,0.1224 0.70064,0.1257 0.25991,0 0.76507,0.036 1.12259,0.072 3.67905,0.3764 10.23197,0.2938 10.47296,-0.1321 0.16537,-0.2909 -2.62356,-3.7551 -5.1097,-6.3476 -1.29882,-1.3544 -2.41323,-2.4463 -2.47651,-2.4266 -0.4496,0.1401 -6.70269,7.303 -7.19617,8.2432 -0.13951,0.2658 -0.14201,0.2649 1.14347,0.308 z m 26.97649,-22.7746 c 0.63493,-0.09 1.33643,-0.1582 1.55892,-0.1514 0.22246,0.01 0.65985,0 0.97196,-0.025 0.31208,-0.02 1.51025,-0.072 2.66254,-0.1141 1.15231,-0.042 2.4137,-0.097 2.8031,-0.1208 0.38939,-0.024 3.44185,0.032 6.78326,0.1256 13.4511,0.3754 18.26309,0.3885 22.39103,0.061 0.31614,-0.025 0.45726,-0.3707 0.79059,-1.9364 1.1853,-5.5676 1.17916,-10.8551 -0.0197,-16.8809 -1.47171,-7.3976 -1.71345,-8.7579 -1.82934,-10.293 -0.0703,-0.9311 -0.18815,-1.7245 -0.26197,-1.7633 -0.18626,-0.098 -12.16275,4.0681 -14.28403,4.9685 -4.73385,2.0094 -6.97245,3.5713 -10.20603,7.1209 -0.88627,0.9729 -2.16042,2.2048 -2.83142,2.7375 -3.14062,2.4937 -8.37241,4.6374 -14.56164,5.9664 -1.84069,0.3953 -3.3636,0.751 -3.38431,0.7904 -0.0206,0.039 0.50225,0.6286 1.16213,1.3092 1.84391,1.9018 4.42371,4.9517 5.58833,6.6068 0.57785,0.8212 1.15447,1.5536 1.28139,1.6276 0.1267,0.074 0.7502,0.061 1.38513,-0.029 z"
         id="path18-7"
         sodipodi:nodetypes="ccsccsssscssssssscsssssssssscssssssssscsscsscssssscsssscscsccsccsccscsccccscscccccscsccccccccccsccsccccssccccssscccccsccssssssscsscscssccsssscsccccssscssscsscsssscssssscssssssscscsssssscssscssssscssssscsssssssssscssssscssssccsccscsccccscccccssscsccscsssscssssccsccscssssccscsscssccscsscscscscsssscscsssscsscsscscsscsscssscssssssccscssccsccsccssccscccscccssssccssssccccscscccscccscscccccsssccccscssssccsscssssssssscsscss" />
      <rect
         style="fill:#ededed;fill-opacity:1;stroke:none;stroke-width:2.33036;stroke-linecap:round;stroke-dasharray:none;paint-order:markers fill stroke"
         id="rect33-6"
         width="1279.9966"
         height="43.558472"
         x="47.408356"
         y="2151.9233"
         ry="0.038600877" />
      <g
         id="g39"
         transform="translate(-1.9921966,2.7679336)">
        <path
           id="path27531-5-6"
           style="fill:#ffe70f;fill-opacity:1;stroke:none;stroke-width:5.81123;stroke-linecap:round;paint-order:markers fill stroke;stop-color:#000000"
           d="m 49.400552,1773.6293 v 173.896 a 18.665108,18.665108 0 0 1 0.80898,-0.081 18.665108,18.665108 0 0 1 14.373127,5.8202 18.665108,18.665108 0 0 1 -0.732109,26.3871 18.665108,18.665108 0 0 1 -14.449998,4.9911 v 81.9943 c 18.919788,-5.9543 39.676478,-13.3016 61.288488,-22.1298 0.74527,-0.6936 1.3158,-1.3481 1.54475,-1.8943 0.63953,-1.5256 0.19948,-2.7399 -0.11164,-4.4531 -3.70853,-3.301 -5.94783,-7.9444 -6.22476,-12.9016 -0.53813,-10.2942 7.37145,-19.075 17.66579,-19.6132 9.57635,-0.4795 17.95687,6.3748 19.38807,15.8557 0.80828,1.7017 0.71532,2.7383 3.00897,4.065 1.59541,0.9229 4.20093,0.7465 6.76468,0.205 6.74866,-3.2667 13.51217,-6.6267 20.28308,-10.1909 35.39086,-18.6299 66.65242,-56.5131 64.44021,-95.306 -1.66581,-29.2123 -33.34439,-78.6114 -92.43605,-89.4344 -43.59186,-7.984 -74.56502,-35.1359 -95.611588,-57.2106 z m 125.864148,89.0445 a 18.665107,18.665107 0 0 1 18.66512,18.6652 18.665107,18.665107 0 0 1 -18.66512,18.6651 18.665107,18.665107 0 0 1 -18.66512,-18.6651 18.665107,18.665107 0 0 1 18.66512,-18.6652 z m -35.974,66.8654 a 18.665107,18.665107 0 0 1 18.66512,18.6651 18.665107,18.665107 0 0 1 -18.66512,18.6651 18.665107,18.665107 0 0 1 -18.66511,-18.6651 18.665107,18.665107 0 0 1 18.66511,-18.6651 z" />
        <path
           id="path27646-3"
           style="fill:#ffe70f;fill-opacity:1;stroke:none;stroke-width:5.81123;stroke-linecap:round;paint-order:markers fill stroke;stop-color:#000000"
           d="m 288.12115,1952.831 c -1.1945,0.017 -2.42992,0.1483 -3.70764,0.4147 -18.52011,5.9662 -29.53389,45.4829 -50.66935,65.8115 -32.87998,24.4158 -102.79116,62.9866 -168.502,86.6476 -8.002596,2.8815 -9.839793,6.3648 -15.841608,8.8209 v 78.1883 H 351.64205 c 0,0 -18.26374,-21.4616 -27.59502,-38.1282 -9.13965,-16.3245 -15.6215,-116.4081 -10.82476,-157.5608 0.12583,-0.9463 0.25196,-1.8919 0.40596,-2.7968 1.43604,-8.3094 0.39643,-26.2849 -5.08424,-31.2839 -5.65291,-4.7091 -12.06114,-10.2335 -20.42284,-10.1133 z"
           sodipodi:nodetypes="sccscccscccs" />
        <path
           style="font-variation-settings:normal;fill:#55b323;fill-opacity:1;stroke:none;stroke-width:0.578494;stroke-linecap:round;stroke-linejoin:miter;stroke-miterlimit:4;stroke-dasharray:none;stroke-dashoffset:0;stroke-opacity:1;paint-order:markers fill stroke;stop-color:#000000"
           d="m 106.31482,1806.4756 c 0,0 -7.05772,-7.2257 -11.46807,0.097 -4.41035,7.3225 -20.36956,26.5359 -15.03266,30.7106 5.33687,4.1746 10.22822,6.8383 11.26461,5.7115 1.0364,-1.1268 10.91936,-22.3808 14.88736,-26.5618 3.968,-4.181 0.34876,-9.9571 0.34876,-9.9571 z"
           id="path62270-3" />
        <path
           style="font-variation-settings:normal;fill:#55b323;fill-opacity:1;stroke:none;stroke-width:0.578494;stroke-linecap:round;stroke-linejoin:miter;stroke-miterlimit:4;stroke-dasharray:none;stroke-dashoffset:0;stroke-opacity:1;paint-order:markers fill stroke;stop-color:#000000"
           d="m 119.76558,1815.6434 c 0,0 9.89894,2.0082 6.14077,9.6859 -3.75817,7.6776 -11.23905,31.508 -17.64139,29.2899 -6.40234,-2.2181 -11.29368,-4.8817 -10.90947,-6.3637 0.38422,-1.4819 12.8759,-21.3153 14.23518,-26.9169 1.35929,-5.6016 8.17491,-5.6952 8.17491,-5.6952 z"
           id="path62272-2" />
        <path
           id="path141942-3"
           style="font-variation-settings:normal;fill:#55b323;fill-opacity:1;stroke:none;stroke-width:0.578495;stroke-linecap:round;stroke-linejoin:miter;stroke-miterlimit:4;stroke-dasharray:none;stroke-dashoffset:0;stroke-opacity:1;paint-order:markers fill stroke;stop-color:#000000"
           d="m 235.57133,2001.6399 c 0,0 -0.38621,0.1797 -0.27628,0.2917 -0.50544,0.3851 -2.70044,3.037 -2.81669,3.5454 -0.0189,-0.063 -0.11937,-0.046 -0.13469,0.014 -1.15611,2.1922 -1.4017,4.9282 1.96931,7.5476 6.74999,5.245 23.94273,23.364 28.71892,18.5579 4.7762,-4.8061 7.99877,-9.3492 7.00241,-10.5116 -0.99645,-1.1623 -20.93287,-13.487 -24.61559,-17.9215 -3.68269,-4.4342 -9.84764,-1.5236 -9.84764,-1.5236 z"
           sodipodi:nodetypes="ccccsssscc" />
        <path
           style="font-variation-settings:normal;fill:#55b323;fill-opacity:1;stroke:none;stroke-width:0.578495;stroke-linecap:round;stroke-linejoin:miter;stroke-miterlimit:4;stroke-dasharray:none;stroke-dashoffset:0;stroke-opacity:1;paint-order:markers fill stroke;stop-color:#000000"
           d="m 246.26538,1989.3673 c 0,0 3.16419,-9.5921 10.34385,-4.9529 7.17959,4.6393 29.95876,14.8843 26.99948,20.9796 -2.9593,6.0953 -6.18237,10.6376 -7.60854,10.0809 -1.42609,-0.5567 -19.64399,-15.305 -25.0457,-17.3167 -5.40175,-2.012 -4.68917,-8.7909 -4.68917,-8.7909 z"
           id="path141944-6" />
        <path
           style="font-variation-settings:normal;fill:#55b323;fill-opacity:1;stroke:none;stroke-width:0.578495;stroke-linecap:round;stroke-linejoin:miter;stroke-miterlimit:4;stroke-dasharray:none;stroke-dashoffset:0;stroke-opacity:1;paint-order:markers fill stroke;stop-color:#000000"
           d="m 93.40806,2083.8323 c 0,0 8.06553,-6.0802 11.32266,1.823 3.25713,7.9033 16.14037,29.3013 10.23559,32.6244 -5.90477,3.3232 -11.14151,5.2197 -11.99636,3.9497 -0.85487,-1.27 -7.42383,-23.7701 -10.71685,-28.501 -3.29297,-4.7311 1.15494,-9.8961 1.15494,-9.8961 z"
           id="path20-9" />
        <path
           style="font-variation-settings:normal;fill:#55b323;fill-opacity:1;stroke:none;stroke-width:0.578495;stroke-linecap:round;stroke-linejoin:miter;stroke-miterlimit:4;stroke-dasharray:none;stroke-dashoffset:0;stroke-opacity:1;paint-order:markers fill stroke;stop-color:#000000"
           d="m 79.76514,2087.7301 c 0,0 -10.10005,0.1047 -7.8578,8.3535 2.24225,8.2488 5.09302,33.0626 11.79882,32.0921 6.70585,-0.9704 12.01189,-2.6634 11.91415,-4.1912 -0.0977,-1.5278 -8.62344,-23.3617 -8.90144,-29.1191 -0.27817,-5.7576 -6.95373,-7.1353 -6.95373,-7.1353 z"
           id="path21-3" />
        <circle
           style="fill:#b8de29;fill-opacity:1;stroke:none;stroke-width:5.43907;stroke-linecap:round;stroke-dasharray:none;paint-order:markers fill stroke"
           id="circle22-8"
           cx="132.90771"
           cy="1943.5529"
           r="5.6907339" />
        <circle
           style="fill:#b8de29;fill-opacity:1;stroke:none;stroke-width:5.43907;stroke-linecap:round;stroke-dasharray:none;paint-order:markers fill stroke"
           id="circle28-1"
           cx="141.23642"
           cy="1944.3385"
           r="5.6907339" />
        <circle
           style="fill:#b8de29;fill-opacity:1;stroke:none;stroke-width:5.43907;stroke-linecap:round;stroke-dasharray:none;paint-order:markers fill stroke"
           id="circle29-7"
           cx="168.5797"
           cy="1876.1375"
           r="5.6907339" />
        <circle
           style="fill:#b8de29;fill-opacity:1;stroke:none;stroke-width:5.43907;stroke-linecap:round;stroke-dasharray:none;paint-order:markers fill stroke"
           id="circle30-7"
           cx="180.83702"
           cy="1881.4805"
           r="5.6907339" />
        <circle
           style="fill:#b8de29;fill-opacity:1;stroke:none;stroke-width:5.43907;stroke-linecap:round;stroke-dasharray:none;paint-order:markers fill stroke"
           id="circle31-3"
           cx="59.520882"
           cy="1967.5961"
           r="5.6907339" />
        <circle
           style="fill:#b8de29;fill-opacity:1;stroke:none;stroke-width:5.43907;stroke-linecap:round;stroke-dasharray:none;paint-order:markers fill stroke"
           id="circle24-9"
           cx="140.29355"
           cy="1956.4387"
           r="5.6907339" />
        <circle
           style="fill:#b8de29;fill-opacity:1;stroke:none;stroke-width:5.43907;stroke-linecap:round;stroke-dasharray:none;paint-order:markers fill stroke"
           id="circle25-4"
           cx="121.12183"
           cy="2023.8541"
           r="5.6907339" />
        <circle
           style="fill:#b8de29;fill-opacity:1;stroke:none;stroke-width:5.43907;stroke-linecap:round;stroke-dasharray:none;paint-order:markers fill stroke"
           id="circle26-6"
           cx="142.96503"
           cy="2040.0399"
           r="5.6907339" />
        <circle
           style="fill:#b8de29;fill-opacity:1;stroke:none;stroke-width:5.43907;stroke-linecap:round;stroke-dasharray:none;paint-order:markers fill stroke"
           id="circle27-1"
           cx="125.99334"
           cy="2060.3118"
           r="5.6907339" />
        <circle
           style="fill:#b8de29;fill-opacity:1;stroke:none;stroke-width:5.43907;stroke-linecap:round;stroke-dasharray:none;paint-order:markers fill stroke"
           id="path22-6"
           cx="200.16591"
           cy="2019.6112"
           r="5.6907339" />
      </g>
      <g
         id="g41"
         transform="matrix(0.89607856,0,0,0.89607856,82.642198,199.9147)">
        <path
           style="font-weight:bold;font-size:67.8899px;line-height:100%;font-family:'Segoe UI';-inkscape-font-specification:'Segoe UI Bold';letter-spacing:0px;word-spacing:0px;white-space:pre;inline-size:1425.18;fill:#000000;fill-opacity:1;stroke:none;stroke-width:7.42317;stroke-linecap:round;stroke-dasharray:7.42317, 22.2695;paint-order:markers fill stroke"
           d="m 484.70084,1958.8436 v -90.4793 h 32.936 q 15.14297,0 23.28233,5.5524 8.13935,5.5524 8.13935,15.6478 0,7.3191 -4.98456,12.8084 -4.92147,5.4893 -12.61914,7.6346 v 0.2524 q 9.65364,1.1988 15.39535,7.1298 5.80481,5.9309 5.80481,14.4489 0,12.4299 -8.8965,19.749 -8.89651,7.256 -24.29187,7.256 z m 20.37993,-75.4625 v 21.4526 h 8.9596 q 6.30958,0 9.90603,-3.0287 3.65957,-3.0917 3.65957,-8.4548 0,-9.9691 -14.8906,-9.9691 z m 0,36.5956 v 23.8501 h 11.04175 q 7.06674,0 11.04177,-3.2809 4.03813,-3.281 4.03813,-8.9597 0,-5.4262 -3.97503,-8.5179 -3.91193,-3.0916 -10.97866,-3.0916 z m 138.36903,38.8669 h -23.40853 l -14.07036,-23.2823 q -1.5774,-2.6501 -3.02859,-4.7322 -1.45121,-2.0822 -2.96551,-3.5333 -1.4512,-1.5144 -3.09168,-2.2715 -1.57741,-0.8203 -3.47028,-0.8203 h -5.48933 v 34.6396 h -20.37994 v -90.4793 h 32.30505 q 32.936,0 32.936,24.6073 0,4.7322 -1.45122,8.7704 -1.4512,3.9749 -4.10123,7.1928 -2.65001,3.2179 -6.43576,5.5525 -3.72264,2.3346 -8.32865,3.6595 v 0.2525 q 2.01907,0.6308 3.91194,2.0821 1.89287,1.3881 3.65956,3.2809 1.76669,1.8929 3.34408,4.1013 1.64049,2.1453 2.96549,4.2274 z m -55.52428,-75.2102 v 25.1752 h 8.83341 q 6.56195,0 10.53698,-3.7857 4.03814,-3.8488 4.03814,-9.5275 0,-11.862 -14.19654,-11.862 z m 143.5429,75.2102 h -22.20973 l -6.43578,-20.1275 h -32.17882 l -6.37268,20.1275 h -22.08353 l 32.936,-90.4793 h 24.16569 z m -33.31459,-35.7753 -9.71674,-30.4122 q -1.07263,-3.4071 -1.5143,-8.1393 h -0.50476 q -0.31548,3.975 -1.57741,7.8869 l -9.84294,30.6646 z m 64.98864,35.7753 h -20.37993 v -90.4793 h 20.37993 z m 101.9628,0 h -20.56924 l -37.28959,-56.8492 q -3.28099,-4.9846 -4.54289,-7.5085 h -0.25238 q 0.50475,4.7953 0.50475,14.6383 v 49.7194 h -19.2442 v -90.4793 h 21.95733 l 35.90148,55.0826 q 2.46074,3.7227 4.54291,7.3822 h 0.25239 q -0.50478,-3.1549 -0.50478,-12.4298 v -50.035 h 19.24422 z"
           id="text11"
           aria-label="BRAIN" />
        <path
           style="font-weight:600;font-size:67.8899px;line-height:100%;font-family:'Segoe UI';-inkscape-font-specification:'Segoe UI Semi-Bold';letter-spacing:0px;word-spacing:0px;white-space:pre;inline-size:1425.18;fill:#000000;fill-opacity:1;stroke:none;stroke-width:5.87504;stroke-linecap:round;stroke-dasharray:5.87504, 17.6251;paint-order:markers fill stroke"
           d="m 498.92555,1714.497 h -12.23454 v -71.6095 h 12.23454 z m 78.35094,0 H 564.2929 l -34.20676,-52.6334 q -1.29836,-1.9975 -2.14728,-4.1448 h -0.29963 q 0.3995,2.2972 0.3995,9.8376 v 46.9406 h -11.48549 v -71.6095 h 13.83252 l 33.05822,51.3851 q 2.09735,3.196 2.69658,4.3945 h 0.19975 q -0.49936,-2.8464 -0.49936,-9.6379 v -46.1417 h 11.43553 z m 14.43175,-2.8464 v -12.2345 q 1.64791,1.4981 3.89508,2.6966 2.2971,1.1985 4.84386,2.0473 2.54678,0.7991 5.09357,1.2486 2.54678,0.4494 4.69406,0.4494 7.49053,0 11.13594,-2.4968 3.6953,-2.4969 3.6953,-7.2409 0,-2.5468 -1.24841,-4.3945 -1.1985,-1.8975 -3.39571,-3.4456 -2.19722,-1.548 -5.19341,-2.9463 -2.9463,-1.4481 -6.342,-2.9961 -3.6454,-1.9476 -6.79142,-3.9452 -3.14603,-1.9973 -5.49307,-4.3944 -2.29709,-2.4468 -3.64538,-5.493 -1.29835,-3.0462 -1.29835,-7.1409 0,-5.0437 2.24715,-8.7391 2.2971,-3.7453 5.99242,-6.1422 3.74527,-2.4468 8.48928,-3.5955 4.744,-1.1984 9.68775,-1.1984 11.23581,0 16.37929,2.5467 v 11.7353 q -6.0923,-4.3946 -15.68017,-4.3946 -2.64665,0 -5.2933,0.4995 -2.59673,0.4993 -4.69407,1.6479 -2.04742,1.1485 -3.34578,2.9462 -1.29835,1.7978 -1.29835,4.3445 0,2.397 0.99873,4.1448 0.99874,1.7479 2.89635,3.1959 1.94753,1.4483 4.69405,2.8465 2.79646,1.3483 6.44186,2.9462 3.74526,1.9476 7.0411,4.0949 3.34577,2.1473 5.8426,4.7439 2.54679,2.5968 3.99495,5.7928 1.49811,3.146 1.49811,7.1909 0,5.4431 -2.19722,9.1883 -2.19722,3.7453 -5.94248,6.0924 -3.69534,2.347 -8.53922,3.3956 -4.84386,1.0487 -10.23705,1.0487 -1.79772,0 -4.44438,-0.2996 -2.59672,-0.2497 -5.34324,-0.799 -2.74654,-0.4993 -5.19343,-1.2484 -2.44692,-0.749 -3.94501,-1.6979 z m 114.0558,-26.117 q 0,30.1619 -28.56389,30.1619 -27.3654,0 -27.3654,-29.0133 v -43.7947 h 11.88497 v 41.3478 q 0,21.0734 16.37929,21.0734 15.78006,0 15.78006,-20.3244 v -42.0968 h 11.88496 z m 56.4786,28.9634 h -39.64986 v -71.6095 h 11.88495 v 61.5722 h 27.76491 z m 22.52152,0 h -12.23454 v -71.6095 h 12.23453 z m 78.35095,0 h -12.98357 l -34.20677,-52.6334 q -1.29835,-1.9975 -2.14727,-4.1448 h -0.29963 q 0.3995,2.2972 0.3995,9.8376 v 46.9406 h -11.48549 v -71.6095 h 13.83252 l 33.05821,51.3851 q 2.09734,3.196 2.69658,4.3945 h 0.19975 q -0.49937,-2.8464 -0.49937,-9.6379 v -46.1417 h 11.43554 z"
           id="text12"
           aria-label="INSULIN" />
        <path
           d="m 581.76803,1769.5222 q -1.25859,0 -2.2235,-0.9229 -0.96492,-0.923 -0.96492,-2.3494 0,-1.3844 0.96492,-2.2235 1.00686,-0.8809 2.2235,-0.8809 1.30053,0 2.26544,0.839 1.00687,0.839 1.00687,2.2654 0,1.3425 -0.96492,2.3075 -0.96491,0.9648 -2.30739,0.9648 z m -1.88788,53.7834 v -42.9596 h 3.85966 v 42.9596 z m 46.81925,0 v -25.0038 q 0,-15.4806 -11.15944,-15.4806 -6.20899,0 -10.19449,4.5729 -3.98552,4.5308 -3.98552,11.2433 v 24.6682 h -3.85965 v -42.9596 h 3.85965 v 7.8032 h 0.16781 q 4.69871,-8.852 14.68344,-8.852 6.96416,0 10.65599,4.6568 3.69185,4.6148 3.69185,13.2151 v 26.1365 z m 57.30739,-0.5873 q -3.02059,1.4264 -5.66361,1.4264 -9.52326,0 -9.52326,-11.4111 V 1783.87 h -7.7193 v -3.524 h 7.7193 v -11.1594 q 0.92296,-0.3356 1.92982,-0.6712 1.00687,-0.2937 1.92983,-0.6293 v 12.4599 h 11.32722 v 3.524 h -11.32722 v 28.3601 q 0,4.4471 1.38443,6.4607 1.42639,1.9718 4.78262,1.9718 2.39131,0 5.16017,-1.5522 z m 37.7155,0.5873 v -25.759 q 0,-7.6353 -2.76886,-11.1594 -2.76889,-3.566 -8.64227,-3.566 -5.53776,0 -9.73303,4.3212 -4.19527,4.3211 -4.19527,12.376 v 23.7872 h -3.85966 v -63.6002 h 3.85966 v 28.36 h 0.16781 q 5.07628,-8.7682 14.76735,-8.7682 6.96416,0 10.61404,4.489 3.64989,4.4889 3.64989,12.8794 v 26.64 z m 17.70406,-21.312 q 0,8.852 4.06941,13.8444 4.11137,4.9925 11.24333,4.9925 7.21587,0 14.09611,-5.328 v 4.1113 q -6.67048,4.7407 -14.89321,4.7407 -8.30664,0 -13.42487,-5.9573 -5.11823,-5.9573 -5.11823,-16.8231 0,-9.3974 5.328,-15.8161 5.36992,-6.4608 13.9283,-6.4608 8.01296,0 12.29215,5.6217 4.27917,5.6216 4.27917,15.3547 v 1.72 z m 27.7727,-3.524 q -0.25171,-7.4256 -3.56598,-11.5369 -3.31427,-4.1115 -9.14569,-4.1115 -6.0412,0 -10.0267,4.0695 -3.94356,4.0274 -4.86652,11.5789 z"
           id="text13"
           style="font-weight:300;font-size:67.8899px;line-height:100%;font-family:'Segoe UI';-inkscape-font-specification:'Segoe UI Light';letter-spacing:0px;word-spacing:0px;white-space:pre;inline-size:1425.18;fill:#000000;fill-opacity:1;stroke:none;stroke-width:4.93572;stroke-linecap:round;stroke-dasharray:4.93572, 14.8071;paint-order:markers fill stroke"
           aria-label="in the" />
        <path
           d="m 512.23411,2035.4696 q -3.23421,1.6771 -8.0456,1.6771 -6.22885,0 -9.98214,-3.933 -3.75329,-3.9329 -3.75329,-10.3215 0,-6.8677 4.21246,-11.1001 4.23243,-4.2325 10.6809,-4.2325 4.15257,0 6.88767,1.1779 v 4.7116 q -2.89482,-1.7169 -6.38857,-1.7169 -4.65168,0 -7.5465,2.9746 -2.87485,2.9747 -2.87485,7.9458 0,4.7315 2.69518,7.5465 2.69518,2.795 7.08732,2.795 4.05275,0 7.02742,-1.9166 z m 23.07871,1.1979 h -4.63171 v -11.18 q 0,-6.0691 -4.05276,-6.0691 -2.03635,0 -3.43385,1.7568 -1.3975,1.7569 -1.3975,4.492 v 11.0003 h -4.65167 v -30.2658 h 4.65167 v 13.2163 h 0.0798 q 2.31586,-3.873 6.62814,-3.873 6.80783,0 6.80783,8.325 z m 17.48871,-16.0313 q -0.8385,-0.6588 -2.41567,-0.6588 -2.05632,0 -3.43386,1.8567 -1.37754,1.8566 -1.37754,5.0509 v 9.7825 h -4.63171 v -20.4434 h 4.63171 v 4.2124 h 0.0798 q 0.67878,-2.1561 2.07628,-3.3539 1.41747,-1.2178 3.15437,-1.2178 1.25774,0 1.91656,0.3793 z m 5.60996,-8.7044 q -1.13796,0 -1.9565,-0.7387 -0.79857,-0.7387 -0.79857,-1.8767 0,-1.1379 0.79857,-1.8965 0.81854,-0.7587 1.9565,-0.7587 1.17789,0 1.99643,0.7587 0.81853,0.7586 0.81853,1.8965 0,1.0781 -0.81853,1.8568 -0.81854,0.7586 -1.99643,0.7586 z m 2.2959,24.7357 h -4.63173 v -20.4434 h 4.63173 z m 4.77145,-0.6388 v -4.2923 q 2.59536,1.9764 5.72975,1.9764 4.19251,0 4.19251,-2.4755 0,-0.6988 -0.35937,-1.1779 -0.35935,-0.4992 -0.97825,-0.8785 -0.59892,-0.3793 -1.43742,-0.6788 -0.81854,-0.2995 -1.83672,-0.6788 -1.25775,-0.4991 -2.27593,-1.0581 -0.99821,-0.559 -1.67699,-1.2577 -0.65882,-0.7187 -0.99822,-1.6171 -0.33939,-0.8984 -0.33939,-2.0963 0,-1.4773 0.69875,-2.5953 0.69875,-1.1379 1.87664,-1.8967 1.1779,-0.7785 2.67522,-1.1579 1.49732,-0.3992 3.09446,-0.3992 2.83492,0 5.07093,0.8584 v 4.0528 q -2.15615,-1.4774 -4.95115,-1.4774 -0.87843,0 -1.59714,0.1797 -0.69875,0.1797 -1.19786,0.4991 -0.4991,0.3194 -0.7786,0.7786 -0.2795,0.4393 -0.2795,0.9782 0,0.6589 0.2795,1.1181 0.2795,0.4591 0.81853,0.8185 0.559,0.3394 1.31765,0.6388 0.7786,0.2796 1.77681,0.6189 1.31765,0.5391 2.35579,1.0981 1.05811,0.559 1.79679,1.2777 0.73868,0.6987 1.13796,1.637 0.39929,0.9184 0.39929,2.1961 0,1.5572 -0.71871,2.7152 -0.71872,1.1579 -1.91657,1.9165 -1.19787,0.7587 -2.77504,1.1181 -1.55722,0.3793 -3.29411,0.3793 -3.354,0 -5.80961,-1.118 z m 29.68689,0.4192 q -1.35757,0.6788 -3.57361,0.6788 -5.94935,0 -5.94935,-5.7097 v -11.5594 h -3.4139 v -3.6335 h 3.4139 v -4.7315 l 4.63172,-1.3177 v 6.0492 h 4.89124 v 3.6335 h -4.89124 v 10.2217 q 0,1.8167 0.65881,2.5954 0.65882,0.7786 2.19607,0.7786 1.1779,0 2.03636,-0.6788 z m 21.06232,-8.7444 h -13.93507 q 0.0798,2.835 1.73689,4.3722 1.67699,1.5373 4.59178,1.5373 3.27415,0 6.00925,-1.9565 v 3.7333 q -2.795,1.7569 -7.38678,1.7569 -4.51193,0 -7.08732,-2.775 -2.55543,-2.7951 -2.55543,-7.846 0,-4.7715 2.81497,-7.7661 2.83492,-3.0146 7.02743,-3.0146 4.19249,0 6.48838,2.6952 2.2959,2.6952 2.2959,7.4865 z m -4.47201,-3.2741 q -0.0199,-2.4955 -1.17788,-3.8731 -1.15793,-1.3975 -3.19429,-1.3975 -1.99644,0 -3.39393,1.4574 -1.37754,1.4575 -1.69696,3.8132 z m 13.53579,12.2381 h -4.65168 v -30.2658 h 4.65168 z m 8.36503,-24.7357 q -1.13796,0 -1.9565,-0.7387 -0.79857,-0.7387 -0.79857,-1.8767 0,-1.1379 0.79857,-1.8965 0.81854,-0.7587 1.9565,-0.7587 1.1779,0 1.99643,0.7587 0.81854,0.7586 0.81854,1.8965 0,1.0781 -0.81854,1.8568 -0.81853,0.7586 -1.99643,0.7586 z m 2.29589,24.7357 h -4.6317 v -20.4434 h 4.6317 z m 24.25661,0 h -4.63172 v -11.5193 q 0,-5.7298 -4.05274,-5.7298 -2.11622,0 -3.49375,1.5972 -1.37754,1.5771 -1.37754,3.9928 v 11.6591 h -4.65168 v -20.4434 h 4.65168 v 3.3939 h 0.0798 q 2.29589,-3.873 6.62814,-3.873 3.33403,0 5.09089,2.176 1.75686,2.1562 1.75686,6.2489 z m 24.23663,0 h -4.63171 v -3.4738 h -0.0798 q -2.236,3.953 -6.88768,3.953 -3.77325,0 -6.04918,-2.7352 -2.25595,-2.755 -2.25595,-7.4865 0,-5.071 2.49553,-8.1255 2.5155,-3.0545 6.68803,-3.0545 4.13261,0 6.00925,3.3141 h 0.0798 v -12.6574 h 4.63171 z m -4.57182,-9.3433 v -2.6751 q 0,-2.1762 -1.41746,-3.6934 -1.41746,-1.5173 -3.61353,-1.5173 -2.59536,0 -4.09268,1.9364 -1.47735,1.9366 -1.47735,5.3705 0,3.1144 1.41745,4.9312 1.43744,1.7967 3.85311,1.7967 2.37575,0 3.85311,-1.7368 1.47735,-1.7569 1.47735,-4.4122 z m 26.31292,9.3433 h -4.49196 v -3.1943 h -0.0798 q -2.11622,3.6735 -6.20889,3.6735 -3.01461,0 -4.73154,-1.6371 -1.69697,-1.637 -1.69697,-4.3322 0,-5.7897 6.66808,-6.748 l 6.06914,-0.8585 q 0,-4.3721 -4.15257,-4.3721 -3.65346,0 -6.58821,2.5155 v -4.0528 q 3.23421,-1.9165 7.46664,-1.9165 7.74614,0 7.74614,7.6263 z m -4.472,-10.042 -4.29231,0.5989 q -1.99644,0.2596 -3.01462,0.9782 -0.99821,0.6988 -0.99821,2.4757 0,1.2977 0.91836,2.1361 0.93832,0.8186 2.49554,0.8186 2.1162,0 3.49374,-1.4774 1.3975,-1.4974 1.3975,-3.7532 z m 37.73249,10.042 h -15.85164 v -28.6287 h 4.7515 v 24.6159 h 11.10014 z m 19.30547,0 h -4.49196 v -3.1943 h -0.0798 q -2.11622,3.6735 -6.20889,3.6735 -3.01461,0 -4.73154,-1.6371 -1.69697,-1.637 -1.69697,-4.3322 0,-5.7897 6.66808,-6.748 l 6.06914,-0.8585 q 0,-4.3721 -4.15258,-4.3721 -3.65346,0 -6.5882,2.5155 v -4.0528 q 3.23421,-1.9165 7.46663,-1.9165 7.74615,0 7.74615,7.6263 z m -4.472,-10.042 -4.29232,0.5989 q -1.99643,0.2596 -3.01461,0.9782 -0.99821,0.6988 -0.99821,2.4757 0,1.2977 0.91835,2.1361 0.93832,0.8186 2.49553,0.8186 2.11622,0 3.49376,-1.4774 1.3975,-1.4974 1.3975,-3.7532 z m 27.94999,10.042 h -4.63171 v -3.2342 h -0.0798 q -2.01639,3.7134 -6.26879,3.7134 -7.24703,0 -7.24703,-8.7045 v -12.2181 h 4.63172 v 11.739 q 0,5.5101 4.25239,5.5101 2.05632,0 3.37396,-1.5173 1.33761,-1.5172 1.33761,-3.9728 v -11.759 h 4.63171 z m 17.88802,-16.0313 q -0.83853,-0.6588 -2.4157,-0.6588 -2.05633,0 -3.43386,1.8567 -1.37754,1.8566 -1.37754,5.0509 v 9.7825 h -4.6317 v -20.4434 h 4.6317 v 4.2124 h 0.0798 q 0.67881,-2.1561 2.07627,-3.3539 1.41746,-1.2178 3.15436,-1.2178 1.25774,0 1.91661,0.3793 z m 20.22381,7.0673 h -13.93509 q 0.0798,2.835 1.73689,4.3722 1.67703,1.5373 4.59181,1.5373 3.27415,0 6.00927,-1.9565 v 3.7333 q -2.79505,1.7569 -7.3868,1.7569 -4.51196,0 -7.08731,-2.775 -2.55548,-2.7951 -2.55548,-7.846 0,-4.7715 2.815,-7.7661 2.83491,-3.0146 7.02743,-3.0146 4.19246,0 6.48837,2.6952 2.29591,2.6952 2.29591,7.4865 z m -4.47203,-3.2741 q -0.0198,-2.4955 -1.17788,-3.8731 -1.15789,-1.3975 -3.19429,-1.3975 -1.99641,0 -3.39394,1.4574 -1.37752,1.4575 -1.69695,3.8132 z m 11.2199,-12.4976 q -1.13795,0 -1.95647,-0.7387 -0.79859,-0.7387 -0.79859,-1.8767 0,-1.1379 0.79859,-1.8965 0.81852,-0.7587 1.95647,-0.7587 1.17795,0 1.99647,0.7587 0.81852,0.7586 0.81852,1.8965 0,1.0781 -0.81852,1.8568 -0.81852,0.7586 -1.99647,0.7586 z m 2.29591,24.7357 h -4.63168 v -20.4434 h 4.63168 z m 10.68088,-0.8584 q 0,5.031 -2.1162,7.7461 -2.11619,2.7351 -6.04914,2.7351 -1.45739,0 -2.83498,-0.6388 v -3.973 q 1.29773,0.8985 2.45563,0.8985 3.91301,0 3.91301,-6.9077 v -19.4452 h 4.63168 z m -2.27592,-23.8773 q -1.13795,0 -1.95647,-0.7387 -0.79858,-0.7387 -0.79858,-1.8767 0,-1.1379 0.79858,-1.8965 0.81852,-0.7587 1.95647,-0.7587 1.15796,0 1.97649,0.7587 0.81852,0.7586 0.81852,1.8965 0,1.0781 -0.81852,1.8568 -0.81853,0.7586 -1.97649,0.7586 z m 7.04744,24.0969 v -4.2923 q 2.59535,1.9764 5.72972,1.9764 4.19251,0 4.19251,-2.4755 0,-0.6988 -0.35936,-1.1779 -0.35937,-0.4992 -0.97825,-0.8785 -0.59893,-0.3793 -1.43745,-0.6788 -0.81852,-0.2995 -1.83669,-0.6788 -1.25774,-0.4991 -2.27591,-1.0581 -0.99823,-0.559 -1.67703,-1.2577 -0.6588,-0.7187 -0.99823,-1.6171 -0.33937,-0.8984 -0.33937,-2.0963 0,-1.4773 0.69873,-2.5953 0.6988,-1.1379 1.87668,-1.8967 1.17789,-0.7785 2.67521,-1.1579 1.49731,-0.3992 3.09443,-0.3992 2.83498,0 5.07096,0.8584 v 4.0528 q -2.15612,-1.4774 -4.95118,-1.4774 -0.87838,0 -1.5971,0.1797 -0.69874,0.1797 -1.19789,0.4991 -0.49908,0.3194 -0.77858,0.7786 -0.27952,0.4393 -0.27952,0.9782 0,0.6589 0.27952,1.1181 0.2795,0.4591 0.81852,0.8185 0.559,0.3394 1.31766,0.6388 0.77859,0.2796 1.77682,0.6189 1.31762,0.5391 2.35577,1.0981 1.0581,0.559 1.79676,1.2777 0.73873,0.6987 1.13802,1.637 0.39923,0.9184 0.39923,2.1961 0,1.5572 -0.71867,2.7152 -0.71873,1.1579 -1.9166,1.9165 -1.19782,0.7587 -2.775,1.1181 -1.55724,0.3793 -3.29414,0.3793 -3.354,0 -5.80957,-1.118 z"
           id="text31"
           style="font-weight:600;font-size:67.8899px;line-height:100%;font-family:'Segoe UI';-inkscape-font-specification:'Segoe UI Semi-Bold';letter-spacing:0px;word-spacing:0px;white-space:pre;inline-size:1425.18;fill:#000000;stroke:none;stroke-width:2.04766;stroke-linecap:round;paint-order:markers fill stroke"
           aria-label="Christelinda Laureijs" />
        <path
           d="m 525.5418,2087.7944 v -30.6898 h 7.68315 q 7.64034,0 11.62102,3.8094 3.98068,3.8096 3.98068,11.1075 0,7.0196 -4.28029,11.407 -4.25891,4.3659 -11.77085,4.3659 z m 2.11875,-28.7422 v 26.8161 h 4.81534 q 6.82709,0 10.48675,-3.5313 3.65966,-3.5527 3.65966,-10.2299 0,-13.0549 -13.71838,-13.0549 z m 37.32426,8.8816 q -0.98447,-0.7063 -2.31137,-0.7063 -2.58958,0 -4.34451,2.6752 -1.75492,2.6752 -1.75492,7.5976 v 10.2941 h -1.92613 v -21.9152 h 1.92613 v 4.8582 h 0.0856 q 0.74904,-2.504 2.37557,-3.895 1.62651,-1.3912 3.76666,-1.3912 1.21989,0 2.18296,0.3852 z m -0.0428,20.2458 q -0.72765,0 -1.21988,-0.4922 -0.49224,-0.5136 -0.49224,-1.2413 0,-0.7491 0.49224,-1.2199 0.49223,-0.4922 1.21988,-0.4922 0.72766,0 1.24129,0.4922 0.51364,0.4708 0.51364,1.2199 0,0.7277 -0.51364,1.2413 -0.51363,0.4922 -1.24129,0.4922 z m 36.61801,-0.3852 -13.07632,-14.6815 q -0.36383,-0.4066 -0.51364,-0.7062 h -0.0856 v 15.3877 h -2.11874 v -30.6898 h 2.11874 v 14.4675 h 0.0856 q 0.25681,-0.4495 0.55644,-0.7491 l 12.41288,-13.7184 h 2.7608 l -13.46158,14.874 14.29624,15.8158 z m 19.96762,0 v -4.3873 h -0.0856 q -1.04867,2.2472 -3.06042,3.5955 -1.99034,1.3268 -4.43011,1.3268 -3.12463,0 -4.94376,-1.7549 -1.81912,-1.7549 -1.81912,-4.4301 0,-5.7356 7.59753,-6.9341 l 6.74149,-1.0059 q 0,-7.0625 -5.30758,-7.0625 -3.61686,0 -7.0411,2.9106 v -2.3755 q 1.21989,-0.9631 3.29584,-1.6479 2.09734,-0.6849 3.93787,-0.6849 3.38144,0 5.22197,2.0973 1.86194,2.0974 1.86194,6.0995 v 14.2534 z m -6.03522,-10.9148 q -3.44566,0.4922 -4.83675,1.6052 -1.3911,1.0915 -1.3911,3.574 0,1.9475 1.28409,3.2102 1.30549,1.2627 3.61686,1.2627 3.16742,0 5.26477,-2.3327 2.09735,-2.3542 2.09735,-6.0567 v -2.1401 z m 24.93277,-8.9458 q -0.98446,-0.7063 -2.31136,-0.7063 -2.58959,0 -4.34452,2.6752 -1.75492,2.6752 -1.75492,7.5976 v 10.2941 h -1.92613 v -21.9152 h 1.92613 v 4.8582 h 0.0856 q 0.74905,-2.504 2.37557,-3.895 1.62651,-1.3912 3.76667,-1.3912 1.21989,0 2.18295,0.3852 z m 3.72387,8.9887 q 0,4.5156 2.07595,7.0624 2.09735,2.5468 5.73561,2.5468 3.68106,0 7.1909,-2.718 v 2.0974 q -3.40283,2.4183 -7.59753,2.4183 -4.23751,0 -6.84849,-3.0389 -2.61099,-3.0391 -2.61099,-8.5821 0,-4.7939 2.71799,-8.0684 2.73941,-3.2958 7.10531,-3.2958 4.0877,0 6.27065,2.8678 2.18296,2.8678 2.18296,7.833 v 0.8775 z m 14.1678,-1.7978 q -0.1284,-3.7881 -1.81913,-5.8854 -1.69071,-2.0974 -4.66553,-2.0974 -3.08182,0 -5.11496,2.076 -2.01174,2.0545 -2.48258,5.9068 z m 22.38599,12.6697 v -12.7553 q 0,-7.8972 -5.6928,-7.8972 -3.16743,0 -5.20058,2.3328 -2.03314,2.3114 -2.03314,5.7356 v 12.5841 h -1.96894 v -21.9152 h 1.96894 v 3.9808 h 0.0856 q 2.39697,-4.5158 7.49053,-4.5158 3.55265,0 5.436,2.3755 1.88332,2.3543 1.88332,6.7415 v 13.3332 z m 41.39055,-1.0059 q -3.72387,1.5409 -7.76875,1.5409 -6.29205,0 -10.27273,-4.2161 -3.95929,-4.2375 -3.95929,-11.0432 0,-7.469 4.30171,-11.9634 4.3017,-4.5157 10.93617,-4.5157 3.53125,0 6.76288,1.1342 v 2.2472 q -3.23163,-1.4553 -6.80569,-1.4553 -5.77841,0 -9.39526,3.9165 -3.61686,3.9165 -3.61686,10.4225 0,6.2707 3.44565,9.9089 3.46704,3.6169 8.77462,3.6169 4.2375,0 7.59754,-1.6479 z m 16.73601,-18.8547 q -0.98447,-0.7063 -2.31136,-0.7063 -2.58961,0 -4.34451,2.6752 -1.75493,2.6752 -1.75493,7.5976 v 10.2941 h -1.92615 v -21.9152 h 1.92615 v 4.8582 h 0.0856 q 0.74905,-2.504 2.37556,-3.895 1.62652,-1.3912 3.76666,-1.3912 1.21991,0 2.18296,0.3852 z m 12.04905,20.3956 q -4.79395,0 -7.59755,-3.1459 -2.78219,-3.1675 -2.78219,-8.2183 0,-5.4574 2.9106,-8.5392 2.93201,-3.0818 7.70455,-3.0818 4.68694,0 7.40493,3.0605 2.71799,3.0604 2.71799,8.4749 0,5.115 -2.78219,8.2824 -2.7608,3.1674 -7.57614,3.1674 z m 0.14981,-21.1875 q -3.87369,0 -6.18504,2.6111 -2.28997,2.6109 -2.28997,7.255 0,4.3017 2.24717,6.9127 2.24715,2.611 6.14223,2.611 3.95928,0 6.09944,-2.5682 2.14014,-2.5681 2.14014,-7.1267 0,-4.6869 -2.14014,-7.1909 -2.11876,-2.504 -6.01383,-2.504 z m 14.51022,19.6894 v -2.3755 q 1.11289,0.963 2.6966,1.5195 1.58371,0.5564 2.73939,0.5564 5.15777,0 5.15777,-4.2161 0,-1.4553 -1.13428,-2.4825 -1.13428,-1.0273 -3.68106,-2.1188 -3.14603,-1.3698 -4.43012,-2.8251 -1.26269,-1.4766 -1.26269,-3.5739 0,-2.6753 2.03314,-4.3232 2.05454,-1.6479 5.05076,-1.6479 2.82501,0 4.83675,1.1557 v 2.2258 q -2.43978,-1.5838 -5.05075,-1.5838 -2.16156,0 -3.48847,1.1343 -1.32689,1.1129 -1.32689,2.9106 0,1.5623 0.83467,2.5468 0.83465,0.9631 3.68106,2.2258 3.42424,1.5409 4.70833,2.8677 1.28409,1.3055 1.28409,3.4885 0,2.611 -1.96894,4.3232 -1.94753,1.6906 -5.39319,1.6906 -3.16742,0 -5.28617,-1.4981 z m 20.20304,-2.932 h -0.0856 v 3.8951 h -1.96894 v -32.4447 h 1.96894 v 15.0453 h 0.0856 q 1.17709,-2.4184 3.36004,-3.7239 2.20435,-1.3269 4.83675,-1.3269 4.17329,0 6.50606,2.8892 2.35417,2.8679 2.35417,7.8116 0,5.5002 -2.718,8.903 -2.71799,3.3814 -7.0625,3.3814 -4.92236,0 -7.27652,-4.4301 z m -0.0856,-8.1539 v 2.7607 q 0,3.2958 2.07595,5.6714 2.07595,2.3542 5.45737,2.3542 3.36005,0 5.4574,-2.8678 2.09735,-2.8892 2.09735,-7.5761 0,-4.1092 -1.92613,-6.5275 -1.92614,-2.4184 -5.13637,-2.4184 -3.83087,0 -5.92822,2.5682 -2.09735,2.5682 -2.09735,6.0353 z m 27.929,16.5219 q -1.19851,2.9535 -2.65381,4.3873 -1.4553,1.4339 -3.74531,1.4339 -0.96305,0 -1.71209,-0.2996 v -1.969 q 0.77048,0.2997 1.79776,0.2997 2.63236,0 4.15189,-3.6383 l 2.03311,-4.8581 -8.30378,-21.744 h 2.20434 l 6.61313,17.849 q 0.21401,0.5778 0.29958,0.8773 0.0856,0.4067 0.19266,0.7277 h 0.0856 l 0.51359,-1.4767 7.0625,-17.9773 h 2.14021 z"
           id="text32-1"
           style="font-weight:300;font-size:67.8899px;line-height:100%;font-family:'Segoe UI';-inkscape-font-specification:'Segoe UI Light';letter-spacing:0px;word-spacing:0px;white-space:pre;inline-size:1425.18;fill:#000000;stroke:none;stroke-width:2.19507;stroke-linecap:round;paint-order:markers fill stroke"
           aria-label="Dr. Karen Crosby" />
      </g>
      <g
         id="g38"
         transform="matrix(0.92587274,0,0,0.92587274,100.1584,113.55523)">
        <path
           style="fill:#55b323;fill-opacity:1;stroke:none;stroke-width:1.78913;stroke-linecap:round;stroke-dasharray:1.78913, 5.3674;paint-order:markers fill stroke"
           d="m 1194.5253,1661.0172 c 3.4486,-1.0051 -49.942,-103.6448 -49.942,-103.6448 h -41.6418 c 0,0 88.1352,104.65 91.5838,103.6448 z"
           id="path16-4"
           sodipodi:nodetypes="zccz" />
        <path
           id="path132993-8"
           style="display:inline;fill:#b8de29;fill-opacity:1;stroke:none;stroke-width:3.65203;stroke-linecap:butt;stroke-linejoin:miter;stroke-miterlimit:4;stroke-dasharray:none;stroke-dashoffset:0;stroke-opacity:1;paint-order:markers fill stroke;stop-color:#000000"
           d="m 1254.2338,1557.3724 c 0.4516,1.8848 0.5383,3.7358 0.3365,5.3357 -0.2533,2.0131 -0.8019,3.5586 -0.9666,4.5412 0.012,0.013 -4e-4,0.025 0,0.04 -0.1569,0.6697 -0.3196,1.3697 -0.4748,2.0136 -1.6829,7.0825 -3.6437,13.3821 -4.6272,17.3683 -1.6682,5.2578 -3.4121,11.1947 -4.4141,15.5736 -4.6559,32.9902 -21.9424,77.6193 -62.3802,73.9491 -13.5724,0.6905 -48.5661,-19.144 -71.9712,-28.6587 -4.0175,-4.9638 -6.9999,-11.0177 -8.4243,-17.6189 -1.8796,-8.7102 -0.6397,-15.8853 -0.058,-20.2438 0.3906,-2.9283 0.3161,-5.1136 0.4748,-6.1489 -0.6249,0.753 -2.4098,2.3402 -3.7016,5.2104 -1.9009,4.2225 -3.7486,12.4737 -1.849,22.2368 0.8545,4.3928 2.3691,8.5529 4.3767,12.3878 -9.6351,-6.2534 -18.2165,-14.1576 -28.4643,-21.2665 -1.8095,-1.0867 -3.4884,-2.0512 -5.0217,-3.1857 -1.3737,-1.0157 -2.4243,-2.0221 -3.1933,-3.0904 -0.1789,-0.2484 -0.3503,-0.5101 -0.5141,-0.7834 -0.8061,-1.3421 -1.3538,-2.9103 -1.6958,-4.7543 -0.3293,-1.7786 -0.4332,-3.6441 -0.4935,-5.4834 -0.1197,-4.3036 0.065,-8.107 -0.083,-10.1144 -0.106,-1.4477 -0.5389,-2.4648 -0.6357,-2.9633 -0.2434,0.435 -0.9853,1.2949 -1.4452,2.7052 -0.6562,2.0119 -1.2162,5.8381 -1.2937,10.3912 -0.039,1.911 0.02,4.0124 0.3645,6.0892 0.3612,2.1777 1.0133,4.1991 2.0641,6.0219 0.213,0.3692 0.4359,0.7179 0.6636,1.0487 0.9869,1.4331 2.1825,2.7581 3.6756,4.0907 1.6158,1.4422 3.384,2.719 5.046,3.9168 3.8864,2.6488 7.5455,5.3072 10.881,7.7699 -0.4256,0.017 -0.8476,0.052 -1.2677,0.095 -6.1766,-1.5786 -12.4399,-2.2923 -18.5144,-2.165 -0.4831,0.01 -0.9703,0.024 -1.4657,0.045 -5.6085,0.2109 -10.5136,1.0703 -16.6523,1.7649 -17.1167,1.7 -30.0314,-0.848 -36.2305,-1.692 -2.5275,-0.3441 -3.9757,-0.2501 -4.773,-0.3216 h -0.01 c 0.6495,0.3314 1.9619,1.2528 4.3431,2.0939 5.6581,1.9987 19.6077,5.1814 37.0063,3.7691 5.7392,-0.3894 11.8065,-1.3014 16.4915,-1.5555 0.4666,-0.024 0.928,-0.041 1.3835,-0.054 3.529,-0.1032 7.1338,0.052 10.7631,0.4862 -0.049,0.027 -0.1037,0.051 -0.1496,0.084 -1.3692,0.7783 -2.5881,1.7099 -3.7223,2.6492 -1.2279,1.0171 -2.3725,2.0494 -3.5316,2.9688 -4.3984,3.3463 -9.6105,5.4354 -15.0688,6.7249 -2.4993,0.5904 -5.0545,1.0148 -7.6092,1.3125 -3.175,0.3697 -6.5066,0.5715 -10.0133,0.6281 -4.0956,0.2937 -7.2632,0.4549 -9.3012,0.4768 1.9488,0.2978 5.403,0.8693 9.5311,1.1797 3.5714,0.078 7.0007,-0.014 10.2752,-0.3048 2.6375,-0.2339 5.2951,-0.602 7.9101,-1.1554 5.7049,-1.2067 11.2801,-3.298 16.041,-6.8109 1.2973,-0.9203 2.5037,-1.9317 3.713,-2.8958 1.1241,-0.8966 2.2326,-1.7355 3.4306,-2.4343 0.074,-0.042 0.145,-0.09 0.2225,-0.1309 1.0506,-0.5853 2.2695,-1.0822 3.6345,-1.4395 4.6001,0.9037 9.1978,2.2728 13.7021,4.1523 1.331,0.9415 3.8415,1.604 5.1824,2.9184 24.6839,19.4894 48.0156,41.8218 56.3884,73.3472 7.3279,32.988 -10.5478,58.0036 -41.1158,65.0724 -9.3024,2.1566 -22.0292,7.4633 -34.0842,3.7915 -3.1025,-0.8349 -6.0755,-2.0147 -9.4712,-3.4325 -3.2618,-1.3618 -6.5046,-2.7639 -9.9145,-3.8607 -2.47,-0.7652 -4.7926,-1.3006 -6.994,-1.6751 -2.5398,-0.432 -5.2677,-0.6616 -8.0953,-0.5086 -5.5098,0.2983 -10.5903,2.042 -14.5003,4.9862 -1.4363,1.136 -2.5,2.3135 -3.184,3.3036 -1.0797,1.5628 -1.4023,3.1038 -1.6115,3.7578 0.5026,-0.4389 1.8231,-1.2748 3.1689,-2.2865 0.8878,-0.6673 1.9669,-1.5031 3.3391,-2.3501 3.5527,-2.329 8.0241,-3.7403 12.9374,-3.885 2.522,-0.074 4.9718,0.1831 7.2726,0.6413 1.9861,0.3955 4.0976,1.0284 6.308,1.8996 3.1343,1.1928 6.0894,2.6811 9.3572,4.2513 3.3134,1.5921 6.5469,3.0607 9.9966,4.0776 0.034,0.01 0.068,0.018 0.1028,0.029 -0.1643,0.3847 -0.3302,0.841 -0.5702,1.3423 -0.3616,0.755 -0.8982,1.6002 -1.735,2.3071 -0.7531,0.6407 -1.7275,1.131 -2.8866,1.4938 -1.2299,0.3843 -2.6008,0.6001 -3.7504,0.7235 0,10e-5 -0.1345,0.011 -0.1345,0.011 -1.2477,0.1138 -1.9831,0.2404 -3.3129,0.4375 -0.5762,0.2447 -3.6409,-2.8093 -5.3451,-4.0944 -2.4398,-1.4711 -4.5012,-2.5014 -6.7567,-3.2885 -0.2544,-0.089 -0.5172,-0.1724 -0.7852,-0.2524 -1.3188,-0.3946 -2.769,-0.6518 -4.257,-0.6431 -1.496,0.01 -2.929,0.2852 -4.229,0.8431 -1.0526,0.5117 -1.816,1.1482 -2.251,1.6584 -0.4615,0.5413 -0.6302,1.1025 -0.731,1.3311 0.2235,-0.1053 0.7731,-0.2589 1.3517,-0.5011 0.5771,-0.2414 1.3078,-0.5743 2.2604,-0.8113 1.1002,-0.3417 2.2889,-0.4593 3.5316,-0.3664 1.2404,0.093 2.4483,0.3907 3.5484,0.8057 0.2257,0.085 0.447,0.1734 0.6618,0.2655 1.862,0.7985 3.6266,2.0992 5.6929,3.769 0.9318,0.7867 1.8204,1.5522 2.6024,2.1613 -0.9535,0.2723 -1.9019,0.5984 -2.8324,1.0076 -1.8462,0.801 -3.5391,1.8707 -4.9225,3.2363 -1.6564,1.635 -2.6463,3.4869 -3.0381,5.19 -0.072,0.3354 -0.1138,0.6531 -0.1346,0.9497 -0.1191,1.8127 0.741,3.2441 1.0227,3.8046 0.135,-0.7946 0.644,-1.8526 1.2657,-3.2998 0.093,-0.2163 0.1927,-0.4466 0.3009,-0.6862 0.5201,-1.2202 1.3138,-2.5983 2.623,-3.8962 1.0968,-1.0871 2.4532,-2.0168 4.0234,-2.7389 1.5264,-0.6913 3.1545,-1.1497 4.8384,-1.4694 1.6861,-0.3202 3.4175,-0.4966 5.1021,-0.6208 -2e-4,5e-4 0.1314,-0.01 0.131,-0.01 1.1476,-0.063 2.5659,-0.014 4.1615,-0.1627 1.4431,-0.1346 3.0439,-0.4552 4.5394,-1.247 1.7078,-0.9104 2.985,-2.2705 3.7447,-3.713 0.48,-0.9116 0.7143,-1.7774 0.7909,-2.5146 4.1327,0.1038 12.8671,-0.9836 16.8131,-1.131 18.2214,0.069 54.5399,-1.5314 65.9062,7.7681 23.2886,19.0541 14.6943,64.7607 2.2454,87.5764 -51.8395,122.8487 -88.0477,204.849 -152.6639,303.7873 -0.8092,0.8369 -1.6404,1.6495 -2.4267,2.2921 -1.9709,1.4781 -6.984,3.416 -10.08451,3.569 -2.8021,0.1094 -5.69308,-0.1317 -8.69161,-0.6917 -3.21002,-0.5995 -6.39727,-1.5286 -9.47312,-2.6099 -5.43662,-1.9125 -11.63579,-4.747 -15.45391,-6.5361 -1.31006,-0.6138 -2.60564,-1.2064 -3.90368,-1.7798 -7.01386,-3.2714 -14.06185,-5.7682 -21.05329,-7.1624 -7.89149,-1.5735 -15.3115,-1.6603 -22.20868,-0.2243 -0.33724,0.07 -0.6625,0.1578 -0.99461,0.2356 -1.99998,-0.013 -5.00963,0.1768 -7.89149,-0.445 -1.90098,-0.41 -3.57306,-1.0595 -5.00671,-1.7985 -1.77397,-0.9144 -3.50314,-1.9195 -5.06469,-3.1932 -1.45744,-1.1727 -2.68302,-2.5117 -3.52601,-3.9374 -1.4439,-2.4416 -1.89299,-4.8517 -2.11261,-6.2611 0.009,1.5037 0.28515,3.7941 1.204,6.665 0.52401,1.6371 1.1743,3.496 2.25843,5.3563 1.17862,1.995 2.7946,3.8788 4.88334,5.289 1.28742,0.8693 2.83484,1.6906 4.60103,2.3089 -1.29148,0.6828 -2.51919,1.4049 -3.66438,2.1576 -1.29662,0.8522 -2.5396,1.7714 -3.72232,2.7463 -7.36956,6.0749 -10.7751,12.8697 -12.35976,16.4448 2.19312,-3.4118 6.69964,-9.0209 14.29665,-13.7731 1.21166,-0.758 2.45367,-1.4627 3.72418,-2.1183 4.09122,-2.1109 8.91387,-3.8688 14.27048,-4.6365 6.19955,-0.8999 12.84719,-0.5121 19.97641,1.2339 6.33188,1.5507 12.78483,4.1087 19.27158,7.4652 1.18224,0.6442 2.37257,1.3164 3.58772,2.0192 3.91547,2.2644 8.76867,5.6291 14.68363,9.0206 3.09251,1.7726 6.5547,3.5557 10.29389,5.003 3.63552,1.4073 7.55766,2.5095 11.71853,3.0045 0.24229,0.029 0.47981,0.032 0.72161,0.056 -1.82562,1.5795 -3.65222,3.199 -5.39741,4.8572 -2.33379,2.2169 -4.73035,4.6812 -7.01095,7.3231 -0.61203,0.2556 -1.22148,0.5077 -1.83779,0.7591 -1.24281,0.5069 -2.3681,0.9515 -3.84946,1.5293 -1.79404,0.6996 -4.42921,1.7076 -6.61643,2.6361 -1.29859,0.5512 -2.66112,1.174 -4.02893,1.8677 -0.0236,-0.085 -0.049,-0.176 -0.0767,-0.2486 -0.45323,-0.3566 -0.88791,-0.7061 -1.31244,-1.047 -1.42972,-1.1482 -2.89536,-2.3589 -4.38042,-3.6308 -1.91973,-1.6438 -3.75602,-3.2896 -5.80129,-5.1937 -1.8688,-1.7398 -3.80579,-3.6011 -5.86112,-5.5263 0,0 -0.0149,-0.01 -0.0149,-0.01 -1.76362,-1.6516 -3.89147,-3.5476 -6.32477,-5.2348 -5.93867,-4.1591 -12.82402,-6.3861 -19.47536,-6.6744 -4.25685,-0.1845 -7.90116,0.4429 -10.54815,1.204 -4.425,1.272 -7.46323,3.3213 -8.88421,4.2664 1.63585,-0.7158 4.90555,-1.8594 9.26561,-2.6062 2.59883,-0.4451 6.04157,-0.8261 10.01344,-0.4786 3.32274,0.2907 6.67815,1.0744 9.89567,2.3538 -0.79624,0.9015 -1.48619,1.8533 -2.09206,2.8193 -0.91008,1.4511 -1.65748,2.9577 -2.34071,4.4066 -0.76212,1.6163 -1.4423,3.1555 -2.2304,4.631 -0.61773,1.1565 -1.27836,2.326 -2.03223,3.4362 -2.1699,3.0719 -5.03344,5.4358 -8.06909,7.0372 -0.91236,0.4812 -1.80411,0.8747 -2.64544,1.1908 -3.46531,1.3019 -6.43902,1.5125 -8.21492,1.5144 1.72198,0.2967 4.77967,0.6228 8.60753,-0.1066 0.93527,-0.1782 1.9474,-0.4201 3.01188,-0.7535 3.50874,-1.0983 7.25042,-3.0812 10.39296,-6.2611 1.13253,-1.1086 2.12641,-2.2935 2.99881,-3.4438 1.07598,-1.4188 2.1662,-2.939 3.15771,-4.2925 0.93841,-1.2809 1.8156,-2.4505 2.72584,-3.5747 0.8936,-1.1036 1.7739,-2.1074 2.68471,-3.0399 0.0147,-0.034 0.0225,-0.074 0.0206,-0.1234 8.6e-4,-0.091 -0.0384,-0.2445 -0.0935,-0.4188 0.69044,0.4456 1.36722,0.9164 2.02848,1.4171 2.16243,1.6551 4.0436,3.5259 5.60311,5.2423 l 0.0149,0.011 c 1.78971,1.9707 3.40771,4.1158 4.9525,6.1415 1.67448,2.1955 3.34726,4.3473 5.24603,6.308 1.37824,1.4232 2.87946,2.7287 4.53746,3.8382 -1.38272,0.9922 -2.71204,2.0907 -3.9261,3.354 -1.63189,1.7279 -2.92565,3.5982 -3.98781,5.405 -0.84053,1.4297 -1.5619,2.8613 -2.18367,4.171 -0.23374,0.4923 -0.46137,0.9905 -0.68614,1.4938 h 6.20139 c 0.51578,-0.7905 1.0173,-1.5867 1.61157,-2.3538 1.09758,-1.417 2.30889,-2.7258 3.67371,-3.8439 1.55348,-1.3036 3.33411,-2.383 5.28903,-3.3502 1.98865,-0.984 4.10532,-1.8256 6.22756,-2.6492 0.40446,-0.1571 0.78797,-0.3111 1.18531,-0.4656 -1.72813,3.2785 -3.12411,6.8493 -4.30751,10.8884 -0.17012,0.5807 -0.26622,1.191 -0.42438,1.7743 h 5.82933 c 1.41298,-3.8433 2.94471,-7.04 4.72255,-9.8228 0.24614,-0.3845 0.49427,-0.7545 0.74409,-1.1161 1.76287,-2.5521 3.84898,-4.8343 6.0649,-6.9119 2.6673,-2.5005 5.58208,-4.7618 8.42991,-6.8893 3.9657,-2.9631 7.8205,-5.7108 11.3577,-8.83 -0.1557,1.4685 -0.2596,2.9603 -0.245,4.487 -0.02,5.275 0.9979,10.3247 2.5894,15.0445 1.4917,4.4239 3.4951,8.5493 5.6124,12.3055 -0.5956,0.4656 -1.2075,1.1352 -1.8153,1.7331 h 15.6128 c -1.064,-2.0614 -2.181,-4.0655 -3.1241,-6.1752 -1.6703,-3.7393 -3.0688,-7.5819 -3.9485,-11.4288 -0.7253,-3.1712 -0.9665,-6.1935 -0.8824,-9.1309 0.5872,-2.2726 0.9719,-4.4759 2.7744,-7.1755 2.1908,-3.2811 4.3802,-6.5659 6.5715,-9.8508 63.7129,-108.6602 104.1498,-180.9451 161.7707,-329.6172 1.0964,-2.4524 2.3252,-4.9562 3.5298,-6.8708 0.9692,-1.5409 2.623,-3.5157 4.4869,-5.5582 0.71,-0.7523 1.359,-1.4965 2.1052,-2.251 1.1933,-1.242 2.3731,-2.4176 3.5054,-3.5316 25.8856,-24.4017 66.5662,-39.4698 102.3144,-33.8431 4.3104,0.6785 8.471,1.8516 12.5,3.225 v -16.9551 c -3.6665,-3.5486 -7.3534,-7.1611 -11.0118,-11.1408 -14.3678,-15.6296 -5.5354,-45.9741 11.0118,-74.9008 v -41.1381 c -18.3173,6.8562 -36.2522,11.0343 -45.9822,6.0331 -36.2442,-18.6302 -38.5774,-54.8445 -30.2404,-88.7413 0.8278,-2.7262 1.5968,-7.6808 2.681,-10.4939 2.7757,-7.8114 5.6395,-17.7581 6.8463,-26.7929 0.2235,-1.0167 0.4827,-1.9222 0.7291,-2.8623 z" />
        <path
           style="fill:#55b323;fill-opacity:1;stroke:none;stroke-width:1.78913;stroke-linecap:round;stroke-dasharray:1.78913, 5.3674;paint-order:markers fill stroke"
           d="m 1235.512,1784.6318 c -3.4114,2.0619 89.9941,200.8998 89.9941,200.8998 v -79.2318 c 0,0 -86.5827,-123.7298 -89.9941,-121.668 z"
           id="path33-9"
           sodipodi:nodetypes="zccz" />
        <path
           id="path253-2"
           style="fill:#6600cc;fill-opacity:1;stroke:none;stroke-width:1.21338px"
           inkscape:transform-center-x="8.8689048"
           inkscape:transform-center-y="-12.855812"
           d="m 1288.4001,2007.4205 c -0.6295,0.024 -1.6822,0.2498 -3.384,1.0191 -0.1773,0.08 -0.3595,0.1647 -0.5451,0.2559 -1.935,0.9507 -5.0589,2.8501 -8.3492,6.3442 -2.9673,3.151 -6.3218,7.8706 -8.8467,14.7691 -2.3034,6.2931 -3.9457,14.4819 -3.9056,25.0638 0.012,2.8562 0.1702,5.4941 0.4668,7.9439 0.2309,1.9048 0.5462,3.7464 0.9552,5.5312 0.8493,3.7052 2.0685,7.0173 3.6662,10.1337 1.471,2.8691 3.165,5.3853 5.0005,7.8348 1.7194,2.2943 3.5051,4.4566 5.1972,6.6783 1.6371,2.15 3.1796,4.3475 4.5501,6.8347 1.34,2.4322 2.5379,5.1817 3.4884,8.4841 0.9505,3.3022 1.6673,7.2006 2.0168,11.9561 0.3537,4.8126 0.3283,10.4627 -0.2015,17.184 -0.3681,4.1075 -1.0592,8.0213 -1.91,11.7309 -19.2004,-40.2847 -98.1925,-101.6408 -173.7003,-77.6491 -18.2442,5.7965 -29.9915,3.6637 -37.975,-1.1044 4.9759,-4.1147 8.6501,-11.1452 8.6501,-20.7815 0,-16.1935 -9.305,-19.8477 -18.798,-19.8477 -6.4522,0 -6.2322,4.364 -5.4388,12.1882 -5.4429,-11.271 -14.3453,-11.4237 -22.4522,-8.7115 -8.2474,2.7592 -2.5618,9.0704 2.4006,21.9142 l -16.7881,7.0954 c 0.5223,0.383 -12.5001,3.9327 -24.57329,8.5482 -0.0449,-0.057 -0.0899,-0.1128 -0.13503,-0.1705 -0.87479,-1.1293 -1.55888,-2.1614 -2.15674,-3.1663 -0.27407,-0.4605 -0.54537,-0.9419 -0.80329,-1.448 -0.83546,-1.6395 -1.40157,-3.2745 -1.67318,-4.991 -0.14765,-0.9332 -0.19132,-1.7844 -0.17772,-2.5143 0.0267,-1.4246 0.22441,-2.5972 0.36261,-3.2587 -0.19224,0.6313 -0.52849,1.8025 -0.66827,3.2278 -0.0728,0.7358 -0.11162,1.6026 -0.0473,2.5713 0.1177,1.7741 0.56316,3.5519 1.38871,5.2943 0.25517,0.5383 0.53413,1.0493 0.82944,1.5262 0.63485,1.026 1.45621,2.0796 2.44571,3.1378 0.0123,0.012 0.0204,0.021 0.0306,0.031 -1.31413,0.508 -2.62836,1.0097 -3.89366,1.5405 -0.40654,-1.2347 -0.95113,-2.7077 -1.67552,-4.1948 -0.71843,-1.4749 -1.52411,-2.7804 -2.40066,-3.8866 -0.40745,-0.5143 -0.86222,-1.0282 -1.36504,-1.5309 -1.62824,-1.627 -3.5108,-2.8936 -5.56929,-3.8297 -1.12372,-0.5111 -2.18372,-0.8723 -3.10455,-1.14 -1.78367,-0.5186 -3.3704,-0.7203 -4.23263,-0.8199 0.86842,0.1674 2.38028,0.5113 4.1,1.1422 0.88152,0.3236 1.87503,0.7565 2.91017,1.3342 1.9044,1.0631 3.54816,2.385 5.0479,3.9744 0.4629,0.4908 0.88977,0.9812 1.28921,1.4669 0.87158,1.0599 1.72797,2.221 2.59492,3.6141 0.87097,1.3995 1.59427,2.7934 2.15196,3.972 -1.79012,0.7552 -3.5295,1.5159 -5.12376,2.3034 -0.27665,-0.9047 -0.63289,-1.943 -1.08779,-2.9859 -0.51205,-1.1741 -1.08622,-2.2145 -1.71098,-3.0951 -0.29048,-0.4094 -0.61568,-0.818 -0.97411,-1.2181 -1.16047,-1.2953 -2.50234,-2.3025 -3.96943,-3.0477 -0.80096,-0.4068 -1.55496,-0.6947 -2.21116,-0.9077 -1.27124,-0.4128 -2.40235,-0.5748 -3.01693,-0.6541 0.61906,0.1333 1.69642,0.4076 2.92218,0.91 0.62828,0.2576 1.3358,0.6017 2.07353,1.0617 1.35742,0.8462 2.52857,1.8985 3.59755,3.1638 0.32992,0.3908 0.63485,0.7818 0.9195,1.1684 0.62125,0.8437 1.23061,1.7681 1.84846,2.8771 0.5505,0.988 1.01912,1.9734 1.39587,2.8391 -1.0833,0.5399 -2.11795,1.084 -3.06426,1.6328 -0.36451,-0.8758 -0.7705,-1.6547 -1.21096,-2.3178 -0.21343,-0.3213 -0.45234,-0.6409 -0.71577,-0.9551 -0.85276,-1.0166 -1.83911,-1.8086 -2.9172,-2.3934 -0.58861,-0.3193 -1.14361,-0.5439 -1.6258,-0.7111 -0.93419,-0.324 -1.76425,-0.452 -2.21588,-0.5143 0.4549,0.1044 1.24651,0.3216 2.14719,0.7159 0.4617,0.2021 0.98164,0.4731 1.52377,0.8341 0.99739,0.6643 1.85938,1.4882 2.6448,2.4813 0.24243,0.3066 0.46387,0.6136 0.67306,0.917 0.44312,0.6428 0.87958,1.3461 1.32004,2.1827 -1.40643,0.8372 -2.58256,1.6798 -3.55715,2.5216 -0.0219,-0.051 -0.0413,-0.1021 -0.0644,-0.1541 -0.51204,-1.1741 -1.08633,-2.2142 -1.7111,-3.095 -0.29048,-0.4094 -0.61324,-0.8181 -0.97167,-1.2181 -1.16047,-1.2952 -2.50236,-2.3026 -3.96956,-3.0477 -0.80084,-0.4069 -1.55725,-0.6945 -2.21345,-0.9076 -1.27126,-0.4128 -2.40237,-0.5748 -3.01682,-0.6542 0.61893,0.1334 1.69642,0.4077 2.92205,0.9101 0.62829,0.2576 1.33823,0.6041 2.07597,1.0641 1.35741,0.8462 2.52856,1.896 3.59754,3.1613 0.32993,0.3907 0.63242,0.7817 0.91707,1.1683 0.62125,0.8438 1.23304,1.7681 1.85089,2.8771 0.0498,0.089 0.0947,0.1768 0.1422,0.2655 -0.0607,0.057 -0.14511,0.1141 -0.20383,0.1706 -0.36281,-0.165 -0.73277,-0.3263 -1.1185,-0.4787 -1.19118,-0.4709 -2.33199,-0.8049 -3.39612,-0.9882 -0.49458,-0.085 -1.01354,-0.1471 -1.54984,-0.1778 -1.73636,-0.099 -3.39941,0.1353 -4.96491,0.6422 -0.85471,0.2766 -1.59328,0.6053 -2.20871,0.9172 -1.19228,0.6044 -2.10825,1.2887 -2.59979,1.666 0.5328,-0.3422 1.4904,-0.9109 2.71348,-1.4195 0.62707,-0.2607 1.37318,-0.5141 2.22061,-0.7086 1.55893,-0.3577 3.13221,-0.4389 4.78241,-0.2962 0.50949,0.045 0.99945,0.1067 1.47413,0.18 1.03537,0.1596 2.1211,0.3821 3.34152,0.7323 0.32093,0.092 0.63435,0.1915 0.94315,0.2916 -1.09216,1.1594 -1.70333,2.3093 -1.60674,3.4268 0.0594,0.683 0.4538,1.4767 0.99301,2.3154 -0.24061,0.018 -0.47624,0.043 -0.7063,0.072 -0.49796,0.063 -1.01378,0.1569 -1.53565,0.2844 -1.68926,0.4133 -3.20854,1.1212 -4.55733,2.0641 -0.73627,0.5146 -1.34648,1.0455 -1.84373,1.5238 -0.9633,0.9268 -1.63817,1.8464 -1.99782,2.3509 0.40939,-0.483 1.1572,-1.3052 2.17789,-2.1495 0.52345,-0.4325 1.16388,-0.8929 1.91726,-1.327 1.38616,-0.7981 2.86406,-1.3363 4.4838,-1.6827 0.50015,-0.1068 0.98926,-0.1897 1.46467,-0.2583 0.36571,-0.053 0.74392,-0.098 1.13038,-0.1375 0.74186,0.9803 1.65711,2.0118 2.8865,3.1308 -0.62028,0.196 -1.72081,0.5454 -2.85095,1.1754 -0.6841,0.3812 -1.29249,0.8171 -1.81061,1.2986 -0.24085,0.2238 -0.4811,0.4768 -0.71807,0.7561 -0.76685,0.9044 -1.37403,1.9634 -1.83184,3.1329 -0.25008,0.6384 -0.43062,1.2438 -0.5664,1.7703 -0.26319,1.0202 -0.37784,1.9324 -0.4361,2.4291 0.0898,-0.4989 0.26708,-1.3657 0.58061,-2.3462 0.16078,-0.5026 0.37493,-1.066 0.65413,-1.6517 0.51351,-1.0773 1.1407,-1.9989 1.88875,-2.8297 0.23102,-0.2562 0.46181,-0.4914 0.68969,-0.711 0.49675,-0.4797 1.03828,-0.948 1.68732,-1.4171 1.06242,-0.7681 2.11637,-1.3167 2.72536,-1.5973 1.03004,0.9367 2.25045,1.9206 3.56187,2.9243 -0.81878,0.6548 -1.79955,1.4902 -2.73483,2.4576 -0.89026,0.921 -1.63273,1.8476 -2.20871,2.7609 -0.26792,0.4245 -0.52261,0.8812 -0.75606,1.3651 -0.75471,1.5669 -1.17612,3.1918 -1.30572,4.8321 -0.0704,0.8956 -0.0485,1.7034 0,2.3913 0.10315,1.3327 0.38647,2.4397 0.54748,3.0382 -0.11284,-0.6231 -0.27216,-1.7255 -0.27495,-3.0501 -9.6e-4,-0.679 0.0485,-1.465 0.19196,-2.3224 0.265,-1.5774 0.78991,-3.0607 1.55227,-4.5312 0.23564,-0.454 0.48305,-0.8835 0.73227,-1.294 0.54311,-0.896 1.16303,-1.8143 1.95282,-2.8083 0.83202,-1.0472 1.70746,-1.9885 2.44568,-2.7301 0.83772,0.6379 1.68429,1.2783 2.6164,1.9338 -0.45331,0.7511 -0.91937,1.5821 -1.35326,2.4647 -0.67489,1.3733 -1.18912,2.7052 -1.5285,3.9647 -0.1581,0.5856 -0.29316,1.2027 -0.39581,1.8461 -0.33161,2.0833 -0.28465,4.1225 0.0776,6.0836 0.19803,1.0707 0.46934,2.0076 0.73701,2.7941 0.51872,1.5237 1.16061,2.7263 1.51673,3.3723 -0.31184,-0.6911 -0.81903,-1.9265 -1.22758,-3.4742 -0.2093,-0.7933 -0.39702,-1.7293 -0.50477,-2.7799 -0.19814,-1.9324 -0.0874,-3.8424 0.28199,-5.8157 0.11407,-0.6089 0.24644,-1.1931 0.38865,-1.7561 0.30941,-1.2284 0.6949,-2.5063 1.23947,-3.9315 0.34424,-0.901 0.71758,-1.7631 1.08306,-2.55 0.50804,0.3545 1.07007,0.7157 1.60202,1.0735 -0.0279,0.08 -0.0582,0.1579 -0.0849,0.2394 -0.4043,1.2153 -0.6744,2.3732 -0.79865,3.4458 -0.0582,0.4986 -0.0886,1.0198 -0.0898,1.557 0,1.7391 0.31974,3.3871 0.91234,4.9222 0.32362,0.838 0.69491,1.5569 1.04036,2.1542 0.66942,1.157 1.40192,2.0326 1.80581,2.5026 -0.371,-0.513 -0.99091,-1.4376 -1.56641,-2.6306 -0.29486,-0.6117 -0.59068,-1.3425 -0.83177,-2.1779 -0.44349,-1.5367 -0.61057,-3.1008 -0.55938,-4.7563 0.0158,-0.5112 0.0498,-1.0056 0.097,-1.4836 0.10195,-1.0428 0.26538,-2.1392 0.54748,-3.3771 0,-0.023 0.0122,-0.045 0.017,-0.069 1.09276,0.7275 2.27105,1.4498 3.44575,2.1827 -0.0133,1.1244 0.0184,2.1885 0.0991,3.1733 0.0531,0.6503 0.12983,1.3216 0.23463,2.0026 0.34015,2.204 0.91483,4.1849 1.67563,5.9388 0.41513,0.9575 0.84261,1.7484 1.2275,2.3936 0.74578,1.25 1.48604,2.125 1.89116,2.5902 -0.38826,-0.5303 -1.04987,-1.5034 -1.72997,-2.8296 -0.34863,-0.6798 -0.72034,-1.5101 -1.07122,-2.4907 -0.64547,-1.8041 -1.08368,-3.7327 -1.36979,-5.8464 -0.0889,-0.6529 -0.15813,-1.2896 -0.21574,-1.9102 -0.0787,-0.8487 -0.14147,-1.7386 -0.18478,-2.6875 0.87714,0.5423 1.79473,1.0761 2.70649,1.6162 0.59583,1.2899 1.36857,2.4406 2.28929,3.4506 0.6051,0.664 1.2106,1.2013 1.7489,1.6328 1.0431,0.836 2.0436,1.3864 2.5903,1.6779 -0.5318,-0.3436 -1.444,-0.9804 -2.4125,-1.884 -0.4965,-0.4632 -1.0368,-1.0386 -1.5642,-1.7301 -0.5891,-0.7722 -1.08556,-1.5909 -1.50957,-2.4646 13.23317,7.7066 29.19807,14.8605 37.20707,15.9966 11.9076,1.6893 35.6854,23.6782 42.4374,39.9562 1.802,4.3441 6.7296,9.3825 13.5321,14.5038 -0.4846,10.9893 -1.4874,22.9656 -3.614,25.0921 -4.0696,4.0694 -6.7421,11.3939 -10.6409,13.4374 -3.8987,2.0432 -8.9885,-0.133 -10.7354,0.91 -0.1829,0.1092 -0.3079,0.22 -0.4006,0.3293 0.024,0.025 0.052,0.051 0.095,0.074 0.2307,0.1234 4.1747,-0.3842 4.4126,0.2867 0.1031,0.2907 -3.2663,0.4434 -3.2538,0.7323 0.023,0.5261 4.7879,0.1594 4.8488,0.4361 0.1141,0.5169 -2.8761,0.5962 -3.2775,0.948 0.4466,0.1815 0.9459,0.3711 1.557,0.552 0.1242,0.012 0.2345,0.012 0.2345,0.012 -0.012,0.015 -0.015,0.029 -0.022,0.045 2.3023,0.6505 5.5256,1.038 8.5859,-0.4265 2.0748,-0.9931 4.7976,-1.8978 7.5883,-2.8913 -0.1631,0.4233 -0.3164,0.8271 -0.4099,1.1044 -1.839,5.4501 -11.4563,11.0391 -15.8237,11.5887 -4.3675,0.5496 -6.5442,0.4826 -8.5457,0.8483 -0.3371,0.062 -0.548,0.1737 -0.6779,0.3106 4e-4,0.062 0.033,0.1332 0.147,0.1942 0.2307,0.1234 4.1724,-0.3841 4.4102,0.2868 0.1032,0.2907 -3.2664,0.4436 -3.2538,0.7324 0.024,0.5261 4.788,0.1593 4.8488,0.4359 0.1229,0.5589 -3.3815,0.6049 -3.3226,1.0381 0.012,0.046 0.036,0.088 0.078,0.1256 1.4513,0.3681 3.6977,0.6775 6.8632,0.3957 6.1873,-0.5511 18.2336,-1.6713 23.2531,-5.1449 3.6307,-2.5123 15.4586,-24.5567 21.7698,-36.6407 16.7645,8.2564 36.0441,14.933 51.7677,16.6697 17.7523,1.9608 39.6784,5.816 60.048,6.683 -0.5636,1.7463 -1.1204,3.3789 -1.768,4.5123 -1.9303,3.3779 0.049,2.3897 -3.0073,2.8723 -3.0563,0.4825 -6.9189,0.8066 -11.4228,1.2892 -0.8005,0.086 -1.3605,0.2533 -1.7253,0.4692 -0.026,0.074 -0.029,0.1767 0.1327,0.2631 0.2308,0.1233 4.1748,-0.3818 4.4127,0.2891 0.1032,0.2907 -3.2688,0.4435 -3.2561,0.7322 0.022,0.5262 4.7903,0.1643 4.851,0.4409 0.1129,0.5154 -2.8564,0.5896 -3.2728,0.9385 0.9164,0.1755 1.9894,0.2759 3.2017,0.2441 2.6828,-0.07 8.4506,-1.3581 14.1649,-2.8202 -0.3935,1.1308 -0.7964,2.162 -1.2442,2.9457 -1.9304,3.3781 -2.686,3.6814 -5.7424,4.1639 -3.0562,0.4827 -6.9163,0.8043 -11.4204,1.2869 -0.7595,0.081 -1.2972,0.2408 -1.6637,0.4407 0.013,0.051 0.054,0.1044 0.1423,0.1517 0.2308,0.1234 4.1748,-0.3817 4.4127,0.2892 0.1031,0.2907 -3.2689,0.4435 -3.2561,0.7323 0.024,0.5261 4.7902,0.1595 4.851,0.4361 0.1231,0.5588 -3.3814,0.6047 -3.3226,1.0379 0,0.02 0.012,0.04 0.023,0.059 0.9069,0.1705 1.9664,0.2636 3.159,0.2322 6.1126,-0.1608 30.9952,-7.8668 31.9603,-8.5102 0.9651,-0.6435 4.766,-2.9012 4.9269,-4.5099 0.1392,-1.392 15.7513,-12.3826 20.1534,-15.4587 9.3764,-5.4956 15.5823,-14.5155 16.7267,-28.6708 1.6414,-3.6423 3.3032,-7.8464 4.7469,-12.6314 2.0182,-6.6898 3.6563,-14.5544 4.0549,-23.0946 0.399,-7.2142 0.2522,-13.4635 -0.3627,-18.9376 -0.6094,-5.4258 -1.6736,-10.0386 -3.0832,-14.0511 -1.4162,-4.0315 -3.1533,-7.3751 -5.043,-10.2686 -1.9107,-2.9254 -3.9662,-5.3722 -5.9131,-7.5268 -2.024,-2.2401 -3.9561,-4.2051 -5.69,-6.1521 -1.8419,-2.0687 -3.4347,-4.0754 -4.8132,-6.3348 -1.4918,-2.4448 -2.6882,-5.1185 -3.5713,-8.2305 -0.4277,-1.5068 -0.7751,-3.0973 -1.0451,-4.7777 -0.3475,-2.1611 -0.5842,-4.5401 -0.685,-7.176 -0.3781,-9.9226 0.7961,-17.5263 2.5287,-23.3386 1.8977,-6.3666 4.5483,-10.8463 6.8988,-13.9443 2.5907,-3.4153 5.1792,-5.6066 6.7162,-6.8182 0.1499,-0.1177 0.2962,-0.2312 0.4384,-0.3412 2.5085,-1.942 3.1724,-2.5285 3.1188,-2.7017 -0.012,-0.032 -0.2164,-0.2068 -0.8461,-0.1825 z m -254.551,60.9272 a 4.5564707,5.6356346 0 0 1 4.5574,5.6355 4.5564707,5.6356346 0 0 1 -4.5574,5.6357 4.5564707,5.6356346 0 0 1 -4.5099,-4.8323 2.1408754,2.2680562 0 0 0 1.8581,1.1495 2.1408754,2.2680562 0 0 0 2.14,-2.2679 2.1408754,2.2680562 0 0 0 -2.14,-2.2681 2.1408754,2.2680562 0 0 0 -1.6802,0.8721 4.5564707,5.6356346 0 0 1 4.332,-3.9245 z"
           inkscape:export-filename="..\..\BIOL-4311\Seminar\Seminar-Images\My-Rat.svg"
           inkscape:export-xdpi="96"
           inkscape:export-ydpi="96" />
        <path
           id="path1-5"
           style="fill:#84c826;fill-opacity:1;stroke-width:6.60484;paint-order:markers fill stroke"
           d="m 1253.251,1753.283 c -11.1798,13.855 -36.5602,28.5466 -50.8053,17.0518 -14.2452,-11.4949 -11.961,-44.8234 -0.7811,-58.6784 11.18,-13.8549 35.9008,-15.0772 50.146,-3.5823 14.2452,11.4949 12.6205,31.354 1.4404,45.2089 z"
           sodipodi:nodetypes="sssss" />
      </g>
    </g>
  </g>
</svg>
